<ttFont>
    <TTGlyph name="A" xMin="-9" yMin="0" xMax="692" yMax="690">
      <contour>
        <pt x="436" y="149" on="1"/>
        <pt x="247" y="149" on="1"/>
        <pt x="212" y="0" on="1"/>
        <pt x="-9" y="0" on="1"/>
        <pt x="170" y="634" on="1"/>
        <pt x="177" y="659" on="0"/>
        <pt x="217" y="690" on="0"/>
        <pt x="243" y="690" on="1"/>
        <pt x="440" y="690" on="1"/>
        <pt x="466" y="690" on="0"/>
        <pt x="506" y="659" on="0"/>
        <pt x="513" y="634" on="1"/>
        <pt x="692" y="0" on="1"/>
        <pt x="471" y="0" on="1"/>
      </contour>
      <contour>
        <pt x="401" y="301" on="1"/>
        <pt x="367" y="449" on="1"/>
        <pt x="358" y="496" on="0"/>
        <pt x="355" y="528" on="1"/>
        <pt x="328" y="528" on="1"/>
        <pt x="322" y="481" on="0"/>
        <pt x="316" y="449" on="1"/>
        <pt x="282" y="301" on="1"/>
      </contour>
    </TTGlyph>
    <TTGlyph name="AE" xMin="-19" yMin="-4" xMax="926" yMax="692">
      <contour>
        <pt x="916" y="159" on="1"/>
        <pt x="926" y="9" on="1"/>
        <pt x="822" y="-4" on="0"/>
        <pt x="585" y="-4" on="1"/>
        <pt x="518" y="-4" on="0"/>
        <pt x="439" y="82" on="0"/>
        <pt x="439" y="153" on="1"/>
        <pt x="439" y="161" on="1"/>
        <pt x="269" y="161" on="1"/>
        <pt x="202" y="0" on="1"/>
        <pt x="-19" y="0" on="1"/>
        <pt x="222" y="534" on="1"/>
        <pt x="249" y="594" on="0"/>
        <pt x="319" y="658" on="0"/>
        <pt x="458" y="692" on="0"/>
        <pt x="576" y="692" on="1"/>
        <pt x="805" y="692" on="0"/>
        <pt x="926" y="681" on="1"/>
        <pt x="916" y="531" on="1"/>
        <pt x="680" y="531" on="1"/>
        <pt x="663" y="531" on="0"/>
        <pt x="641" y="511" on="0"/>
        <pt x="641" y="495" on="1"/>
        <pt x="641" y="420" on="1"/>
        <pt x="882" y="420" on="1"/>
        <pt x="882" y="286" on="1"/>
        <pt x="641" y="286" on="1"/>
        <pt x="641" y="195" on="1"/>
        <pt x="641" y="179" on="0"/>
        <pt x="662" y="159" on="0"/>
        <pt x="680" y="159" on="1"/>
      </contour>
      <contour>
        <pt x="439" y="309" on="1"/>
        <pt x="439" y="498" on="1"/>
        <pt x="439" y="530" on="0"/>
        <pt x="454" y="560" on="1"/>
        <pt x="440" y="560" on="1"/>
        <pt x="436" y="555" on="0"/>
        <pt x="417" y="516" on="1"/>
        <pt x="331" y="309" on="1"/>
      </contour>
    </TTGlyph>
    <TTGlyph name="Aacute" xMin="-9" yMin="0" xMax="692" yMax="956">
      <contour>
        <pt x="298" y="720" on="1"/>
        <pt x="241" y="806" on="1"/>
        <pt x="474" y="956" on="1"/>
        <pt x="553" y="823" on="1"/>
      </contour>
      <contour>
        <pt x="436" y="149" on="1"/>
        <pt x="247" y="149" on="1"/>
        <pt x="212" y="0" on="1"/>
        <pt x="-9" y="0" on="1"/>
        <pt x="170" y="634" on="1"/>
        <pt x="177" y="659" on="0"/>
        <pt x="217" y="690" on="0"/>
        <pt x="243" y="690" on="1"/>
        <pt x="440" y="690" on="1"/>
        <pt x="466" y="690" on="0"/>
        <pt x="506" y="659" on="0"/>
        <pt x="513" y="634" on="1"/>
        <pt x="692" y="0" on="1"/>
        <pt x="471" y="0" on="1"/>
      </contour>
      <contour>
        <pt x="401" y="301" on="1"/>
        <pt x="367" y="449" on="1"/>
        <pt x="358" y="496" on="0"/>
        <pt x="355" y="528" on="1"/>
        <pt x="328" y="528" on="1"/>
        <pt x="322" y="481" on="0"/>
        <pt x="316" y="449" on="1"/>
        <pt x="282" y="301" on="1"/>
      </contour>
    </TTGlyph>
    <TTGlyph name="Abreve" xMin="-9" yMin="0" xMax="692" yMax="922">
      <contour>
        <pt x="424" y="922" on="1"/>
        <pt x="521" y="909" on="1"/>
        <pt x="533" y="840" on="0"/>
        <pt x="433" y="737" on="0"/>
        <pt x="253" y="737" on="0"/>
        <pt x="152" y="840" on="0"/>
        <pt x="164" y="909" on="1"/>
        <pt x="261" y="922" on="1"/>
        <pt x="261" y="890" on="0"/>
        <pt x="298" y="863" on="0"/>
        <pt x="343" y="863" on="1"/>
        <pt x="387" y="863" on="0"/>
        <pt x="424" y="890" on="0"/>
      </contour>
      <contour>
        <pt x="436" y="149" on="1"/>
        <pt x="247" y="149" on="1"/>
        <pt x="212" y="0" on="1"/>
        <pt x="-9" y="0" on="1"/>
        <pt x="170" y="634" on="1"/>
        <pt x="177" y="659" on="0"/>
        <pt x="217" y="690" on="0"/>
        <pt x="243" y="690" on="1"/>
        <pt x="440" y="690" on="1"/>
        <pt x="466" y="690" on="0"/>
        <pt x="506" y="659" on="0"/>
        <pt x="513" y="634" on="1"/>
        <pt x="692" y="0" on="1"/>
        <pt x="471" y="0" on="1"/>
      </contour>
      <contour>
        <pt x="401" y="301" on="1"/>
        <pt x="367" y="449" on="1"/>
        <pt x="358" y="496" on="0"/>
        <pt x="355" y="528" on="1"/>
        <pt x="328" y="528" on="1"/>
        <pt x="322" y="481" on="0"/>
        <pt x="316" y="449" on="1"/>
        <pt x="282" y="301" on="1"/>
      </contour>
    </TTGlyph>
    <TTGlyph name="Acircumflex" xMin="-9" yMin="0" xMax="692" yMax="920">
      <contour>
        <pt x="178" y="710" on="1"/>
        <pt x="128" y="787" on="1"/>
        <pt x="268" y="920" on="1"/>
        <pt x="420" y="920" on="1"/>
        <pt x="555" y="779" on="1"/>
        <pt x="507" y="710" on="1"/>
        <pt x="348" y="803" on="1"/>
        <pt x="340" y="803" on="1"/>
      </contour>
      <contour>
        <pt x="436" y="149" on="1"/>
        <pt x="247" y="149" on="1"/>
        <pt x="212" y="0" on="1"/>
        <pt x="-9" y="0" on="1"/>
        <pt x="170" y="634" on="1"/>
        <pt x="177" y="659" on="0"/>
        <pt x="217" y="690" on="0"/>
        <pt x="243" y="690" on="1"/>
        <pt x="440" y="690" on="1"/>
        <pt x="466" y="690" on="0"/>
        <pt x="506" y="659" on="0"/>
        <pt x="513" y="634" on="1"/>
        <pt x="692" y="0" on="1"/>
        <pt x="471" y="0" on="1"/>
      </contour>
      <contour>
        <pt x="401" y="301" on="1"/>
        <pt x="367" y="449" on="1"/>
        <pt x="358" y="496" on="0"/>
        <pt x="355" y="528" on="1"/>
        <pt x="328" y="528" on="1"/>
        <pt x="322" y="481" on="0"/>
        <pt x="316" y="449" on="1"/>
        <pt x="282" y="301" on="1"/>
      </contour>
    </TTGlyph>
    <TTGlyph name="Adieresis" xMin="-9" yMin="0" xMax="692" yMax="904">
      <contour>
        <pt x="281" y="763" on="1"/>
        <pt x="212" y="763" on="1"/>
        <pt x="173" y="763" on="0"/>
        <pt x="173" y="802" on="1"/>
        <pt x="173" y="865" on="1"/>
        <pt x="173" y="904" on="0"/>
        <pt x="212" y="904" on="1"/>
        <pt x="281" y="904" on="1"/>
        <pt x="320" y="904" on="0"/>
        <pt x="320" y="865" on="1"/>
        <pt x="320" y="802" on="1"/>
        <pt x="320" y="763" on="0"/>
      </contour>
      <contour>
        <pt x="470" y="763" on="1"/>
        <pt x="401" y="763" on="1"/>
        <pt x="362" y="763" on="0"/>
        <pt x="362" y="802" on="1"/>
        <pt x="362" y="865" on="1"/>
        <pt x="362" y="904" on="0"/>
        <pt x="401" y="904" on="1"/>
        <pt x="470" y="904" on="1"/>
        <pt x="509" y="904" on="0"/>
        <pt x="509" y="865" on="1"/>
        <pt x="509" y="802" on="1"/>
        <pt x="509" y="763" on="0"/>
      </contour>
      <contour>
        <pt x="436" y="149" on="1"/>
        <pt x="247" y="149" on="1"/>
        <pt x="212" y="0" on="1"/>
        <pt x="-9" y="0" on="1"/>
        <pt x="170" y="634" on="1"/>
        <pt x="177" y="659" on="0"/>
        <pt x="217" y="690" on="0"/>
        <pt x="243" y="690" on="1"/>
        <pt x="440" y="690" on="1"/>
        <pt x="466" y="690" on="0"/>
        <pt x="506" y="659" on="0"/>
        <pt x="513" y="634" on="1"/>
        <pt x="692" y="0" on="1"/>
        <pt x="471" y="0" on="1"/>
      </contour>
      <contour>
        <pt x="401" y="301" on="1"/>
        <pt x="367" y="449" on="1"/>
        <pt x="358" y="496" on="0"/>
        <pt x="355" y="528" on="1"/>
        <pt x="328" y="528" on="1"/>
        <pt x="322" y="481" on="0"/>
        <pt x="316" y="449" on="1"/>
        <pt x="282" y="301" on="1"/>
      </contour>
    </TTGlyph>
    <TTGlyph name="Agrave" xMin="-9" yMin="0" xMax="692" yMax="956">
      <contour>
        <pt x="386" y="720" on="1"/>
        <pt x="131" y="823" on="1"/>
        <pt x="210" y="956" on="1"/>
        <pt x="443" y="806" on="1"/>
      </contour>
      <contour>
        <pt x="436" y="149" on="1"/>
        <pt x="247" y="149" on="1"/>
        <pt x="212" y="0" on="1"/>
        <pt x="-9" y="0" on="1"/>
        <pt x="170" y="634" on="1"/>
        <pt x="177" y="659" on="0"/>
        <pt x="217" y="690" on="0"/>
        <pt x="243" y="690" on="1"/>
        <pt x="440" y="690" on="1"/>
        <pt x="466" y="690" on="0"/>
        <pt x="506" y="659" on="0"/>
        <pt x="513" y="634" on="1"/>
        <pt x="692" y="0" on="1"/>
        <pt x="471" y="0" on="1"/>
      </contour>
      <contour>
        <pt x="401" y="301" on="1"/>
        <pt x="367" y="449" on="1"/>
        <pt x="358" y="496" on="0"/>
        <pt x="355" y="528" on="1"/>
        <pt x="328" y="528" on="1"/>
        <pt x="322" y="481" on="0"/>
        <pt x="316" y="449" on="1"/>
        <pt x="282" y="301" on="1"/>
      </contour>
    </TTGlyph>
    <TTGlyph name="Amacron" xMin="-9" yMin="0" xMax="692" yMax="895">
      <contour>
        <pt x="504" y="772" on="1"/>
        <pt x="184" y="772" on="1"/>
        <pt x="184" y="895" on="1"/>
        <pt x="504" y="895" on="1"/>
      </contour>
      <contour>
        <pt x="436" y="149" on="1"/>
        <pt x="247" y="149" on="1"/>
        <pt x="212" y="0" on="1"/>
        <pt x="-9" y="0" on="1"/>
        <pt x="170" y="634" on="1"/>
        <pt x="177" y="659" on="0"/>
        <pt x="217" y="690" on="0"/>
        <pt x="243" y="690" on="1"/>
        <pt x="440" y="690" on="1"/>
        <pt x="466" y="690" on="0"/>
        <pt x="506" y="659" on="0"/>
        <pt x="513" y="634" on="1"/>
        <pt x="692" y="0" on="1"/>
        <pt x="471" y="0" on="1"/>
      </contour>
      <contour>
        <pt x="401" y="301" on="1"/>
        <pt x="367" y="449" on="1"/>
        <pt x="358" y="496" on="0"/>
        <pt x="355" y="528" on="1"/>
        <pt x="328" y="528" on="1"/>
        <pt x="322" y="481" on="0"/>
        <pt x="316" y="449" on="1"/>
        <pt x="282" y="301" on="1"/>
      </contour>
    </TTGlyph>
    <TTGlyph name="Aogonek" xMin="-9" yMin="-213" xMax="705" yMax="690">
      <contour>
        <pt x="693" y="-120" on="1"/>
        <pt x="705" y="-192" on="1"/>
        <pt x="624" y="-222" on="0"/>
        <pt x="529" y="-204" on="0"/>
        <pt x="494" y="-143" on="0"/>
        <pt x="507" y="-105" on="1"/>
        <pt x="525" y="-49" on="0"/>
        <pt x="609" y="0" on="1"/>
        <pt x="471" y="0" on="1"/>
        <pt x="436" y="149" on="1"/>
        <pt x="247" y="149" on="1"/>
        <pt x="212" y="0" on="1"/>
        <pt x="-9" y="0" on="1"/>
        <pt x="170" y="634" on="1"/>
        <pt x="177" y="659" on="0"/>
        <pt x="217" y="690" on="0"/>
        <pt x="243" y="690" on="1"/>
        <pt x="440" y="690" on="1"/>
        <pt x="466" y="690" on="0"/>
        <pt x="506" y="659" on="0"/>
        <pt x="513" y="634" on="1"/>
        <pt x="692" y="0" on="1"/>
        <pt x="652" y="-72" on="0"/>
        <pt x="645" y="-87" on="1"/>
        <pt x="633" y="-112" on="0"/>
        <pt x="661" y="-125" on="0"/>
      </contour>
      <contour>
        <pt x="401" y="301" on="1"/>
        <pt x="367" y="449" on="1"/>
        <pt x="358" y="496" on="0"/>
        <pt x="355" y="528" on="1"/>
        <pt x="328" y="528" on="1"/>
        <pt x="322" y="481" on="0"/>
        <pt x="316" y="449" on="1"/>
        <pt x="282" y="301" on="1"/>
      </contour>
    </TTGlyph>
    <TTGlyph name="Aring" xMin="-9" yMin="0" xMax="692" yMax="963">
      <contour>
        <pt x="396" y="713" on="0"/>
        <pt x="290" y="713" on="0"/>
        <pt x="214" y="786" on="0"/>
        <pt x="214" y="890" on="0"/>
        <pt x="290" y="963" on="0"/>
        <pt x="396" y="963" on="0"/>
        <pt x="472" y="890" on="0"/>
        <pt x="472" y="786" on="0"/>
      </contour>
      <contour>
        <pt x="361" y="883" on="0"/>
        <pt x="325" y="883" on="0"/>
        <pt x="299" y="856" on="0"/>
        <pt x="299" y="838" on="1"/>
        <pt x="299" y="819" on="0"/>
        <pt x="325" y="793" on="0"/>
        <pt x="361" y="793" on="0"/>
        <pt x="387" y="819" on="0"/>
        <pt x="387" y="838" on="1"/>
        <pt x="387" y="856" on="0"/>
      </contour>
      <contour>
        <pt x="436" y="149" on="1"/>
        <pt x="247" y="149" on="1"/>
        <pt x="212" y="0" on="1"/>
        <pt x="-9" y="0" on="1"/>
        <pt x="170" y="634" on="1"/>
        <pt x="177" y="659" on="0"/>
        <pt x="217" y="690" on="0"/>
        <pt x="243" y="690" on="1"/>
        <pt x="440" y="690" on="1"/>
        <pt x="466" y="690" on="0"/>
        <pt x="506" y="659" on="0"/>
        <pt x="513" y="634" on="1"/>
        <pt x="692" y="0" on="1"/>
        <pt x="471" y="0" on="1"/>
      </contour>
      <contour>
        <pt x="401" y="301" on="1"/>
        <pt x="367" y="449" on="1"/>
        <pt x="358" y="496" on="0"/>
        <pt x="355" y="528" on="1"/>
        <pt x="328" y="528" on="1"/>
        <pt x="322" y="481" on="0"/>
        <pt x="316" y="449" on="1"/>
        <pt x="282" y="301" on="1"/>
      </contour>
    </TTGlyph>
    <TTGlyph name="Atilde" xMin="-9" yMin="0" xMax="692" yMax="920">
      <contour>
        <pt x="239" y="751" on="1"/>
        <pt x="152" y="751" on="1"/>
        <pt x="137" y="834" on="0"/>
        <pt x="192" y="923" on="0"/>
        <pt x="237" y="920" on="1"/>
        <pt x="277" y="917" on="0"/>
        <pt x="393" y="880" on="0"/>
        <pt x="406" y="877" on="1"/>
        <pt x="427" y="873" on="0"/>
        <pt x="435" y="888" on="0"/>
        <pt x="435" y="915" on="1"/>
        <pt x="522" y="915" on="1"/>
        <pt x="537" y="834" on="0"/>
        <pt x="486" y="743" on="0"/>
        <pt x="437" y="746" on="1"/>
        <pt x="398" y="749" on="0"/>
        <pt x="280" y="787" on="0"/>
        <pt x="267" y="789" on="1"/>
        <pt x="247" y="792" on="0"/>
        <pt x="239" y="780" on="0"/>
        <pt x="239" y="757" on="1"/>
        <pt x="239" y="753" on="0"/>
      </contour>
      <contour>
        <pt x="436" y="149" on="1"/>
        <pt x="247" y="149" on="1"/>
        <pt x="212" y="0" on="1"/>
        <pt x="-9" y="0" on="1"/>
        <pt x="170" y="634" on="1"/>
        <pt x="177" y="659" on="0"/>
        <pt x="217" y="690" on="0"/>
        <pt x="243" y="690" on="1"/>
        <pt x="440" y="690" on="1"/>
        <pt x="466" y="690" on="0"/>
        <pt x="506" y="659" on="0"/>
        <pt x="513" y="634" on="1"/>
        <pt x="692" y="0" on="1"/>
        <pt x="471" y="0" on="1"/>
      </contour>
      <contour>
        <pt x="401" y="301" on="1"/>
        <pt x="367" y="449" on="1"/>
        <pt x="358" y="496" on="0"/>
        <pt x="355" y="528" on="1"/>
        <pt x="328" y="528" on="1"/>
        <pt x="322" y="481" on="0"/>
        <pt x="316" y="449" on="1"/>
        <pt x="282" y="301" on="1"/>
      </contour>
    </TTGlyph>
    <TTGlyph name="B" xMin="52" yMin="-8" xMax="633" yMax="698">
      <contour>
        <pt x="484" y="361" on="1"/>
        <pt x="484" y="355" on="1"/>
        <pt x="564" y="348" on="0"/>
        <pt x="633" y="258" on="0"/>
        <pt x="633" y="172" on="1"/>
        <pt x="633" y="69" on="0"/>
        <pt x="518" y="-8" on="0"/>
        <pt x="383" y="-8" on="1"/>
        <pt x="164" y="-8" on="0"/>
        <pt x="52" y="0" on="1"/>
        <pt x="52" y="690" on="1"/>
        <pt x="154" y="698" on="0"/>
        <pt x="350" y="698" on="1"/>
        <pt x="497" y="698" on="0"/>
        <pt x="610" y="623" on="0"/>
        <pt x="610" y="518" on="1"/>
        <pt x="610" y="443" on="0"/>
        <pt x="551" y="367" on="0"/>
      </contour>
      <contour>
        <pt x="264" y="421" on="1"/>
        <pt x="341" y="421" on="1"/>
        <pt x="379" y="421" on="0"/>
        <pt x="403" y="447" on="0"/>
        <pt x="403" y="527" on="0"/>
        <pt x="378" y="551" on="0"/>
        <pt x="339" y="551" on="1"/>
        <pt x="264" y="551" on="1"/>
      </contour>
      <contour>
        <pt x="264" y="139" on="1"/>
        <pt x="344" y="139" on="1"/>
        <pt x="389" y="139" on="0"/>
        <pt x="417" y="169" on="0"/>
        <pt x="417" y="216" on="1"/>
        <pt x="417" y="264" on="0"/>
        <pt x="389" y="294" on="0"/>
        <pt x="343" y="294" on="1"/>
        <pt x="264" y="294" on="1"/>
      </contour>
    </TTGlyph>
    <TTGlyph name="C" xMin="32" yMin="-12" xMax="587" yMax="702">
      <contour>
        <pt x="571" y="179" on="1"/>
        <pt x="587" y="21" on="1"/>
        <pt x="491" y="-12" on="0"/>
        <pt x="345" y="-12" on="1"/>
        <pt x="173" y="-12" on="0"/>
        <pt x="32" y="148" on="0"/>
        <pt x="32" y="542" on="0"/>
        <pt x="173" y="702" on="0"/>
        <pt x="345" y="702" on="1"/>
        <pt x="474" y="702" on="0"/>
        <pt x="572" y="675" on="1"/>
        <pt x="556" y="517" on="1"/>
        <pt x="416" y="519" on="0"/>
        <pt x="345" y="519" on="1"/>
        <pt x="294" y="519" on="0"/>
        <pt x="260" y="450" on="0"/>
        <pt x="260" y="240" on="0"/>
        <pt x="294" y="171" on="0"/>
        <pt x="345" y="171" on="1"/>
        <pt x="494" y="171" on="0"/>
      </contour>
    </TTGlyph>
    <TTGlyph name="Cacute" xMin="32" yMin="-12" xMax="587" yMax="956">
      <contour>
        <pt x="554" y="823" on="1"/>
        <pt x="299" y="720" on="1"/>
        <pt x="242" y="806" on="1"/>
        <pt x="475" y="956" on="1"/>
      </contour>
      <contour>
        <pt x="571" y="179" on="1"/>
        <pt x="587" y="21" on="1"/>
        <pt x="491" y="-12" on="0"/>
        <pt x="345" y="-12" on="1"/>
        <pt x="173" y="-12" on="0"/>
        <pt x="32" y="148" on="0"/>
        <pt x="32" y="542" on="0"/>
        <pt x="173" y="702" on="0"/>
        <pt x="345" y="702" on="1"/>
        <pt x="474" y="702" on="0"/>
        <pt x="572" y="675" on="1"/>
        <pt x="556" y="517" on="1"/>
        <pt x="416" y="519" on="0"/>
        <pt x="345" y="519" on="1"/>
        <pt x="294" y="519" on="0"/>
        <pt x="260" y="450" on="0"/>
        <pt x="260" y="240" on="0"/>
        <pt x="294" y="171" on="0"/>
        <pt x="345" y="171" on="1"/>
        <pt x="494" y="171" on="0"/>
      </contour>
    </TTGlyph>
    <TTGlyph name="Ccaron" xMin="32" yMin="-12" xMax="587" yMax="944">
      <contour>
        <pt x="548" y="867" on="1"/>
        <pt x="385" y="736" on="1"/>
        <pt x="303" y="736" on="1"/>
        <pt x="139" y="867" on="1"/>
        <pt x="189" y="944" on="1"/>
        <pt x="340" y="868" on="1"/>
        <pt x="348" y="868" on="1"/>
        <pt x="500" y="944" on="1"/>
      </contour>
      <contour>
        <pt x="571" y="179" on="1"/>
        <pt x="587" y="21" on="1"/>
        <pt x="491" y="-12" on="0"/>
        <pt x="345" y="-12" on="1"/>
        <pt x="173" y="-12" on="0"/>
        <pt x="32" y="148" on="0"/>
        <pt x="32" y="542" on="0"/>
        <pt x="173" y="702" on="0"/>
        <pt x="345" y="702" on="1"/>
        <pt x="474" y="702" on="0"/>
        <pt x="572" y="675" on="1"/>
        <pt x="556" y="517" on="1"/>
        <pt x="416" y="519" on="0"/>
        <pt x="345" y="519" on="1"/>
        <pt x="294" y="519" on="0"/>
        <pt x="260" y="450" on="0"/>
        <pt x="260" y="240" on="0"/>
        <pt x="294" y="171" on="0"/>
        <pt x="345" y="171" on="1"/>
        <pt x="494" y="171" on="0"/>
      </contour>
    </TTGlyph>
    <TTGlyph name="Ccedilla" xMin="32" yMin="-277" xMax="587" yMax="702">
      <contour>
        <pt x="571" y="179" on="1"/>
        <pt x="587" y="21" on="1"/>
        <pt x="491" y="-12" on="0"/>
        <pt x="345" y="-12" on="1"/>
        <pt x="173" y="-12" on="0"/>
        <pt x="32" y="148" on="0"/>
        <pt x="32" y="542" on="0"/>
        <pt x="173" y="702" on="0"/>
        <pt x="345" y="702" on="1"/>
        <pt x="474" y="702" on="0"/>
        <pt x="572" y="675" on="1"/>
        <pt x="556" y="517" on="1"/>
        <pt x="416" y="519" on="0"/>
        <pt x="345" y="519" on="1"/>
        <pt x="294" y="519" on="0"/>
        <pt x="260" y="450" on="0"/>
        <pt x="260" y="240" on="0"/>
        <pt x="294" y="171" on="0"/>
        <pt x="345" y="171" on="1"/>
        <pt x="494" y="171" on="0"/>
      </contour>
      <contour>
        <pt x="236" y="-137" on="1"/>
        <pt x="255" y="-65" on="1"/>
        <pt x="349" y="-50" on="0"/>
        <pt x="434" y="-74" on="0"/>
        <pt x="431" y="-130" on="1"/>
        <pt x="427" y="-213" on="0"/>
        <pt x="295" y="-290" on="0"/>
        <pt x="197" y="-277" on="1"/>
        <pt x="219" y="-199" on="1"/>
        <pt x="259" y="-199" on="0"/>
        <pt x="303" y="-180" on="0"/>
        <pt x="306" y="-148" on="1"/>
        <pt x="307" y="-138" on="0"/>
        <pt x="295" y="-137" on="1"/>
        <pt x="293" y="-137" on="0"/>
      </contour>
    </TTGlyph>
    <TTGlyph name="Cdotaccent" xMin="32" yMin="-12" xMax="587" yMax="913">
      <contour>
        <pt x="313" y="913" on="1"/>
        <pt x="376" y="913" on="1"/>
        <pt x="435" y="913" on="0"/>
        <pt x="435" y="856" on="1"/>
        <pt x="435" y="809" on="1"/>
        <pt x="435" y="752" on="0"/>
        <pt x="376" y="752" on="1"/>
        <pt x="313" y="752" on="1"/>
        <pt x="254" y="752" on="0"/>
        <pt x="254" y="809" on="1"/>
        <pt x="254" y="856" on="1"/>
        <pt x="254" y="913" on="0"/>
      </contour>
      <contour>
        <pt x="571" y="179" on="1"/>
        <pt x="587" y="21" on="1"/>
        <pt x="491" y="-12" on="0"/>
        <pt x="345" y="-12" on="1"/>
        <pt x="173" y="-12" on="0"/>
        <pt x="32" y="148" on="0"/>
        <pt x="32" y="542" on="0"/>
        <pt x="173" y="702" on="0"/>
        <pt x="345" y="702" on="1"/>
        <pt x="474" y="702" on="0"/>
        <pt x="572" y="675" on="1"/>
        <pt x="556" y="517" on="1"/>
        <pt x="416" y="519" on="0"/>
        <pt x="345" y="519" on="1"/>
        <pt x="294" y="519" on="0"/>
        <pt x="260" y="450" on="0"/>
        <pt x="260" y="240" on="0"/>
        <pt x="294" y="171" on="0"/>
        <pt x="345" y="171" on="1"/>
        <pt x="494" y="171" on="0"/>
      </contour>
    </TTGlyph>
    <TTGlyph name="D" xMin="52" yMin="-10" xMax="669" yMax="700">
      <contour>
        <pt x="52" y="0" on="1"/>
        <pt x="52" y="690" on="1"/>
        <pt x="228" y="700" on="0"/>
        <pt x="347" y="700" on="1"/>
        <pt x="470" y="700" on="0"/>
        <pt x="605" y="639" on="0"/>
        <pt x="669" y="486" on="0"/>
        <pt x="669" y="204" on="0"/>
        <pt x="605" y="51" on="0"/>
        <pt x="470" y="-10" on="0"/>
        <pt x="347" y="-10" on="1"/>
        <pt x="197" y="-10" on="0"/>
      </contour>
      <contour>
        <pt x="269" y="148" on="1"/>
        <pt x="347" y="147" on="1"/>
        <pt x="403" y="147" on="0"/>
        <pt x="440" y="226" on="0"/>
        <pt x="440" y="464" on="0"/>
        <pt x="403" y="543" on="0"/>
        <pt x="347" y="543" on="1"/>
        <pt x="269" y="543" on="1"/>
      </contour>
    </TTGlyph>
    <TTGlyph name="Dcaron" xMin="52" yMin="-10" xMax="669" yMax="944">
      <contour>
        <pt x="307" y="736" on="1"/>
        <pt x="143" y="867" on="1"/>
        <pt x="193" y="944" on="1"/>
        <pt x="344" y="868" on="1"/>
        <pt x="352" y="868" on="1"/>
        <pt x="504" y="944" on="1"/>
        <pt x="552" y="867" on="1"/>
        <pt x="389" y="736" on="1"/>
      </contour>
      <contour>
        <pt x="52" y="0" on="1"/>
        <pt x="52" y="690" on="1"/>
        <pt x="228" y="700" on="0"/>
        <pt x="347" y="700" on="1"/>
        <pt x="470" y="700" on="0"/>
        <pt x="605" y="639" on="0"/>
        <pt x="669" y="486" on="0"/>
        <pt x="669" y="204" on="0"/>
        <pt x="605" y="51" on="0"/>
        <pt x="470" y="-10" on="0"/>
        <pt x="347" y="-10" on="1"/>
        <pt x="197" y="-10" on="0"/>
      </contour>
      <contour>
        <pt x="269" y="148" on="1"/>
        <pt x="347" y="147" on="1"/>
        <pt x="403" y="147" on="0"/>
        <pt x="440" y="226" on="0"/>
        <pt x="440" y="464" on="0"/>
        <pt x="403" y="543" on="0"/>
        <pt x="347" y="543" on="1"/>
        <pt x="269" y="543" on="1"/>
      </contour>
    </TTGlyph>
    <TTGlyph name="Dcroat" xMin="7" yMin="-10" xMax="669" yMax="700">
      <contour>
        <pt x="52" y="409" on="1"/>
        <pt x="52" y="690" on="1"/>
        <pt x="228" y="700" on="0"/>
        <pt x="347" y="700" on="1"/>
        <pt x="470" y="700" on="0"/>
        <pt x="605" y="639" on="0"/>
        <pt x="669" y="486" on="0"/>
        <pt x="669" y="204" on="0"/>
        <pt x="605" y="51" on="0"/>
        <pt x="470" y="-10" on="0"/>
        <pt x="347" y="-10" on="1"/>
        <pt x="197" y="-10" on="0"/>
        <pt x="52" y="0" on="1"/>
        <pt x="52" y="305" on="1"/>
        <pt x="7" y="305" on="1"/>
        <pt x="7" y="409" on="1"/>
      </contour>
      <contour>
        <pt x="269" y="148" on="1"/>
        <pt x="347" y="147" on="1"/>
        <pt x="403" y="147" on="0"/>
        <pt x="440" y="226" on="0"/>
        <pt x="440" y="464" on="0"/>
        <pt x="403" y="543" on="0"/>
        <pt x="347" y="543" on="1"/>
        <pt x="269" y="543" on="1"/>
        <pt x="269" y="409" on="1"/>
        <pt x="368" y="409" on="1"/>
        <pt x="368" y="305" on="1"/>
        <pt x="269" y="305" on="1"/>
      </contour>
    </TTGlyph>
    <TTGlyph name="Delta" xMin="17" yMin="0" xMax="687" yMax="690">
      <contour>
        <pt x="687" y="68" on="1"/>
        <pt x="687" y="0" on="1"/>
        <pt x="17" y="0" on="1"/>
        <pt x="17" y="68" on="1"/>
        <pt x="245" y="690" on="1"/>
        <pt x="459" y="690" on="1"/>
      </contour>
      <contour>
        <pt x="446" y="152" on="1"/>
        <pt x="372" y="383" on="1"/>
        <pt x="366" y="406" on="0"/>
        <pt x="352" y="484" on="1"/>
        <pt x="332" y="386" on="0"/>
        <pt x="331" y="383" on="1"/>
        <pt x="258" y="152" on="1"/>
      </contour>
    </TTGlyph>
    <TTGlyph name="E" xMin="47" yMin="-4" xMax="568" yMax="694">
      <contour>
        <pt x="558" y="162" on="1"/>
        <pt x="568" y="9" on="1"/>
        <pt x="468" y="-4" on="0"/>
        <pt x="209" y="-4" on="1"/>
        <pt x="138" y="-4" on="0"/>
        <pt x="47" y="83" on="0"/>
        <pt x="47" y="153" on="1"/>
        <pt x="47" y="537" on="1"/>
        <pt x="47" y="607" on="0"/>
        <pt x="138" y="694" on="0"/>
        <pt x="209" y="694" on="1"/>
        <pt x="468" y="694" on="0"/>
        <pt x="568" y="681" on="1"/>
        <pt x="558" y="528" on="1"/>
        <pt x="305" y="528" on="1"/>
        <pt x="286" y="528" on="0"/>
        <pt x="264" y="508" on="0"/>
        <pt x="264" y="492" on="1"/>
        <pt x="264" y="425" on="1"/>
        <pt x="522" y="425" on="1"/>
        <pt x="522" y="281" on="1"/>
        <pt x="264" y="281" on="1"/>
        <pt x="264" y="198" on="1"/>
        <pt x="264" y="182" on="0"/>
        <pt x="286" y="162" on="0"/>
        <pt x="305" y="162" on="1"/>
      </contour>
    </TTGlyph>
    <TTGlyph name="Eacute" xMin="47" yMin="-4" xMax="568" yMax="956">
      <contour>
        <pt x="278" y="720" on="1"/>
        <pt x="221" y="806" on="1"/>
        <pt x="454" y="956" on="1"/>
        <pt x="533" y="823" on="1"/>
      </contour>
      <contour>
        <pt x="558" y="162" on="1"/>
        <pt x="568" y="9" on="1"/>
        <pt x="468" y="-4" on="0"/>
        <pt x="209" y="-4" on="1"/>
        <pt x="138" y="-4" on="0"/>
        <pt x="47" y="83" on="0"/>
        <pt x="47" y="153" on="1"/>
        <pt x="47" y="537" on="1"/>
        <pt x="47" y="607" on="0"/>
        <pt x="138" y="694" on="0"/>
        <pt x="209" y="694" on="1"/>
        <pt x="468" y="694" on="0"/>
        <pt x="568" y="681" on="1"/>
        <pt x="558" y="528" on="1"/>
        <pt x="305" y="528" on="1"/>
        <pt x="286" y="528" on="0"/>
        <pt x="264" y="508" on="0"/>
        <pt x="264" y="492" on="1"/>
        <pt x="264" y="425" on="1"/>
        <pt x="522" y="425" on="1"/>
        <pt x="522" y="281" on="1"/>
        <pt x="264" y="281" on="1"/>
        <pt x="264" y="198" on="1"/>
        <pt x="264" y="182" on="0"/>
        <pt x="286" y="162" on="0"/>
        <pt x="305" y="162" on="1"/>
      </contour>
    </TTGlyph>
    <TTGlyph name="Ecaron" xMin="47" yMin="-4" xMax="568" yMax="944">
      <contour>
        <pt x="282" y="736" on="1"/>
        <pt x="118" y="867" on="1"/>
        <pt x="168" y="944" on="1"/>
        <pt x="319" y="868" on="1"/>
        <pt x="327" y="868" on="1"/>
        <pt x="479" y="944" on="1"/>
        <pt x="527" y="867" on="1"/>
        <pt x="364" y="736" on="1"/>
      </contour>
      <contour>
        <pt x="558" y="162" on="1"/>
        <pt x="568" y="9" on="1"/>
        <pt x="468" y="-4" on="0"/>
        <pt x="209" y="-4" on="1"/>
        <pt x="138" y="-4" on="0"/>
        <pt x="47" y="83" on="0"/>
        <pt x="47" y="153" on="1"/>
        <pt x="47" y="537" on="1"/>
        <pt x="47" y="607" on="0"/>
        <pt x="138" y="694" on="0"/>
        <pt x="209" y="694" on="1"/>
        <pt x="468" y="694" on="0"/>
        <pt x="568" y="681" on="1"/>
        <pt x="558" y="528" on="1"/>
        <pt x="305" y="528" on="1"/>
        <pt x="286" y="528" on="0"/>
        <pt x="264" y="508" on="0"/>
        <pt x="264" y="492" on="1"/>
        <pt x="264" y="425" on="1"/>
        <pt x="522" y="425" on="1"/>
        <pt x="522" y="281" on="1"/>
        <pt x="264" y="281" on="1"/>
        <pt x="264" y="198" on="1"/>
        <pt x="264" y="182" on="0"/>
        <pt x="286" y="162" on="0"/>
        <pt x="305" y="162" on="1"/>
      </contour>
    </TTGlyph>
    <TTGlyph name="Ecircumflex" xMin="47" yMin="-4" xMax="568" yMax="920">
      <contour>
        <pt x="158" y="710" on="1"/>
        <pt x="108" y="787" on="1"/>
        <pt x="248" y="920" on="1"/>
        <pt x="400" y="920" on="1"/>
        <pt x="535" y="779" on="1"/>
        <pt x="487" y="710" on="1"/>
        <pt x="328" y="803" on="1"/>
        <pt x="320" y="803" on="1"/>
      </contour>
      <contour>
        <pt x="558" y="162" on="1"/>
        <pt x="568" y="9" on="1"/>
        <pt x="468" y="-4" on="0"/>
        <pt x="209" y="-4" on="1"/>
        <pt x="138" y="-4" on="0"/>
        <pt x="47" y="83" on="0"/>
        <pt x="47" y="153" on="1"/>
        <pt x="47" y="537" on="1"/>
        <pt x="47" y="607" on="0"/>
        <pt x="138" y="694" on="0"/>
        <pt x="209" y="694" on="1"/>
        <pt x="468" y="694" on="0"/>
        <pt x="568" y="681" on="1"/>
        <pt x="558" y="528" on="1"/>
        <pt x="305" y="528" on="1"/>
        <pt x="286" y="528" on="0"/>
        <pt x="264" y="508" on="0"/>
        <pt x="264" y="492" on="1"/>
        <pt x="264" y="425" on="1"/>
        <pt x="522" y="425" on="1"/>
        <pt x="522" y="281" on="1"/>
        <pt x="264" y="281" on="1"/>
        <pt x="264" y="198" on="1"/>
        <pt x="264" y="182" on="0"/>
        <pt x="286" y="162" on="0"/>
        <pt x="305" y="162" on="1"/>
      </contour>
    </TTGlyph>
    <TTGlyph name="Edieresis" xMin="47" yMin="-4" xMax="568" yMax="904">
      <contour>
        <pt x="261" y="763" on="1"/>
        <pt x="192" y="763" on="1"/>
        <pt x="153" y="763" on="0"/>
        <pt x="153" y="802" on="1"/>
        <pt x="153" y="865" on="1"/>
        <pt x="153" y="904" on="0"/>
        <pt x="192" y="904" on="1"/>
        <pt x="261" y="904" on="1"/>
        <pt x="300" y="904" on="0"/>
        <pt x="300" y="865" on="1"/>
        <pt x="300" y="802" on="1"/>
        <pt x="300" y="763" on="0"/>
      </contour>
      <contour>
        <pt x="450" y="763" on="1"/>
        <pt x="381" y="763" on="1"/>
        <pt x="342" y="763" on="0"/>
        <pt x="342" y="802" on="1"/>
        <pt x="342" y="865" on="1"/>
        <pt x="342" y="904" on="0"/>
        <pt x="381" y="904" on="1"/>
        <pt x="450" y="904" on="1"/>
        <pt x="489" y="904" on="0"/>
        <pt x="489" y="865" on="1"/>
        <pt x="489" y="802" on="1"/>
        <pt x="489" y="763" on="0"/>
      </contour>
      <contour>
        <pt x="558" y="162" on="1"/>
        <pt x="568" y="9" on="1"/>
        <pt x="468" y="-4" on="0"/>
        <pt x="209" y="-4" on="1"/>
        <pt x="138" y="-4" on="0"/>
        <pt x="47" y="83" on="0"/>
        <pt x="47" y="153" on="1"/>
        <pt x="47" y="537" on="1"/>
        <pt x="47" y="607" on="0"/>
        <pt x="138" y="694" on="0"/>
        <pt x="209" y="694" on="1"/>
        <pt x="468" y="694" on="0"/>
        <pt x="568" y="681" on="1"/>
        <pt x="558" y="528" on="1"/>
        <pt x="305" y="528" on="1"/>
        <pt x="286" y="528" on="0"/>
        <pt x="264" y="508" on="0"/>
        <pt x="264" y="492" on="1"/>
        <pt x="264" y="425" on="1"/>
        <pt x="522" y="425" on="1"/>
        <pt x="522" y="281" on="1"/>
        <pt x="264" y="281" on="1"/>
        <pt x="264" y="198" on="1"/>
        <pt x="264" y="182" on="0"/>
        <pt x="286" y="162" on="0"/>
        <pt x="305" y="162" on="1"/>
      </contour>
    </TTGlyph>
    <TTGlyph name="Edotaccent" xMin="47" yMin="-4" xMax="568" yMax="913">
      <contour>
        <pt x="355" y="752" on="1"/>
        <pt x="292" y="752" on="1"/>
        <pt x="233" y="752" on="0"/>
        <pt x="233" y="809" on="1"/>
        <pt x="233" y="856" on="1"/>
        <pt x="233" y="913" on="0"/>
        <pt x="292" y="913" on="1"/>
        <pt x="355" y="913" on="1"/>
        <pt x="414" y="913" on="0"/>
        <pt x="414" y="856" on="1"/>
        <pt x="414" y="809" on="1"/>
        <pt x="414" y="752" on="0"/>
      </contour>
      <contour>
        <pt x="558" y="162" on="1"/>
        <pt x="568" y="9" on="1"/>
        <pt x="468" y="-4" on="0"/>
        <pt x="209" y="-4" on="1"/>
        <pt x="138" y="-4" on="0"/>
        <pt x="47" y="83" on="0"/>
        <pt x="47" y="153" on="1"/>
        <pt x="47" y="537" on="1"/>
        <pt x="47" y="607" on="0"/>
        <pt x="138" y="694" on="0"/>
        <pt x="209" y="694" on="1"/>
        <pt x="468" y="694" on="0"/>
        <pt x="568" y="681" on="1"/>
        <pt x="558" y="528" on="1"/>
        <pt x="305" y="528" on="1"/>
        <pt x="286" y="528" on="0"/>
        <pt x="264" y="508" on="0"/>
        <pt x="264" y="492" on="1"/>
        <pt x="264" y="425" on="1"/>
        <pt x="522" y="425" on="1"/>
        <pt x="522" y="281" on="1"/>
        <pt x="264" y="281" on="1"/>
        <pt x="264" y="198" on="1"/>
        <pt x="264" y="182" on="0"/>
        <pt x="286" y="162" on="0"/>
        <pt x="305" y="162" on="1"/>
      </contour>
    </TTGlyph>
    <TTGlyph name="Egrave" xMin="47" yMin="-4" xMax="568" yMax="956">
      <contour>
        <pt x="366" y="720" on="1"/>
        <pt x="111" y="823" on="1"/>
        <pt x="190" y="956" on="1"/>
        <pt x="423" y="806" on="1"/>
      </contour>
      <contour>
        <pt x="558" y="162" on="1"/>
        <pt x="568" y="9" on="1"/>
        <pt x="468" y="-4" on="0"/>
        <pt x="209" y="-4" on="1"/>
        <pt x="138" y="-4" on="0"/>
        <pt x="47" y="83" on="0"/>
        <pt x="47" y="153" on="1"/>
        <pt x="47" y="537" on="1"/>
        <pt x="47" y="607" on="0"/>
        <pt x="138" y="694" on="0"/>
        <pt x="209" y="694" on="1"/>
        <pt x="468" y="694" on="0"/>
        <pt x="568" y="681" on="1"/>
        <pt x="558" y="528" on="1"/>
        <pt x="305" y="528" on="1"/>
        <pt x="286" y="528" on="0"/>
        <pt x="264" y="508" on="0"/>
        <pt x="264" y="492" on="1"/>
        <pt x="264" y="425" on="1"/>
        <pt x="522" y="425" on="1"/>
        <pt x="522" y="281" on="1"/>
        <pt x="264" y="281" on="1"/>
        <pt x="264" y="198" on="1"/>
        <pt x="264" y="182" on="0"/>
        <pt x="286" y="162" on="0"/>
        <pt x="305" y="162" on="1"/>
      </contour>
    </TTGlyph>
    <TTGlyph name="Emacron" xMin="47" yMin="-4" xMax="568" yMax="895">
      <contour>
        <pt x="484" y="772" on="1"/>
        <pt x="164" y="772" on="1"/>
        <pt x="164" y="895" on="1"/>
        <pt x="484" y="895" on="1"/>
      </contour>
      <contour>
        <pt x="558" y="162" on="1"/>
        <pt x="568" y="9" on="1"/>
        <pt x="468" y="-4" on="0"/>
        <pt x="209" y="-4" on="1"/>
        <pt x="138" y="-4" on="0"/>
        <pt x="47" y="83" on="0"/>
        <pt x="47" y="153" on="1"/>
        <pt x="47" y="537" on="1"/>
        <pt x="47" y="607" on="0"/>
        <pt x="138" y="694" on="0"/>
        <pt x="209" y="694" on="1"/>
        <pt x="468" y="694" on="0"/>
        <pt x="568" y="681" on="1"/>
        <pt x="558" y="528" on="1"/>
        <pt x="305" y="528" on="1"/>
        <pt x="286" y="528" on="0"/>
        <pt x="264" y="508" on="0"/>
        <pt x="264" y="492" on="1"/>
        <pt x="264" y="425" on="1"/>
        <pt x="522" y="425" on="1"/>
        <pt x="522" y="281" on="1"/>
        <pt x="264" y="281" on="1"/>
        <pt x="264" y="198" on="1"/>
        <pt x="264" y="182" on="0"/>
        <pt x="286" y="162" on="0"/>
        <pt x="305" y="162" on="1"/>
      </contour>
    </TTGlyph>
    <TTGlyph name="Eng" xMin="52" yMin="-204" xMax="687" yMax="690">
      <contour>
        <pt x="687" y="690" on="1"/>
        <pt x="687" y="-33" on="1"/>
        <pt x="687" y="-113" on="0"/>
        <pt x="608" y="-204" on="0"/>
        <pt x="542" y="-204" on="1"/>
        <pt x="456" y="-204" on="0"/>
        <pt x="398" y="-178" on="1"/>
        <pt x="421" y="-42" on="1"/>
        <pt x="457" y="-42" on="1"/>
        <pt x="500" y="-42" on="0"/>
        <pt x="500" y="-15" on="1"/>
        <pt x="500" y="9" on="1"/>
        <pt x="495" y="9" on="1"/>
        <pt x="482" y="9" on="0"/>
        <pt x="450" y="63" on="1"/>
        <pt x="295" y="300" on="1"/>
        <pt x="276" y="333" on="0"/>
        <pt x="248" y="418" on="1"/>
        <pt x="242" y="418" on="1"/>
        <pt x="251" y="348" on="0"/>
        <pt x="251" y="302" on="1"/>
        <pt x="251" y="0" on="1"/>
        <pt x="52" y="0" on="1"/>
        <pt x="52" y="615" on="1"/>
        <pt x="52" y="690" on="0"/>
        <pt x="127" y="690" on="1"/>
        <pt x="209" y="690" on="1"/>
        <pt x="240" y="690" on="0"/>
        <pt x="275" y="661" on="0"/>
        <pt x="294" y="627" on="1"/>
        <pt x="438" y="401" on="1"/>
        <pt x="467" y="352" on="0"/>
        <pt x="490" y="283" on="1"/>
        <pt x="497" y="283" on="1"/>
        <pt x="487" y="351" on="0"/>
        <pt x="487" y="406" on="1"/>
        <pt x="487" y="690" on="1"/>
      </contour>
    </TTGlyph>
    <TTGlyph name="Eogonek" xMin="47" yMin="-204" xMax="581" yMax="694">
      <contour>
        <pt x="569" y="-111" on="1"/>
        <pt x="581" y="-183" on="1"/>
        <pt x="500" y="-213" on="0"/>
        <pt x="405" y="-195" on="0"/>
        <pt x="370" y="-134" on="0"/>
        <pt x="383" y="-96" on="1"/>
        <pt x="399" y="-46" on="0"/>
        <pt x="471" y="1" on="1"/>
        <pt x="387" y="-4" on="0"/>
        <pt x="209" y="-4" on="1"/>
        <pt x="138" y="-4" on="0"/>
        <pt x="47" y="83" on="0"/>
        <pt x="47" y="153" on="1"/>
        <pt x="47" y="537" on="1"/>
        <pt x="47" y="607" on="0"/>
        <pt x="138" y="694" on="0"/>
        <pt x="209" y="694" on="1"/>
        <pt x="468" y="694" on="0"/>
        <pt x="568" y="681" on="1"/>
        <pt x="558" y="528" on="1"/>
        <pt x="305" y="528" on="1"/>
        <pt x="286" y="528" on="0"/>
        <pt x="264" y="508" on="0"/>
        <pt x="264" y="492" on="1"/>
        <pt x="264" y="425" on="1"/>
        <pt x="522" y="425" on="1"/>
        <pt x="522" y="281" on="1"/>
        <pt x="264" y="281" on="1"/>
        <pt x="264" y="198" on="1"/>
        <pt x="264" y="182" on="0"/>
        <pt x="286" y="162" on="0"/>
        <pt x="305" y="162" on="1"/>
        <pt x="558" y="162" on="1"/>
        <pt x="568" y="9" on="1"/>
        <pt x="528" y="-63" on="0"/>
        <pt x="521" y="-78" on="1"/>
        <pt x="509" y="-103" on="0"/>
        <pt x="537" y="-116" on="0"/>
      </contour>
    </TTGlyph>
    <TTGlyph name="Eth" xMin="7" yMin="-10" xMax="669" yMax="700">
      <contour>
        <pt x="52" y="409" on="1"/>
        <pt x="52" y="690" on="1"/>
        <pt x="228" y="700" on="0"/>
        <pt x="347" y="700" on="1"/>
        <pt x="470" y="700" on="0"/>
        <pt x="605" y="639" on="0"/>
        <pt x="669" y="486" on="0"/>
        <pt x="669" y="204" on="0"/>
        <pt x="605" y="51" on="0"/>
        <pt x="470" y="-10" on="0"/>
        <pt x="347" y="-10" on="1"/>
        <pt x="197" y="-10" on="0"/>
        <pt x="52" y="0" on="1"/>
        <pt x="52" y="305" on="1"/>
        <pt x="7" y="305" on="1"/>
        <pt x="7" y="409" on="1"/>
      </contour>
      <contour>
        <pt x="269" y="148" on="1"/>
        <pt x="347" y="147" on="1"/>
        <pt x="403" y="147" on="0"/>
        <pt x="440" y="226" on="0"/>
        <pt x="440" y="464" on="0"/>
        <pt x="403" y="543" on="0"/>
        <pt x="347" y="543" on="1"/>
        <pt x="269" y="543" on="1"/>
        <pt x="269" y="409" on="1"/>
        <pt x="368" y="409" on="1"/>
        <pt x="368" y="305" on="1"/>
        <pt x="269" y="305" on="1"/>
      </contour>
    </TTGlyph>
    <TTGlyph name="Euro" xMin="27" yMin="-12" xMax="620" yMax="702">
      <contour>
        <pt x="512" y="361" on="1"/>
        <pt x="28" y="361" on="1"/>
        <pt x="28" y="471" on="1"/>
        <pt x="95" y="471" on="1"/>
        <pt x="116" y="590" on="0"/>
        <pt x="268" y="702" on="0"/>
        <pt x="416" y="702" on="1"/>
        <pt x="518" y="702" on="0"/>
        <pt x="601" y="675" on="1"/>
        <pt x="584" y="527" on="1"/>
        <pt x="451" y="540" on="0"/>
        <pt x="399" y="529" on="1"/>
        <pt x="347" y="517" on="0"/>
        <pt x="328" y="471" on="1"/>
        <pt x="523" y="471" on="1"/>
      </contour>
      <contour>
        <pt x="604" y="169" on="1"/>
        <pt x="620" y="21" on="1"/>
        <pt x="535" y="-12" on="0"/>
        <pt x="416" y="-12" on="1"/>
        <pt x="268" y="-12" on="0"/>
        <pt x="116" y="100" on="0"/>
        <pt x="95" y="221" on="1"/>
        <pt x="27" y="221" on="1"/>
        <pt x="27" y="331" on="1"/>
        <pt x="506" y="331" on="1"/>
        <pt x="495" y="221" on="1"/>
        <pt x="326" y="221" on="1"/>
        <pt x="344" y="170" on="0"/>
        <pt x="399" y="161" on="1"/>
        <pt x="431" y="156" on="0"/>
        <pt x="557" y="161" on="0"/>
      </contour>
    </TTGlyph>
    <TTGlyph name="F" xMin="50" yMin="0" xMax="561" yMax="694">
      <contour>
        <pt x="551" y="528" on="1"/>
        <pt x="310" y="528" on="1"/>
        <pt x="290" y="528" on="0"/>
        <pt x="267" y="508" on="0"/>
        <pt x="267" y="492" on="1"/>
        <pt x="267" y="411" on="1"/>
        <pt x="514" y="411" on="1"/>
        <pt x="514" y="267" on="1"/>
        <pt x="267" y="267" on="1"/>
        <pt x="267" y="0" on="1"/>
        <pt x="50" y="0" on="1"/>
        <pt x="50" y="537" on="1"/>
        <pt x="50" y="607" on="0"/>
        <pt x="142" y="694" on="0"/>
        <pt x="214" y="694" on="1"/>
        <pt x="466" y="694" on="0"/>
        <pt x="561" y="680" on="1"/>
      </contour>
    </TTGlyph>
    <TTGlyph name="G" xMin="32" yMin="-14" xMax="631" yMax="704">
      <contour>
        <pt x="631" y="397" on="1"/>
        <pt x="631" y="0" on="1"/>
        <pt x="471" y="0" on="1"/>
        <pt x="452" y="71" on="1"/>
        <pt x="424" y="36" on="0"/>
        <pt x="325" y="-14" on="0"/>
        <pt x="261" y="-14" on="1"/>
        <pt x="140" y="-14" on="0"/>
        <pt x="32" y="151" on="0"/>
        <pt x="32" y="345" on="1"/>
        <pt x="32" y="543" on="0"/>
        <pt x="178" y="704" on="0"/>
        <pt x="357" y="704" on="1"/>
        <pt x="501" y="704" on="0"/>
        <pt x="602" y="675" on="1"/>
        <pt x="586" y="519" on="1"/>
        <pt x="434" y="521" on="0"/>
        <pt x="358" y="521" on="1"/>
        <pt x="300" y="521" on="0"/>
        <pt x="260" y="451" on="0"/>
        <pt x="260" y="345" on="1"/>
        <pt x="260" y="241" on="0"/>
        <pt x="296" y="171" on="0"/>
        <pt x="348" y="171" on="1"/>
        <pt x="383" y="171" on="0"/>
        <pt x="423" y="177" on="1"/>
        <pt x="423" y="397" on="1"/>
      </contour>
    </TTGlyph>
    <TTGlyph name="Gbreve" xMin="32" yMin="-14" xMax="631" yMax="922">
      <contour>
        <pt x="433" y="922" on="1"/>
        <pt x="530" y="909" on="1"/>
        <pt x="542" y="840" on="0"/>
        <pt x="442" y="737" on="0"/>
        <pt x="262" y="737" on="0"/>
        <pt x="161" y="840" on="0"/>
        <pt x="173" y="909" on="1"/>
        <pt x="270" y="922" on="1"/>
        <pt x="270" y="890" on="0"/>
        <pt x="307" y="863" on="0"/>
        <pt x="352" y="863" on="1"/>
        <pt x="396" y="863" on="0"/>
        <pt x="433" y="890" on="0"/>
      </contour>
      <contour>
        <pt x="631" y="397" on="1"/>
        <pt x="631" y="0" on="1"/>
        <pt x="471" y="0" on="1"/>
        <pt x="452" y="71" on="1"/>
        <pt x="424" y="36" on="0"/>
        <pt x="325" y="-14" on="0"/>
        <pt x="261" y="-14" on="1"/>
        <pt x="140" y="-14" on="0"/>
        <pt x="32" y="151" on="0"/>
        <pt x="32" y="345" on="1"/>
        <pt x="32" y="543" on="0"/>
        <pt x="178" y="704" on="0"/>
        <pt x="357" y="704" on="1"/>
        <pt x="501" y="704" on="0"/>
        <pt x="602" y="675" on="1"/>
        <pt x="586" y="519" on="1"/>
        <pt x="434" y="521" on="0"/>
        <pt x="358" y="521" on="1"/>
        <pt x="300" y="521" on="0"/>
        <pt x="260" y="451" on="0"/>
        <pt x="260" y="345" on="1"/>
        <pt x="260" y="241" on="0"/>
        <pt x="296" y="171" on="0"/>
        <pt x="348" y="171" on="1"/>
        <pt x="383" y="171" on="0"/>
        <pt x="423" y="177" on="1"/>
        <pt x="423" y="397" on="1"/>
      </contour>
    </TTGlyph>
    <TTGlyph name="Gcommaaccent" xMin="32" yMin="-309" xMax="631" yMax="704">
      <contour>
        <pt x="631" y="397" on="1"/>
        <pt x="631" y="0" on="1"/>
        <pt x="471" y="0" on="1"/>
        <pt x="452" y="71" on="1"/>
        <pt x="424" y="36" on="0"/>
        <pt x="325" y="-14" on="0"/>
        <pt x="261" y="-14" on="1"/>
        <pt x="140" y="-14" on="0"/>
        <pt x="32" y="151" on="0"/>
        <pt x="32" y="345" on="1"/>
        <pt x="32" y="543" on="0"/>
        <pt x="178" y="704" on="0"/>
        <pt x="357" y="704" on="1"/>
        <pt x="501" y="704" on="0"/>
        <pt x="602" y="675" on="1"/>
        <pt x="586" y="519" on="1"/>
        <pt x="434" y="521" on="0"/>
        <pt x="358" y="521" on="1"/>
        <pt x="300" y="521" on="0"/>
        <pt x="260" y="451" on="0"/>
        <pt x="260" y="345" on="1"/>
        <pt x="260" y="241" on="0"/>
        <pt x="296" y="171" on="0"/>
        <pt x="348" y="171" on="1"/>
        <pt x="383" y="171" on="0"/>
        <pt x="423" y="177" on="1"/>
        <pt x="423" y="397" on="1"/>
      </contour>
      <contour>
        <pt x="331" y="-48" on="1"/>
        <pt x="369" y="-48" on="1"/>
        <pt x="405" y="-48" on="0"/>
        <pt x="433" y="-71" on="0"/>
        <pt x="434" y="-102" on="1"/>
        <pt x="434" y="-150" on="1"/>
        <pt x="434" y="-203" on="0"/>
        <pt x="405" y="-272" on="0"/>
        <pt x="373" y="-309" on="1"/>
        <pt x="302" y="-290" on="1"/>
        <pt x="318" y="-251" on="0"/>
        <pt x="320" y="-187" on="1"/>
        <pt x="266" y="-187" on="0"/>
        <pt x="264" y="-139" on="1"/>
        <pt x="267" y="-102" on="1"/>
        <pt x="268" y="-71" on="0"/>
        <pt x="295" y="-48" on="0"/>
      </contour>
    </TTGlyph>
    <TTGlyph name="Gdotaccent" xMin="32" yMin="-14" xMax="631" yMax="913">
      <contour>
        <pt x="384" y="752" on="1"/>
        <pt x="321" y="752" on="1"/>
        <pt x="262" y="752" on="0"/>
        <pt x="262" y="809" on="1"/>
        <pt x="262" y="856" on="1"/>
        <pt x="262" y="913" on="0"/>
        <pt x="321" y="913" on="1"/>
        <pt x="384" y="913" on="1"/>
        <pt x="443" y="913" on="0"/>
        <pt x="443" y="856" on="1"/>
        <pt x="443" y="809" on="1"/>
        <pt x="443" y="752" on="0"/>
      </contour>
      <contour>
        <pt x="631" y="397" on="1"/>
        <pt x="631" y="0" on="1"/>
        <pt x="471" y="0" on="1"/>
        <pt x="452" y="71" on="1"/>
        <pt x="424" y="36" on="0"/>
        <pt x="325" y="-14" on="0"/>
        <pt x="261" y="-14" on="1"/>
        <pt x="140" y="-14" on="0"/>
        <pt x="32" y="151" on="0"/>
        <pt x="32" y="345" on="1"/>
        <pt x="32" y="543" on="0"/>
        <pt x="178" y="704" on="0"/>
        <pt x="357" y="704" on="1"/>
        <pt x="501" y="704" on="0"/>
        <pt x="602" y="675" on="1"/>
        <pt x="586" y="519" on="1"/>
        <pt x="434" y="521" on="0"/>
        <pt x="358" y="521" on="1"/>
        <pt x="300" y="521" on="0"/>
        <pt x="260" y="451" on="0"/>
        <pt x="260" y="345" on="1"/>
        <pt x="260" y="241" on="0"/>
        <pt x="296" y="171" on="0"/>
        <pt x="348" y="171" on="1"/>
        <pt x="383" y="171" on="0"/>
        <pt x="423" y="177" on="1"/>
        <pt x="423" y="397" on="1"/>
      </contour>
    </TTGlyph>
    <TTGlyph name="H" xMin="53" yMin="0" xMax="661" yMax="690">
      <contour>
        <pt x="661" y="690" on="1"/>
        <pt x="661" y="0" on="1"/>
        <pt x="444" y="0" on="1"/>
        <pt x="444" y="290" on="1"/>
        <pt x="270" y="290" on="1"/>
        <pt x="270" y="0" on="1"/>
        <pt x="53" y="0" on="1"/>
        <pt x="53" y="690" on="1"/>
        <pt x="270" y="690" on="1"/>
        <pt x="270" y="442" on="1"/>
        <pt x="444" y="442" on="1"/>
        <pt x="444" y="690" on="1"/>
      </contour>
    </TTGlyph>
    <TTGlyph name="Hbar" xMin="4" yMin="0" xMax="712" yMax="690">
      <contour>
        <pt x="712" y="507" on="1"/>
        <pt x="661" y="507" on="1"/>
        <pt x="661" y="0" on="1"/>
        <pt x="444" y="0" on="1"/>
        <pt x="444" y="290" on="1"/>
        <pt x="270" y="290" on="1"/>
        <pt x="270" y="0" on="1"/>
        <pt x="53" y="0" on="1"/>
        <pt x="53" y="507" on="1"/>
        <pt x="4" y="507" on="1"/>
        <pt x="4" y="601" on="1"/>
        <pt x="53" y="601" on="1"/>
        <pt x="53" y="690" on="1"/>
        <pt x="270" y="690" on="1"/>
        <pt x="270" y="601" on="1"/>
        <pt x="444" y="601" on="1"/>
        <pt x="444" y="690" on="1"/>
        <pt x="661" y="690" on="1"/>
        <pt x="661" y="601" on="1"/>
        <pt x="712" y="601" on="1"/>
      </contour>
      <contour>
        <pt x="444" y="507" on="1"/>
        <pt x="270" y="507" on="1"/>
        <pt x="270" y="442" on="1"/>
        <pt x="444" y="442" on="1"/>
      </contour>
    </TTGlyph>
    <TTGlyph name="I" xMin="53" yMin="0" xMax="268" yMax="690">
      <contour>
        <pt x="268" y="0" on="1"/>
        <pt x="53" y="0" on="1"/>
        <pt x="53" y="690" on="1"/>
        <pt x="268" y="690" on="1"/>
      </contour>
    </TTGlyph>
    <TTGlyph name="IJ" xMin="53" yMin="-14" xMax="675" yMax="690">
      <contour>
        <pt x="268" y="0" on="1"/>
        <pt x="53" y="0" on="1"/>
        <pt x="53" y="690" on="1"/>
        <pt x="268" y="690" on="1"/>
      </contour>
      <contour>
        <pt x="675" y="690" on="1"/>
        <pt x="675" y="127" on="1"/>
        <pt x="675" y="60" on="0"/>
        <pt x="577" y="-14" on="0"/>
        <pt x="492" y="-14" on="1"/>
        <pt x="453" y="-14" on="0"/>
        <pt x="354" y="0" on="0"/>
        <pt x="331" y="12" on="1"/>
        <pt x="354" y="148" on="1"/>
        <pt x="401" y="148" on="1"/>
        <pt x="460" y="148" on="0"/>
        <pt x="460" y="183" on="1"/>
        <pt x="460" y="690" on="1"/>
      </contour>
    </TTGlyph>
    <TTGlyph name="Iacute" xMin="53" yMin="0" xMax="371" yMax="956">
      <contour>
        <pt x="371" y="823" on="1"/>
        <pt x="116" y="720" on="1"/>
        <pt x="59" y="806" on="1"/>
        <pt x="292" y="956" on="1"/>
      </contour>
      <contour>
        <pt x="268" y="0" on="1"/>
        <pt x="53" y="0" on="1"/>
        <pt x="53" y="690" on="1"/>
        <pt x="268" y="690" on="1"/>
      </contour>
    </TTGlyph>
    <TTGlyph name="Icircumflex" xMin="-54" yMin="0" xMax="373" yMax="920">
      <contour>
        <pt x="373" y="779" on="1"/>
        <pt x="325" y="710" on="1"/>
        <pt x="166" y="803" on="1"/>
        <pt x="158" y="803" on="1"/>
        <pt x="-4" y="710" on="1"/>
        <pt x="-54" y="787" on="1"/>
        <pt x="86" y="920" on="1"/>
        <pt x="238" y="920" on="1"/>
      </contour>
      <contour>
        <pt x="268" y="0" on="1"/>
        <pt x="53" y="0" on="1"/>
        <pt x="53" y="690" on="1"/>
        <pt x="268" y="690" on="1"/>
      </contour>
    </TTGlyph>
    <TTGlyph name="Idieresis" xMin="-9" yMin="0" xMax="327" yMax="904">
      <contour>
        <pt x="30" y="904" on="1"/>
        <pt x="99" y="904" on="1"/>
        <pt x="138" y="904" on="0"/>
        <pt x="138" y="865" on="1"/>
        <pt x="138" y="802" on="1"/>
        <pt x="138" y="763" on="0"/>
        <pt x="99" y="763" on="1"/>
        <pt x="30" y="763" on="1"/>
        <pt x="-9" y="763" on="0"/>
        <pt x="-9" y="802" on="1"/>
        <pt x="-9" y="865" on="1"/>
        <pt x="-9" y="904" on="0"/>
      </contour>
      <contour>
        <pt x="219" y="904" on="1"/>
        <pt x="288" y="904" on="1"/>
        <pt x="327" y="904" on="0"/>
        <pt x="327" y="865" on="1"/>
        <pt x="327" y="802" on="1"/>
        <pt x="327" y="763" on="0"/>
        <pt x="288" y="763" on="1"/>
        <pt x="219" y="763" on="1"/>
        <pt x="180" y="763" on="0"/>
        <pt x="180" y="802" on="1"/>
        <pt x="180" y="865" on="1"/>
        <pt x="180" y="904" on="0"/>
      </contour>
      <contour>
        <pt x="268" y="0" on="1"/>
        <pt x="53" y="0" on="1"/>
        <pt x="53" y="690" on="1"/>
        <pt x="268" y="690" on="1"/>
      </contour>
    </TTGlyph>
    <TTGlyph name="Idotaccent" xMin="53" yMin="0" xMax="268" yMax="913">
      <contour>
        <pt x="130" y="913" on="1"/>
        <pt x="193" y="913" on="1"/>
        <pt x="252" y="913" on="0"/>
        <pt x="252" y="856" on="1"/>
        <pt x="252" y="809" on="1"/>
        <pt x="252" y="752" on="0"/>
        <pt x="193" y="752" on="1"/>
        <pt x="130" y="752" on="1"/>
        <pt x="71" y="752" on="0"/>
        <pt x="71" y="809" on="1"/>
        <pt x="71" y="856" on="1"/>
        <pt x="71" y="913" on="0"/>
      </contour>
      <contour>
        <pt x="268" y="0" on="1"/>
        <pt x="53" y="0" on="1"/>
        <pt x="53" y="690" on="1"/>
        <pt x="268" y="690" on="1"/>
      </contour>
    </TTGlyph>
    <TTGlyph name="Igrave" xMin="-51" yMin="0" xMax="268" yMax="956">
      <contour>
        <pt x="261" y="806" on="1"/>
        <pt x="204" y="720" on="1"/>
        <pt x="-51" y="823" on="1"/>
        <pt x="28" y="956" on="1"/>
      </contour>
      <contour>
        <pt x="268" y="0" on="1"/>
        <pt x="53" y="0" on="1"/>
        <pt x="53" y="690" on="1"/>
        <pt x="268" y="690" on="1"/>
      </contour>
    </TTGlyph>
    <TTGlyph name="Imacron" xMin="2" yMin="0" xMax="322" yMax="895">
      <contour>
        <pt x="322" y="772" on="1"/>
        <pt x="2" y="772" on="1"/>
        <pt x="2" y="895" on="1"/>
        <pt x="322" y="895" on="1"/>
      </contour>
      <contour>
        <pt x="268" y="0" on="1"/>
        <pt x="53" y="0" on="1"/>
        <pt x="53" y="690" on="1"/>
        <pt x="268" y="690" on="1"/>
      </contour>
    </TTGlyph>
    <TTGlyph name="Iogonek" xMin="53" yMin="-213" xMax="268" yMax="690">
      <contour>
        <pt x="268" y="0" on="1"/>
        <pt x="240" y="0" on="1"/>
        <pt x="200" y="-72" on="0"/>
        <pt x="193" y="-87" on="1"/>
        <pt x="181" y="-112" on="0"/>
        <pt x="209" y="-125" on="0"/>
        <pt x="241" y="-120" on="1"/>
        <pt x="253" y="-192" on="1"/>
        <pt x="172" y="-222" on="0"/>
        <pt x="77" y="-204" on="0"/>
        <pt x="42" y="-143" on="0"/>
        <pt x="55" y="-105" on="1"/>
        <pt x="73" y="-49" on="0"/>
        <pt x="157" y="0" on="1"/>
        <pt x="53" y="0" on="1"/>
        <pt x="53" y="690" on="1"/>
        <pt x="268" y="690" on="1"/>
      </contour>
    </TTGlyph>
    <TTGlyph name="J" xMin="10" yMin="-14" xMax="354" yMax="690">
      <contour>
        <pt x="354" y="690" on="1"/>
        <pt x="354" y="127" on="1"/>
        <pt x="354" y="60" on="0"/>
        <pt x="256" y="-14" on="0"/>
        <pt x="171" y="-14" on="1"/>
        <pt x="132" y="-14" on="0"/>
        <pt x="33" y="0" on="0"/>
        <pt x="10" y="12" on="1"/>
        <pt x="33" y="148" on="1"/>
        <pt x="80" y="148" on="1"/>
        <pt x="139" y="148" on="0"/>
        <pt x="139" y="183" on="1"/>
        <pt x="139" y="690" on="1"/>
      </contour>
    </TTGlyph>
    <TTGlyph name="K" xMin="53" yMin="0" xMax="685" yMax="690">
      <contour>
        <pt x="298" y="288" on="1"/>
        <pt x="262" y="288" on="1"/>
        <pt x="270" y="253" on="0"/>
        <pt x="270" y="225" on="1"/>
        <pt x="270" y="0" on="1"/>
        <pt x="53" y="0" on="1"/>
        <pt x="53" y="690" on="1"/>
        <pt x="270" y="690" on="1"/>
        <pt x="270" y="516" on="1"/>
        <pt x="270" y="469" on="0"/>
        <pt x="260" y="428" on="1"/>
        <pt x="298" y="428" on="1"/>
        <pt x="442" y="690" on="1"/>
        <pt x="675" y="690" on="1"/>
        <pt x="516" y="420" on="1"/>
        <pt x="491" y="374" on="0"/>
        <pt x="455" y="359" on="1"/>
        <pt x="455" y="355" on="1"/>
        <pt x="470" y="349" on="0"/>
        <pt x="513" y="308" on="0"/>
        <pt x="524" y="287" on="1"/>
        <pt x="685" y="0" on="1"/>
        <pt x="444" y="0" on="1"/>
      </contour>
    </TTGlyph>
    <TTGlyph name="Kcommaaccent" xMin="53" yMin="-309" xMax="685" yMax="690">
      <contour>
        <pt x="685" y="0" on="1"/>
        <pt x="444" y="0" on="1"/>
        <pt x="298" y="288" on="1"/>
        <pt x="262" y="288" on="1"/>
        <pt x="270" y="253" on="0"/>
        <pt x="270" y="225" on="1"/>
        <pt x="270" y="0" on="1"/>
        <pt x="53" y="0" on="1"/>
        <pt x="53" y="690" on="1"/>
        <pt x="270" y="690" on="1"/>
        <pt x="270" y="516" on="1"/>
        <pt x="270" y="469" on="0"/>
        <pt x="260" y="428" on="1"/>
        <pt x="298" y="428" on="1"/>
        <pt x="442" y="690" on="1"/>
        <pt x="675" y="690" on="1"/>
        <pt x="516" y="420" on="1"/>
        <pt x="491" y="374" on="0"/>
        <pt x="455" y="359" on="1"/>
        <pt x="455" y="355" on="1"/>
        <pt x="470" y="349" on="0"/>
        <pt x="513" y="308" on="0"/>
        <pt x="524" y="287" on="1"/>
      </contour>
      <contour>
        <pt x="329" y="-48" on="1"/>
        <pt x="367" y="-48" on="1"/>
        <pt x="403" y="-48" on="0"/>
        <pt x="431" y="-71" on="0"/>
        <pt x="432" y="-102" on="1"/>
        <pt x="432" y="-150" on="1"/>
        <pt x="432" y="-203" on="0"/>
        <pt x="403" y="-272" on="0"/>
        <pt x="371" y="-309" on="1"/>
        <pt x="300" y="-290" on="1"/>
        <pt x="316" y="-251" on="0"/>
        <pt x="318" y="-187" on="1"/>
        <pt x="264" y="-187" on="0"/>
        <pt x="262" y="-139" on="1"/>
        <pt x="265" y="-102" on="1"/>
        <pt x="266" y="-71" on="0"/>
        <pt x="293" y="-48" on="0"/>
      </contour>
    </TTGlyph>
    <TTGlyph name="L" xMin="50" yMin="-4" xMax="551" yMax="690">
      <contour>
        <pt x="267" y="690" on="1"/>
        <pt x="267" y="208" on="1"/>
        <pt x="267" y="192" on="0"/>
        <pt x="290" y="172" on="0"/>
        <pt x="309" y="172" on="1"/>
        <pt x="541" y="172" on="1"/>
        <pt x="551" y="10" on="1"/>
        <pt x="448" y="-4" on="0"/>
        <pt x="214" y="-4" on="1"/>
        <pt x="140" y="-4" on="0"/>
        <pt x="50" y="83" on="0"/>
        <pt x="50" y="153" on="1"/>
        <pt x="50" y="690" on="1"/>
      </contour>
    </TTGlyph>
    <TTGlyph name="Lacute" xMin="50" yMin="-4" xMax="551" yMax="956">
      <contour>
        <pt x="374" y="823" on="1"/>
        <pt x="119" y="720" on="1"/>
        <pt x="62" y="806" on="1"/>
        <pt x="295" y="956" on="1"/>
      </contour>
      <contour>
        <pt x="267" y="690" on="1"/>
        <pt x="267" y="208" on="1"/>
        <pt x="267" y="192" on="0"/>
        <pt x="290" y="172" on="0"/>
        <pt x="309" y="172" on="1"/>
        <pt x="541" y="172" on="1"/>
        <pt x="551" y="10" on="1"/>
        <pt x="448" y="-4" on="0"/>
        <pt x="214" y="-4" on="1"/>
        <pt x="140" y="-4" on="0"/>
        <pt x="50" y="83" on="0"/>
        <pt x="50" y="153" on="1"/>
        <pt x="50" y="690" on="1"/>
      </contour>
    </TTGlyph>
    <TTGlyph name="Lcaron" xMin="50" yMin="-4" xMax="551" yMax="690">
      <contour>
        <pt x="267" y="690" on="1"/>
        <pt x="267" y="208" on="1"/>
        <pt x="267" y="192" on="0"/>
        <pt x="290" y="172" on="0"/>
        <pt x="309" y="172" on="1"/>
        <pt x="541" y="172" on="1"/>
        <pt x="551" y="10" on="1"/>
        <pt x="448" y="-4" on="0"/>
        <pt x="214" y="-4" on="1"/>
        <pt x="140" y="-4" on="0"/>
        <pt x="50" y="83" on="0"/>
        <pt x="50" y="153" on="1"/>
        <pt x="50" y="690" on="1"/>
      </contour>
      <contour>
        <pt x="390" y="689" on="1"/>
        <pt x="428" y="689" on="1"/>
        <pt x="464" y="689" on="0"/>
        <pt x="492" y="666" on="0"/>
        <pt x="493" y="635" on="1"/>
        <pt x="493" y="587" on="1"/>
        <pt x="493" y="534" on="0"/>
        <pt x="464" y="465" on="0"/>
        <pt x="432" y="428" on="1"/>
        <pt x="361" y="447" on="1"/>
        <pt x="377" y="486" on="0"/>
        <pt x="379" y="550" on="1"/>
        <pt x="325" y="550" on="0"/>
        <pt x="323" y="598" on="1"/>
        <pt x="326" y="635" on="1"/>
        <pt x="327" y="666" on="0"/>
        <pt x="354" y="689" on="0"/>
      </contour>
    </TTGlyph>
    <TTGlyph name="Lcommaaccent" xMin="50" yMin="-309" xMax="551" yMax="690">
      <contour>
        <pt x="267" y="690" on="1"/>
        <pt x="267" y="208" on="1"/>
        <pt x="267" y="192" on="0"/>
        <pt x="290" y="172" on="0"/>
        <pt x="309" y="172" on="1"/>
        <pt x="541" y="172" on="1"/>
        <pt x="551" y="10" on="1"/>
        <pt x="448" y="-4" on="0"/>
        <pt x="214" y="-4" on="1"/>
        <pt x="140" y="-4" on="0"/>
        <pt x="50" y="83" on="0"/>
        <pt x="50" y="153" on="1"/>
        <pt x="50" y="690" on="1"/>
      </contour>
      <contour>
        <pt x="275" y="-48" on="1"/>
        <pt x="313" y="-48" on="1"/>
        <pt x="349" y="-48" on="0"/>
        <pt x="377" y="-71" on="0"/>
        <pt x="378" y="-102" on="1"/>
        <pt x="378" y="-150" on="1"/>
        <pt x="378" y="-203" on="0"/>
        <pt x="349" y="-272" on="0"/>
        <pt x="317" y="-309" on="1"/>
        <pt x="246" y="-290" on="1"/>
        <pt x="262" y="-251" on="0"/>
        <pt x="264" y="-187" on="1"/>
        <pt x="210" y="-187" on="0"/>
        <pt x="208" y="-139" on="1"/>
        <pt x="211" y="-102" on="1"/>
        <pt x="212" y="-71" on="0"/>
        <pt x="239" y="-48" on="0"/>
      </contour>
    </TTGlyph>
    <TTGlyph name="Ldot" xMin="50" yMin="-4" xMax="551" yMax="690">
      <contour>
        <pt x="267" y="690" on="1"/>
        <pt x="267" y="208" on="1"/>
        <pt x="267" y="192" on="0"/>
        <pt x="290" y="172" on="0"/>
        <pt x="309" y="172" on="1"/>
        <pt x="541" y="172" on="1"/>
        <pt x="551" y="10" on="1"/>
        <pt x="448" y="-4" on="0"/>
        <pt x="214" y="-4" on="1"/>
        <pt x="140" y="-4" on="0"/>
        <pt x="50" y="83" on="0"/>
        <pt x="50" y="153" on="1"/>
        <pt x="50" y="690" on="1"/>
      </contour>
      <contour>
        <pt x="467" y="343" on="1"/>
        <pt x="404" y="343" on="1"/>
        <pt x="345" y="343" on="0"/>
        <pt x="345" y="400" on="1"/>
        <pt x="345" y="447" on="1"/>
        <pt x="345" y="504" on="0"/>
        <pt x="404" y="504" on="1"/>
        <pt x="467" y="504" on="1"/>
        <pt x="526" y="504" on="0"/>
        <pt x="526" y="447" on="1"/>
        <pt x="526" y="400" on="1"/>
        <pt x="526" y="343" on="0"/>
      </contour>
    </TTGlyph>
    <TTGlyph name="Lslash" xMin="7" yMin="-4" xMax="551" yMax="690">
      <contour>
        <pt x="541" y="172" on="1"/>
        <pt x="551" y="10" on="1"/>
        <pt x="448" y="-4" on="0"/>
        <pt x="214" y="-4" on="1"/>
        <pt x="140" y="-4" on="0"/>
        <pt x="50" y="83" on="0"/>
        <pt x="50" y="153" on="1"/>
        <pt x="50" y="286" on="1"/>
        <pt x="7" y="269" on="1"/>
        <pt x="7" y="373" on="1"/>
        <pt x="50" y="390" on="1"/>
        <pt x="50" y="690" on="1"/>
        <pt x="267" y="690" on="1"/>
        <pt x="267" y="473" on="1"/>
        <pt x="371" y="513" on="1"/>
        <pt x="371" y="409" on="1"/>
        <pt x="267" y="369" on="1"/>
        <pt x="267" y="208" on="1"/>
        <pt x="267" y="192" on="0"/>
        <pt x="290" y="172" on="0"/>
        <pt x="309" y="172" on="1"/>
      </contour>
    </TTGlyph>
    <TTGlyph name="M" xMin="40" yMin="0" xMax="912" yMax="690">
      <contour>
        <pt x="621" y="690" on="1"/>
        <pt x="812" y="690" on="1"/>
        <pt x="885" y="690" on="0"/>
        <pt x="888" y="615" on="1"/>
        <pt x="912" y="0" on="1"/>
        <pt x="717" y="0" on="1"/>
        <pt x="696" y="528" on="1"/>
        <pt x="681" y="528" on="1"/>
        <pt x="613" y="176" on="1"/>
        <pt x="602" y="110" on="0"/>
        <pt x="531" y="110" on="1"/>
        <pt x="419" y="110" on="1"/>
        <pt x="348" y="110" on="0"/>
        <pt x="336" y="176" on="1"/>
        <pt x="267" y="528" on="1"/>
        <pt x="252" y="528" on="1"/>
        <pt x="235" y="0" on="1"/>
        <pt x="40" y="0" on="1"/>
        <pt x="64" y="615" on="1"/>
        <pt x="67" y="690" on="0"/>
        <pt x="140" y="690" on="1"/>
        <pt x="327" y="690" on="1"/>
        <pt x="397" y="690" on="0"/>
        <pt x="409" y="623" on="1"/>
        <pt x="459" y="349" on="1"/>
        <pt x="464" y="317" on="0"/>
        <pt x="470" y="246" on="1"/>
        <pt x="479" y="246" on="1"/>
        <pt x="479" y="249" on="0"/>
        <pt x="488" y="329" on="0"/>
        <pt x="491" y="349" on="1"/>
        <pt x="538" y="623" on="1"/>
        <pt x="550" y="690" on="0"/>
      </contour>
    </TTGlyph>
    <TTGlyph name="N" xMin="52" yMin="0" xMax="687" yMax="690">
      <contour>
        <pt x="687" y="690" on="1"/>
        <pt x="687" y="75" on="1"/>
        <pt x="687" y="0" on="0"/>
        <pt x="612" y="0" on="1"/>
        <pt x="529" y="0" on="1"/>
        <pt x="498" y="0" on="0"/>
        <pt x="465" y="28" on="0"/>
        <pt x="445" y="63" on="1"/>
        <pt x="295" y="300" on="1"/>
        <pt x="270" y="345" on="0"/>
        <pt x="249" y="418" on="1"/>
        <pt x="242" y="418" on="1"/>
        <pt x="252" y="348" on="0"/>
        <pt x="252" y="292" on="1"/>
        <pt x="252" y="0" on="1"/>
        <pt x="52" y="0" on="1"/>
        <pt x="52" y="615" on="1"/>
        <pt x="52" y="690" on="0"/>
        <pt x="127" y="690" on="1"/>
        <pt x="210" y="690" on="1"/>
        <pt x="241" y="690" on="0"/>
        <pt x="273" y="662" on="0"/>
        <pt x="294" y="627" on="1"/>
        <pt x="438" y="401" on="1"/>
        <pt x="465" y="353" on="0"/>
        <pt x="491" y="283" on="1"/>
        <pt x="498" y="283" on="1"/>
        <pt x="489" y="357" on="0"/>
        <pt x="488" y="408" on="1"/>
        <pt x="488" y="690" on="1"/>
      </contour>
    </TTGlyph>
    <TTGlyph name="Nacute" xMin="52" yMin="0" xMax="687" yMax="956">
      <contour>
        <pt x="587" y="823" on="1"/>
        <pt x="332" y="720" on="1"/>
        <pt x="275" y="806" on="1"/>
        <pt x="508" y="956" on="1"/>
      </contour>
      <contour>
        <pt x="687" y="690" on="1"/>
        <pt x="687" y="75" on="1"/>
        <pt x="687" y="0" on="0"/>
        <pt x="612" y="0" on="1"/>
        <pt x="529" y="0" on="1"/>
        <pt x="498" y="0" on="0"/>
        <pt x="465" y="28" on="0"/>
        <pt x="445" y="63" on="1"/>
        <pt x="295" y="300" on="1"/>
        <pt x="270" y="345" on="0"/>
        <pt x="249" y="418" on="1"/>
        <pt x="242" y="418" on="1"/>
        <pt x="252" y="348" on="0"/>
        <pt x="252" y="292" on="1"/>
        <pt x="252" y="0" on="1"/>
        <pt x="52" y="0" on="1"/>
        <pt x="52" y="615" on="1"/>
        <pt x="52" y="690" on="0"/>
        <pt x="127" y="690" on="1"/>
        <pt x="210" y="690" on="1"/>
        <pt x="241" y="690" on="0"/>
        <pt x="273" y="662" on="0"/>
        <pt x="294" y="627" on="1"/>
        <pt x="438" y="401" on="1"/>
        <pt x="465" y="353" on="0"/>
        <pt x="491" y="283" on="1"/>
        <pt x="498" y="283" on="1"/>
        <pt x="489" y="357" on="0"/>
        <pt x="488" y="408" on="1"/>
        <pt x="488" y="690" on="1"/>
      </contour>
    </TTGlyph>
    <TTGlyph name="Ncaron" xMin="52" yMin="0" xMax="687" yMax="944">
      <contour>
        <pt x="581" y="867" on="1"/>
        <pt x="418" y="736" on="1"/>
        <pt x="336" y="736" on="1"/>
        <pt x="172" y="867" on="1"/>
        <pt x="222" y="944" on="1"/>
        <pt x="373" y="868" on="1"/>
        <pt x="381" y="868" on="1"/>
        <pt x="533" y="944" on="1"/>
      </contour>
      <contour>
        <pt x="687" y="690" on="1"/>
        <pt x="687" y="75" on="1"/>
        <pt x="687" y="0" on="0"/>
        <pt x="612" y="0" on="1"/>
        <pt x="529" y="0" on="1"/>
        <pt x="498" y="0" on="0"/>
        <pt x="465" y="28" on="0"/>
        <pt x="445" y="63" on="1"/>
        <pt x="295" y="300" on="1"/>
        <pt x="270" y="345" on="0"/>
        <pt x="249" y="418" on="1"/>
        <pt x="242" y="418" on="1"/>
        <pt x="252" y="348" on="0"/>
        <pt x="252" y="292" on="1"/>
        <pt x="252" y="0" on="1"/>
        <pt x="52" y="0" on="1"/>
        <pt x="52" y="615" on="1"/>
        <pt x="52" y="690" on="0"/>
        <pt x="127" y="690" on="1"/>
        <pt x="210" y="690" on="1"/>
        <pt x="241" y="690" on="0"/>
        <pt x="273" y="662" on="0"/>
        <pt x="294" y="627" on="1"/>
        <pt x="438" y="401" on="1"/>
        <pt x="465" y="353" on="0"/>
        <pt x="491" y="283" on="1"/>
        <pt x="498" y="283" on="1"/>
        <pt x="489" y="357" on="0"/>
        <pt x="488" y="408" on="1"/>
        <pt x="488" y="690" on="1"/>
      </contour>
    </TTGlyph>
    <TTGlyph name="Ncommaaccent" xMin="52" yMin="-309" xMax="687" yMax="690">
      <contour>
        <pt x="687" y="690" on="1"/>
        <pt x="687" y="75" on="1"/>
        <pt x="687" y="0" on="0"/>
        <pt x="612" y="0" on="1"/>
        <pt x="529" y="0" on="1"/>
        <pt x="498" y="0" on="0"/>
        <pt x="465" y="28" on="0"/>
        <pt x="445" y="63" on="1"/>
        <pt x="295" y="300" on="1"/>
        <pt x="270" y="345" on="0"/>
        <pt x="249" y="418" on="1"/>
        <pt x="242" y="418" on="1"/>
        <pt x="252" y="348" on="0"/>
        <pt x="252" y="292" on="1"/>
        <pt x="252" y="0" on="1"/>
        <pt x="52" y="0" on="1"/>
        <pt x="52" y="615" on="1"/>
        <pt x="52" y="690" on="0"/>
        <pt x="127" y="690" on="1"/>
        <pt x="210" y="690" on="1"/>
        <pt x="241" y="690" on="0"/>
        <pt x="273" y="662" on="0"/>
        <pt x="294" y="627" on="1"/>
        <pt x="438" y="401" on="1"/>
        <pt x="465" y="353" on="0"/>
        <pt x="491" y="283" on="1"/>
        <pt x="498" y="283" on="1"/>
        <pt x="489" y="357" on="0"/>
        <pt x="488" y="408" on="1"/>
        <pt x="488" y="690" on="1"/>
      </contour>
      <contour>
        <pt x="360" y="-48" on="1"/>
        <pt x="398" y="-48" on="1"/>
        <pt x="434" y="-48" on="0"/>
        <pt x="462" y="-71" on="0"/>
        <pt x="463" y="-102" on="1"/>
        <pt x="463" y="-150" on="1"/>
        <pt x="463" y="-203" on="0"/>
        <pt x="434" y="-272" on="0"/>
        <pt x="402" y="-309" on="1"/>
        <pt x="331" y="-290" on="1"/>
        <pt x="347" y="-251" on="0"/>
        <pt x="349" y="-187" on="1"/>
        <pt x="295" y="-187" on="0"/>
        <pt x="293" y="-139" on="1"/>
        <pt x="296" y="-102" on="1"/>
        <pt x="297" y="-71" on="0"/>
        <pt x="324" y="-48" on="0"/>
      </contour>
    </TTGlyph>
    <TTGlyph name="Ntilde" xMin="52" yMin="0" xMax="687" yMax="920">
      <contour>
        <pt x="273" y="751" on="1"/>
        <pt x="186" y="751" on="1"/>
        <pt x="171" y="834" on="0"/>
        <pt x="226" y="923" on="0"/>
        <pt x="271" y="920" on="1"/>
        <pt x="311" y="917" on="0"/>
        <pt x="427" y="880" on="0"/>
        <pt x="440" y="877" on="1"/>
        <pt x="461" y="873" on="0"/>
        <pt x="469" y="888" on="0"/>
        <pt x="469" y="915" on="1"/>
        <pt x="556" y="915" on="1"/>
        <pt x="571" y="834" on="0"/>
        <pt x="520" y="743" on="0"/>
        <pt x="471" y="746" on="1"/>
        <pt x="432" y="749" on="0"/>
        <pt x="314" y="787" on="0"/>
        <pt x="301" y="789" on="1"/>
        <pt x="281" y="792" on="0"/>
        <pt x="273" y="780" on="0"/>
        <pt x="273" y="757" on="1"/>
        <pt x="273" y="753" on="0"/>
      </contour>
      <contour>
        <pt x="687" y="690" on="1"/>
        <pt x="687" y="75" on="1"/>
        <pt x="687" y="0" on="0"/>
        <pt x="612" y="0" on="1"/>
        <pt x="529" y="0" on="1"/>
        <pt x="498" y="0" on="0"/>
        <pt x="465" y="28" on="0"/>
        <pt x="445" y="63" on="1"/>
        <pt x="295" y="300" on="1"/>
        <pt x="270" y="345" on="0"/>
        <pt x="249" y="418" on="1"/>
        <pt x="242" y="418" on="1"/>
        <pt x="252" y="348" on="0"/>
        <pt x="252" y="292" on="1"/>
        <pt x="252" y="0" on="1"/>
        <pt x="52" y="0" on="1"/>
        <pt x="52" y="615" on="1"/>
        <pt x="52" y="690" on="0"/>
        <pt x="127" y="690" on="1"/>
        <pt x="210" y="690" on="1"/>
        <pt x="241" y="690" on="0"/>
        <pt x="273" y="662" on="0"/>
        <pt x="294" y="627" on="1"/>
        <pt x="438" y="401" on="1"/>
        <pt x="465" y="353" on="0"/>
        <pt x="491" y="283" on="1"/>
        <pt x="498" y="283" on="1"/>
        <pt x="489" y="357" on="0"/>
        <pt x="488" y="408" on="1"/>
        <pt x="488" y="690" on="1"/>
      </contour>
    </TTGlyph>
    <TTGlyph name="O" xMin="32" yMin="-14" xMax="675" yMax="704">
      <contour>
        <pt x="353" y="704" on="1"/>
        <pt x="476" y="704" on="0"/>
        <pt x="611" y="643" on="0"/>
        <pt x="675" y="488" on="0"/>
        <pt x="675" y="202" on="0"/>
        <pt x="611" y="47" on="0"/>
        <pt x="476" y="-14" on="0"/>
        <pt x="353" y="-14" on="1"/>
        <pt x="231" y="-14" on="0"/>
        <pt x="96" y="47" on="0"/>
        <pt x="32" y="202" on="0"/>
        <pt x="32" y="488" on="0"/>
        <pt x="96" y="643" on="0"/>
        <pt x="231" y="704" on="0"/>
      </contour>
      <contour>
        <pt x="409" y="543" on="0"/>
        <pt x="297" y="543" on="0"/>
        <pt x="260" y="464" on="0"/>
        <pt x="260" y="226" on="0"/>
        <pt x="297" y="147" on="0"/>
        <pt x="409" y="147" on="0"/>
        <pt x="446" y="226" on="0"/>
        <pt x="446" y="464" on="0"/>
      </contour>
    </TTGlyph>
    <TTGlyph name="OE" xMin="33" yMin="-14" xMax="954" yMax="704">
      <contour>
        <pt x="944" y="162" on="1"/>
        <pt x="954" y="9" on="1"/>
        <pt x="857" y="-4" on="0"/>
        <pt x="602" y="-4" on="1"/>
        <pt x="554" y="-4" on="0"/>
        <pt x="517" y="19" on="1"/>
        <pt x="447" y="-14" on="0"/>
        <pt x="349" y="-14" on="1"/>
        <pt x="229" y="-14" on="0"/>
        <pt x="96" y="47" on="0"/>
        <pt x="33" y="202" on="0"/>
        <pt x="33" y="488" on="0"/>
        <pt x="96" y="643" on="0"/>
        <pt x="229" y="704" on="0"/>
        <pt x="349" y="704" on="1"/>
        <pt x="454" y="704" on="0"/>
        <pt x="528" y="677" on="1"/>
        <pt x="562" y="694" on="0"/>
        <pt x="603" y="694" on="1"/>
        <pt x="857" y="694" on="0"/>
        <pt x="954" y="681" on="1"/>
        <pt x="944" y="528" on="1"/>
        <pt x="703" y="528" on="1"/>
        <pt x="685" y="528" on="0"/>
        <pt x="664" y="508" on="0"/>
        <pt x="664" y="492" on="1"/>
        <pt x="664" y="420" on="1"/>
        <pt x="910" y="420" on="1"/>
        <pt x="910" y="286" on="1"/>
        <pt x="664" y="286" on="1"/>
        <pt x="664" y="198" on="1"/>
        <pt x="664" y="182" on="0"/>
        <pt x="685" y="162" on="0"/>
        <pt x="703" y="162" on="1"/>
      </contour>
      <contour>
        <pt x="446" y="158" on="1"/>
        <pt x="446" y="534" on="1"/>
        <pt x="412" y="543" on="0"/>
        <pt x="349" y="543" on="1"/>
        <pt x="296" y="543" on="0"/>
        <pt x="262" y="465" on="0"/>
        <pt x="262" y="225" on="0"/>
        <pt x="296" y="147" on="0"/>
        <pt x="349" y="147" on="1"/>
        <pt x="414" y="147" on="0"/>
      </contour>
    </TTGlyph>
    <TTGlyph name="Oacute" xMin="32" yMin="-14" xMax="675" yMax="956">
      <contour>
        <pt x="563" y="823" on="1"/>
        <pt x="308" y="720" on="1"/>
        <pt x="251" y="806" on="1"/>
        <pt x="484" y="956" on="1"/>
      </contour>
      <contour>
        <pt x="353" y="704" on="1"/>
        <pt x="476" y="704" on="0"/>
        <pt x="611" y="643" on="0"/>
        <pt x="675" y="488" on="0"/>
        <pt x="675" y="202" on="0"/>
        <pt x="611" y="47" on="0"/>
        <pt x="476" y="-14" on="0"/>
        <pt x="353" y="-14" on="1"/>
        <pt x="231" y="-14" on="0"/>
        <pt x="96" y="47" on="0"/>
        <pt x="32" y="202" on="0"/>
        <pt x="32" y="488" on="0"/>
        <pt x="96" y="643" on="0"/>
        <pt x="231" y="704" on="0"/>
      </contour>
      <contour>
        <pt x="409" y="543" on="0"/>
        <pt x="297" y="543" on="0"/>
        <pt x="260" y="464" on="0"/>
        <pt x="260" y="226" on="0"/>
        <pt x="297" y="147" on="0"/>
        <pt x="409" y="147" on="0"/>
        <pt x="446" y="226" on="0"/>
        <pt x="446" y="464" on="0"/>
      </contour>
    </TTGlyph>
    <TTGlyph name="Ocircumflex" xMin="32" yMin="-14" xMax="675" yMax="920">
      <contour>
        <pt x="565" y="779" on="1"/>
        <pt x="517" y="710" on="1"/>
        <pt x="358" y="803" on="1"/>
        <pt x="350" y="803" on="1"/>
        <pt x="188" y="710" on="1"/>
        <pt x="138" y="787" on="1"/>
        <pt x="278" y="920" on="1"/>
        <pt x="430" y="920" on="1"/>
      </contour>
      <contour>
        <pt x="353" y="704" on="1"/>
        <pt x="476" y="704" on="0"/>
        <pt x="611" y="643" on="0"/>
        <pt x="675" y="488" on="0"/>
        <pt x="675" y="202" on="0"/>
        <pt x="611" y="47" on="0"/>
        <pt x="476" y="-14" on="0"/>
        <pt x="353" y="-14" on="1"/>
        <pt x="231" y="-14" on="0"/>
        <pt x="96" y="47" on="0"/>
        <pt x="32" y="202" on="0"/>
        <pt x="32" y="488" on="0"/>
        <pt x="96" y="643" on="0"/>
        <pt x="231" y="704" on="0"/>
      </contour>
      <contour>
        <pt x="409" y="543" on="0"/>
        <pt x="297" y="543" on="0"/>
        <pt x="260" y="464" on="0"/>
        <pt x="260" y="226" on="0"/>
        <pt x="297" y="147" on="0"/>
        <pt x="409" y="147" on="0"/>
        <pt x="446" y="226" on="0"/>
        <pt x="446" y="464" on="0"/>
      </contour>
    </TTGlyph>
    <TTGlyph name="Odieresis" xMin="32" yMin="-14" xMax="675" yMax="904">
      <contour>
        <pt x="222" y="904" on="1"/>
        <pt x="291" y="904" on="1"/>
        <pt x="330" y="904" on="0"/>
        <pt x="330" y="865" on="1"/>
        <pt x="330" y="802" on="1"/>
        <pt x="330" y="763" on="0"/>
        <pt x="291" y="763" on="1"/>
        <pt x="222" y="763" on="1"/>
        <pt x="183" y="763" on="0"/>
        <pt x="183" y="802" on="1"/>
        <pt x="183" y="865" on="1"/>
        <pt x="183" y="904" on="0"/>
      </contour>
      <contour>
        <pt x="411" y="904" on="1"/>
        <pt x="480" y="904" on="1"/>
        <pt x="519" y="904" on="0"/>
        <pt x="519" y="865" on="1"/>
        <pt x="519" y="802" on="1"/>
        <pt x="519" y="763" on="0"/>
        <pt x="480" y="763" on="1"/>
        <pt x="411" y="763" on="1"/>
        <pt x="372" y="763" on="0"/>
        <pt x="372" y="802" on="1"/>
        <pt x="372" y="865" on="1"/>
        <pt x="372" y="904" on="0"/>
      </contour>
      <contour>
        <pt x="353" y="704" on="1"/>
        <pt x="476" y="704" on="0"/>
        <pt x="611" y="643" on="0"/>
        <pt x="675" y="488" on="0"/>
        <pt x="675" y="202" on="0"/>
        <pt x="611" y="47" on="0"/>
        <pt x="476" y="-14" on="0"/>
        <pt x="353" y="-14" on="1"/>
        <pt x="231" y="-14" on="0"/>
        <pt x="96" y="47" on="0"/>
        <pt x="32" y="202" on="0"/>
        <pt x="32" y="488" on="0"/>
        <pt x="96" y="643" on="0"/>
        <pt x="231" y="704" on="0"/>
      </contour>
      <contour>
        <pt x="409" y="543" on="0"/>
        <pt x="297" y="543" on="0"/>
        <pt x="260" y="464" on="0"/>
        <pt x="260" y="226" on="0"/>
        <pt x="297" y="147" on="0"/>
        <pt x="409" y="147" on="0"/>
        <pt x="446" y="226" on="0"/>
        <pt x="446" y="464" on="0"/>
      </contour>
    </TTGlyph>
    <TTGlyph name="Ograve" xMin="32" yMin="-14" xMax="675" yMax="956">
      <contour>
        <pt x="453" y="806" on="1"/>
        <pt x="396" y="720" on="1"/>
        <pt x="141" y="823" on="1"/>
        <pt x="220" y="956" on="1"/>
      </contour>
      <contour>
        <pt x="353" y="704" on="1"/>
        <pt x="476" y="704" on="0"/>
        <pt x="611" y="643" on="0"/>
        <pt x="675" y="488" on="0"/>
        <pt x="675" y="202" on="0"/>
        <pt x="611" y="47" on="0"/>
        <pt x="476" y="-14" on="0"/>
        <pt x="353" y="-14" on="1"/>
        <pt x="231" y="-14" on="0"/>
        <pt x="96" y="47" on="0"/>
        <pt x="32" y="202" on="0"/>
        <pt x="32" y="488" on="0"/>
        <pt x="96" y="643" on="0"/>
        <pt x="231" y="704" on="0"/>
      </contour>
      <contour>
        <pt x="409" y="543" on="0"/>
        <pt x="297" y="543" on="0"/>
        <pt x="260" y="464" on="0"/>
        <pt x="260" y="226" on="0"/>
        <pt x="297" y="147" on="0"/>
        <pt x="409" y="147" on="0"/>
        <pt x="446" y="226" on="0"/>
        <pt x="446" y="464" on="0"/>
      </contour>
    </TTGlyph>
    <TTGlyph name="Ohungarumlaut" xMin="32" yMin="-14" xMax="675" yMax="968">
      <contour>
        <pt x="402" y="884" on="1"/>
        <pt x="233" y="708" on="1"/>
        <pt x="150" y="775" on="1"/>
        <pt x="273" y="968" on="1"/>
      </contour>
      <contour>
        <pt x="617" y="884" on="1"/>
        <pt x="447" y="708" on="1"/>
        <pt x="365" y="774" on="1"/>
        <pt x="488" y="968" on="1"/>
      </contour>
      <contour>
        <pt x="353" y="704" on="1"/>
        <pt x="476" y="704" on="0"/>
        <pt x="611" y="643" on="0"/>
        <pt x="675" y="488" on="0"/>
        <pt x="675" y="202" on="0"/>
        <pt x="611" y="47" on="0"/>
        <pt x="476" y="-14" on="0"/>
        <pt x="353" y="-14" on="1"/>
        <pt x="231" y="-14" on="0"/>
        <pt x="96" y="47" on="0"/>
        <pt x="32" y="202" on="0"/>
        <pt x="32" y="488" on="0"/>
        <pt x="96" y="643" on="0"/>
        <pt x="231" y="704" on="0"/>
      </contour>
      <contour>
        <pt x="409" y="543" on="0"/>
        <pt x="297" y="543" on="0"/>
        <pt x="260" y="464" on="0"/>
        <pt x="260" y="226" on="0"/>
        <pt x="297" y="147" on="0"/>
        <pt x="409" y="147" on="0"/>
        <pt x="446" y="226" on="0"/>
        <pt x="446" y="464" on="0"/>
      </contour>
    </TTGlyph>
    <TTGlyph name="Omacron" xMin="32" yMin="-14" xMax="675" yMax="895">
      <contour>
        <pt x="514" y="772" on="1"/>
        <pt x="194" y="772" on="1"/>
        <pt x="194" y="895" on="1"/>
        <pt x="514" y="895" on="1"/>
      </contour>
      <contour>
        <pt x="353" y="704" on="1"/>
        <pt x="476" y="704" on="0"/>
        <pt x="611" y="643" on="0"/>
        <pt x="675" y="488" on="0"/>
        <pt x="675" y="202" on="0"/>
        <pt x="611" y="47" on="0"/>
        <pt x="476" y="-14" on="0"/>
        <pt x="353" y="-14" on="1"/>
        <pt x="231" y="-14" on="0"/>
        <pt x="96" y="47" on="0"/>
        <pt x="32" y="202" on="0"/>
        <pt x="32" y="488" on="0"/>
        <pt x="96" y="643" on="0"/>
        <pt x="231" y="704" on="0"/>
      </contour>
      <contour>
        <pt x="409" y="543" on="0"/>
        <pt x="297" y="543" on="0"/>
        <pt x="260" y="464" on="0"/>
        <pt x="260" y="226" on="0"/>
        <pt x="297" y="147" on="0"/>
        <pt x="409" y="147" on="0"/>
        <pt x="446" y="226" on="0"/>
        <pt x="446" y="464" on="0"/>
      </contour>
    </TTGlyph>
    <TTGlyph name="Omega" xMin="36" yMin="0" xMax="684" yMax="704">
      <contour>
        <pt x="36" y="162" on="1"/>
        <pt x="104" y="162" on="1"/>
        <pt x="143" y="162" on="0"/>
        <pt x="179" y="142" on="1"/>
        <pt x="103" y="205" on="0"/>
        <pt x="42" y="317" on="0"/>
        <pt x="42" y="405" on="1"/>
        <pt x="42" y="560" on="0"/>
        <pt x="190" y="704" on="0"/>
        <pt x="532" y="704" on="0"/>
        <pt x="678" y="559" on="0"/>
        <pt x="678" y="401" on="1"/>
        <pt x="678" y="311" on="0"/>
        <pt x="618" y="200" on="0"/>
        <pt x="541" y="142" on="1"/>
        <pt x="582" y="162" on="0"/>
        <pt x="616" y="162" on="1"/>
        <pt x="684" y="162" on="1"/>
        <pt x="684" y="0" on="1"/>
        <pt x="379" y="0" on="1"/>
        <pt x="379" y="152" on="1"/>
        <pt x="421" y="194" on="0"/>
        <pt x="452" y="288" on="0"/>
        <pt x="452" y="372" on="1"/>
        <pt x="452" y="479" on="0"/>
        <pt x="417" y="544" on="0"/>
        <pt x="303" y="544" on="0"/>
        <pt x="268" y="478" on="0"/>
        <pt x="268" y="370" on="1"/>
        <pt x="268" y="282" on="0"/>
        <pt x="298" y="198" on="0"/>
        <pt x="341" y="152" on="1"/>
        <pt x="341" y="0" on="1"/>
        <pt x="36" y="0" on="1"/>
      </contour>
    </TTGlyph>
    <TTGlyph name="Oslash" xMin="32" yMin="-118" xMax="675" yMax="806">
      <contour>
        <pt x="632" y="730" on="1"/>
        <pt x="592" y="642" on="1"/>
        <pt x="636" y="603" on="0"/>
        <pt x="675" y="460" on="0"/>
        <pt x="675" y="345" on="1"/>
        <pt x="675" y="202" on="0"/>
        <pt x="611" y="47" on="0"/>
        <pt x="476" y="-14" on="0"/>
        <pt x="353" y="-14" on="1"/>
        <pt x="316" y="-14" on="0"/>
        <pt x="283" y="-11" on="1"/>
        <pt x="233" y="-118" on="1"/>
        <pt x="72" y="-41" on="1"/>
        <pt x="115" y="49" on="1"/>
        <pt x="32" y="122" on="0"/>
        <pt x="32" y="345" on="1"/>
        <pt x="32" y="488" on="0"/>
        <pt x="96" y="643" on="0"/>
        <pt x="231" y="704" on="0"/>
        <pt x="353" y="704" on="1"/>
        <pt x="390" y="704" on="0"/>
        <pt x="423" y="701" on="1"/>
        <pt x="471" y="806" on="1"/>
      </contour>
      <contour>
        <pt x="297" y="147" on="0"/>
        <pt x="409" y="147" on="0"/>
        <pt x="446" y="226" on="0"/>
        <pt x="446" y="464" on="0"/>
        <pt x="409" y="543" on="0"/>
        <pt x="297" y="543" on="0"/>
        <pt x="260" y="464" on="0"/>
        <pt x="260" y="226" on="0"/>
      </contour>
    </TTGlyph>
    <TTGlyph name="Otilde" xMin="32" yMin="-14" xMax="675" yMax="920">
      <contour>
        <pt x="249" y="751" on="1"/>
        <pt x="162" y="751" on="1"/>
        <pt x="147" y="834" on="0"/>
        <pt x="202" y="923" on="0"/>
        <pt x="247" y="920" on="1"/>
        <pt x="287" y="917" on="0"/>
        <pt x="403" y="880" on="0"/>
        <pt x="416" y="877" on="1"/>
        <pt x="437" y="873" on="0"/>
        <pt x="445" y="888" on="0"/>
        <pt x="445" y="915" on="1"/>
        <pt x="532" y="915" on="1"/>
        <pt x="547" y="834" on="0"/>
        <pt x="496" y="743" on="0"/>
        <pt x="447" y="746" on="1"/>
        <pt x="408" y="749" on="0"/>
        <pt x="290" y="787" on="0"/>
        <pt x="277" y="789" on="1"/>
        <pt x="257" y="792" on="0"/>
        <pt x="249" y="780" on="0"/>
        <pt x="249" y="757" on="1"/>
        <pt x="249" y="753" on="0"/>
      </contour>
      <contour>
        <pt x="353" y="704" on="1"/>
        <pt x="476" y="704" on="0"/>
        <pt x="611" y="643" on="0"/>
        <pt x="675" y="488" on="0"/>
        <pt x="675" y="202" on="0"/>
        <pt x="611" y="47" on="0"/>
        <pt x="476" y="-14" on="0"/>
        <pt x="353" y="-14" on="1"/>
        <pt x="231" y="-14" on="0"/>
        <pt x="96" y="47" on="0"/>
        <pt x="32" y="202" on="0"/>
        <pt x="32" y="488" on="0"/>
        <pt x="96" y="643" on="0"/>
        <pt x="231" y="704" on="0"/>
      </contour>
      <contour>
        <pt x="409" y="543" on="0"/>
        <pt x="297" y="543" on="0"/>
        <pt x="260" y="464" on="0"/>
        <pt x="260" y="226" on="0"/>
        <pt x="297" y="147" on="0"/>
        <pt x="409" y="147" on="0"/>
        <pt x="446" y="226" on="0"/>
        <pt x="446" y="464" on="0"/>
      </contour>
    </TTGlyph>
    <TTGlyph name="P" xMin="52" yMin="0" xMax="630" yMax="700">
      <contour>
        <pt x="52" y="0" on="1"/>
        <pt x="52" y="690" on="1"/>
        <pt x="154" y="700" on="0"/>
        <pt x="344" y="700" on="1"/>
        <pt x="509" y="700" on="0"/>
        <pt x="630" y="602" on="0"/>
        <pt x="630" y="465" on="1"/>
        <pt x="630" y="330" on="0"/>
        <pt x="518" y="232" on="0"/>
        <pt x="374" y="232" on="1"/>
        <pt x="320" y="232" on="0"/>
        <pt x="269" y="238" on="1"/>
        <pt x="269" y="0" on="1"/>
      </contour>
      <contour>
        <pt x="269" y="385" on="1"/>
        <pt x="339" y="385" on="1"/>
        <pt x="383" y="385" on="0"/>
        <pt x="413" y="417" on="0"/>
        <pt x="413" y="465" on="1"/>
        <pt x="413" y="514" on="0"/>
        <pt x="383" y="547" on="0"/>
        <pt x="339" y="547" on="1"/>
        <pt x="269" y="547" on="1"/>
      </contour>
    </TTGlyph>
    <TTGlyph name="Q" xMin="32" yMin="-275" xMax="675" yMax="704">
      <contour>
        <pt x="353" y="704" on="1"/>
        <pt x="476" y="704" on="0"/>
        <pt x="611" y="643" on="0"/>
        <pt x="675" y="488" on="0"/>
        <pt x="675" y="202" on="0"/>
        <pt x="611" y="47" on="0"/>
        <pt x="476" y="-14" on="0"/>
        <pt x="353" y="-14" on="1"/>
        <pt x="231" y="-14" on="0"/>
        <pt x="96" y="47" on="0"/>
        <pt x="32" y="202" on="0"/>
        <pt x="32" y="488" on="0"/>
        <pt x="96" y="643" on="0"/>
        <pt x="231" y="704" on="0"/>
      </contour>
      <contour>
        <pt x="409" y="543" on="0"/>
        <pt x="297" y="543" on="0"/>
        <pt x="260" y="464" on="0"/>
        <pt x="260" y="226" on="0"/>
        <pt x="297" y="147" on="0"/>
        <pt x="409" y="147" on="0"/>
        <pt x="446" y="226" on="0"/>
        <pt x="446" y="464" on="0"/>
      </contour>
      <contour>
        <pt x="248" y="-129" on="1"/>
        <pt x="294" y="-26" on="1"/>
        <pt x="406" y="-68" on="0"/>
        <pt x="623" y="-100" on="1"/>
        <pt x="570" y="-275" on="1"/>
        <pt x="372" y="-218" on="0"/>
      </contour>
    </TTGlyph>
    <TTGlyph name="R" xMin="52" yMin="0" xMax="663" yMax="700">
      <contour>
        <pt x="663" y="0" on="1"/>
        <pt x="436" y="0" on="1"/>
        <pt x="391" y="205" on="1"/>
        <pt x="385" y="233" on="0"/>
        <pt x="360" y="252" on="0"/>
        <pt x="332" y="252" on="1"/>
        <pt x="265" y="252" on="1"/>
        <pt x="265" y="0" on="1"/>
        <pt x="52" y="0" on="1"/>
        <pt x="52" y="690" on="1"/>
        <pt x="154" y="700" on="0"/>
        <pt x="345" y="700" on="1"/>
        <pt x="501" y="700" on="0"/>
        <pt x="636" y="608" on="0"/>
        <pt x="636" y="490" on="1"/>
        <pt x="636" y="340" on="0"/>
        <pt x="496" y="326" on="1"/>
        <pt x="496" y="320" on="1"/>
        <pt x="590" y="308" on="0"/>
        <pt x="609" y="212" on="1"/>
      </contour>
      <contour>
        <pt x="265" y="405" on="1"/>
        <pt x="340" y="405" on="1"/>
        <pt x="387" y="405" on="0"/>
        <pt x="418" y="433" on="0"/>
        <pt x="418" y="519" on="0"/>
        <pt x="387" y="547" on="0"/>
        <pt x="340" y="547" on="1"/>
        <pt x="265" y="547" on="1"/>
      </contour>
    </TTGlyph>
    <TTGlyph name="Racute" xMin="52" yMin="0" xMax="663" yMax="956">
      <contour>
        <pt x="294" y="720" on="1"/>
        <pt x="237" y="806" on="1"/>
        <pt x="470" y="956" on="1"/>
        <pt x="549" y="823" on="1"/>
      </contour>
      <contour>
        <pt x="663" y="0" on="1"/>
        <pt x="436" y="0" on="1"/>
        <pt x="391" y="205" on="1"/>
        <pt x="385" y="233" on="0"/>
        <pt x="360" y="252" on="0"/>
        <pt x="332" y="252" on="1"/>
        <pt x="265" y="252" on="1"/>
        <pt x="265" y="0" on="1"/>
        <pt x="52" y="0" on="1"/>
        <pt x="52" y="690" on="1"/>
        <pt x="154" y="700" on="0"/>
        <pt x="345" y="700" on="1"/>
        <pt x="501" y="700" on="0"/>
        <pt x="636" y="608" on="0"/>
        <pt x="636" y="490" on="1"/>
        <pt x="636" y="340" on="0"/>
        <pt x="496" y="326" on="1"/>
        <pt x="496" y="320" on="1"/>
        <pt x="590" y="308" on="0"/>
        <pt x="609" y="212" on="1"/>
      </contour>
      <contour>
        <pt x="265" y="405" on="1"/>
        <pt x="340" y="405" on="1"/>
        <pt x="387" y="405" on="0"/>
        <pt x="418" y="433" on="0"/>
        <pt x="418" y="519" on="0"/>
        <pt x="387" y="547" on="0"/>
        <pt x="340" y="547" on="1"/>
        <pt x="265" y="547" on="1"/>
      </contour>
    </TTGlyph>
    <TTGlyph name="Rcaron" xMin="52" yMin="0" xMax="663" yMax="944">
      <contour>
        <pt x="298" y="736" on="1"/>
        <pt x="134" y="867" on="1"/>
        <pt x="184" y="944" on="1"/>
        <pt x="335" y="868" on="1"/>
        <pt x="343" y="868" on="1"/>
        <pt x="495" y="944" on="1"/>
        <pt x="543" y="867" on="1"/>
        <pt x="380" y="736" on="1"/>
      </contour>
      <contour>
        <pt x="663" y="0" on="1"/>
        <pt x="436" y="0" on="1"/>
        <pt x="391" y="205" on="1"/>
        <pt x="385" y="233" on="0"/>
        <pt x="360" y="252" on="0"/>
        <pt x="332" y="252" on="1"/>
        <pt x="265" y="252" on="1"/>
        <pt x="265" y="0" on="1"/>
        <pt x="52" y="0" on="1"/>
        <pt x="52" y="690" on="1"/>
        <pt x="154" y="700" on="0"/>
        <pt x="345" y="700" on="1"/>
        <pt x="501" y="700" on="0"/>
        <pt x="636" y="608" on="0"/>
        <pt x="636" y="490" on="1"/>
        <pt x="636" y="340" on="0"/>
        <pt x="496" y="326" on="1"/>
        <pt x="496" y="320" on="1"/>
        <pt x="590" y="308" on="0"/>
        <pt x="609" y="212" on="1"/>
      </contour>
      <contour>
        <pt x="265" y="405" on="1"/>
        <pt x="340" y="405" on="1"/>
        <pt x="387" y="405" on="0"/>
        <pt x="418" y="433" on="0"/>
        <pt x="418" y="519" on="0"/>
        <pt x="387" y="547" on="0"/>
        <pt x="340" y="547" on="1"/>
        <pt x="265" y="547" on="1"/>
      </contour>
    </TTGlyph>
    <TTGlyph name="Rcommaaccent" xMin="52" yMin="-309" xMax="663" yMax="700">
      <contour>
        <pt x="663" y="0" on="1"/>
        <pt x="436" y="0" on="1"/>
        <pt x="391" y="205" on="1"/>
        <pt x="385" y="233" on="0"/>
        <pt x="360" y="252" on="0"/>
        <pt x="332" y="252" on="1"/>
        <pt x="265" y="252" on="1"/>
        <pt x="265" y="0" on="1"/>
        <pt x="52" y="0" on="1"/>
        <pt x="52" y="690" on="1"/>
        <pt x="154" y="700" on="0"/>
        <pt x="345" y="700" on="1"/>
        <pt x="501" y="700" on="0"/>
        <pt x="636" y="608" on="0"/>
        <pt x="636" y="490" on="1"/>
        <pt x="636" y="340" on="0"/>
        <pt x="496" y="326" on="1"/>
        <pt x="496" y="320" on="1"/>
        <pt x="590" y="308" on="0"/>
        <pt x="609" y="212" on="1"/>
      </contour>
      <contour>
        <pt x="265" y="405" on="1"/>
        <pt x="340" y="405" on="1"/>
        <pt x="387" y="405" on="0"/>
        <pt x="418" y="433" on="0"/>
        <pt x="418" y="519" on="0"/>
        <pt x="387" y="547" on="0"/>
        <pt x="340" y="547" on="1"/>
        <pt x="265" y="547" on="1"/>
      </contour>
      <contour>
        <pt x="328" y="-48" on="1"/>
        <pt x="366" y="-48" on="1"/>
        <pt x="402" y="-48" on="0"/>
        <pt x="430" y="-71" on="0"/>
        <pt x="431" y="-102" on="1"/>
        <pt x="431" y="-150" on="1"/>
        <pt x="431" y="-203" on="0"/>
        <pt x="402" y="-272" on="0"/>
        <pt x="370" y="-309" on="1"/>
        <pt x="299" y="-290" on="1"/>
        <pt x="315" y="-251" on="0"/>
        <pt x="317" y="-187" on="1"/>
        <pt x="263" y="-187" on="0"/>
        <pt x="261" y="-139" on="1"/>
        <pt x="264" y="-102" on="1"/>
        <pt x="265" y="-71" on="0"/>
        <pt x="292" y="-48" on="0"/>
      </contour>
    </TTGlyph>
    <TTGlyph name="S" xMin="30" yMin="-14" xMax="585" yMax="704">
      <contour>
        <pt x="321" y="233" on="1"/>
        <pt x="184" y="293" on="1"/>
        <pt x="100" y="330" on="0"/>
        <pt x="30" y="425" on="0"/>
        <pt x="30" y="501" on="1"/>
        <pt x="30" y="617" on="0"/>
        <pt x="156" y="704" on="0"/>
        <pt x="314" y="704" on="1"/>
        <pt x="465" y="704" on="0"/>
        <pt x="565" y="669" on="1"/>
        <pt x="552" y="530" on="1"/>
        <pt x="432" y="532" on="0"/>
        <pt x="309" y="532" on="1"/>
        <pt x="271" y="532" on="0"/>
        <pt x="245" y="522" on="0"/>
        <pt x="245" y="506" on="1"/>
        <pt x="245" y="492" on="0"/>
        <pt x="270" y="473" on="0"/>
        <pt x="305" y="459" on="1"/>
        <pt x="430" y="407" on="1"/>
        <pt x="515" y="370" on="0"/>
        <pt x="585" y="274" on="0"/>
        <pt x="585" y="197" on="1"/>
        <pt x="585" y="80" on="0"/>
        <pt x="463" y="-14" on="0"/>
        <pt x="303" y="-14" on="1"/>
        <pt x="168" y="-14" on="0"/>
        <pt x="36" y="20" on="1"/>
        <pt x="49" y="172" on="1"/>
        <pt x="247" y="167" on="0"/>
        <pt x="300" y="167" on="1"/>
        <pt x="341" y="167" on="0"/>
        <pt x="368" y="177" on="0"/>
        <pt x="368" y="205" on="0"/>
        <pt x="349" y="223" on="0"/>
      </contour>
    </TTGlyph>
    <TTGlyph name="Sacute" xMin="30" yMin="-14" xMax="585" yMax="956">
      <contour>
        <pt x="524" y="823" on="1"/>
        <pt x="269" y="720" on="1"/>
        <pt x="212" y="806" on="1"/>
        <pt x="445" y="956" on="1"/>
      </contour>
      <contour>
        <pt x="321" y="233" on="1"/>
        <pt x="184" y="293" on="1"/>
        <pt x="100" y="330" on="0"/>
        <pt x="30" y="425" on="0"/>
        <pt x="30" y="501" on="1"/>
        <pt x="30" y="617" on="0"/>
        <pt x="156" y="704" on="0"/>
        <pt x="314" y="704" on="1"/>
        <pt x="465" y="704" on="0"/>
        <pt x="565" y="669" on="1"/>
        <pt x="552" y="530" on="1"/>
        <pt x="432" y="532" on="0"/>
        <pt x="309" y="532" on="1"/>
        <pt x="271" y="532" on="0"/>
        <pt x="245" y="522" on="0"/>
        <pt x="245" y="506" on="1"/>
        <pt x="245" y="492" on="0"/>
        <pt x="270" y="473" on="0"/>
        <pt x="305" y="459" on="1"/>
        <pt x="430" y="407" on="1"/>
        <pt x="515" y="370" on="0"/>
        <pt x="585" y="274" on="0"/>
        <pt x="585" y="197" on="1"/>
        <pt x="585" y="80" on="0"/>
        <pt x="463" y="-14" on="0"/>
        <pt x="303" y="-14" on="1"/>
        <pt x="168" y="-14" on="0"/>
        <pt x="36" y="20" on="1"/>
        <pt x="49" y="172" on="1"/>
        <pt x="247" y="167" on="0"/>
        <pt x="300" y="167" on="1"/>
        <pt x="341" y="167" on="0"/>
        <pt x="368" y="177" on="0"/>
        <pt x="368" y="205" on="0"/>
        <pt x="349" y="223" on="0"/>
      </contour>
    </TTGlyph>
    <TTGlyph name="Scaron" xMin="30" yMin="-14" xMax="585" yMax="944">
      <contour>
        <pt x="518" y="867" on="1"/>
        <pt x="355" y="736" on="1"/>
        <pt x="273" y="736" on="1"/>
        <pt x="109" y="867" on="1"/>
        <pt x="159" y="944" on="1"/>
        <pt x="310" y="868" on="1"/>
        <pt x="318" y="868" on="1"/>
        <pt x="470" y="944" on="1"/>
      </contour>
      <contour>
        <pt x="321" y="233" on="1"/>
        <pt x="184" y="293" on="1"/>
        <pt x="100" y="330" on="0"/>
        <pt x="30" y="425" on="0"/>
        <pt x="30" y="501" on="1"/>
        <pt x="30" y="617" on="0"/>
        <pt x="156" y="704" on="0"/>
        <pt x="314" y="704" on="1"/>
        <pt x="465" y="704" on="0"/>
        <pt x="565" y="669" on="1"/>
        <pt x="552" y="530" on="1"/>
        <pt x="432" y="532" on="0"/>
        <pt x="309" y="532" on="1"/>
        <pt x="271" y="532" on="0"/>
        <pt x="245" y="522" on="0"/>
        <pt x="245" y="506" on="1"/>
        <pt x="245" y="492" on="0"/>
        <pt x="270" y="473" on="0"/>
        <pt x="305" y="459" on="1"/>
        <pt x="430" y="407" on="1"/>
        <pt x="515" y="370" on="0"/>
        <pt x="585" y="274" on="0"/>
        <pt x="585" y="197" on="1"/>
        <pt x="585" y="80" on="0"/>
        <pt x="463" y="-14" on="0"/>
        <pt x="303" y="-14" on="1"/>
        <pt x="168" y="-14" on="0"/>
        <pt x="36" y="20" on="1"/>
        <pt x="49" y="172" on="1"/>
        <pt x="247" y="167" on="0"/>
        <pt x="300" y="167" on="1"/>
        <pt x="341" y="167" on="0"/>
        <pt x="368" y="177" on="0"/>
        <pt x="368" y="205" on="0"/>
        <pt x="349" y="223" on="0"/>
      </contour>
    </TTGlyph>
    <TTGlyph name="Scedilla" xMin="30" yMin="-279" xMax="585" yMax="704">
      <contour>
        <pt x="321" y="233" on="1"/>
        <pt x="184" y="293" on="1"/>
        <pt x="100" y="330" on="0"/>
        <pt x="30" y="425" on="0"/>
        <pt x="30" y="501" on="1"/>
        <pt x="30" y="617" on="0"/>
        <pt x="156" y="704" on="0"/>
        <pt x="314" y="704" on="1"/>
        <pt x="465" y="704" on="0"/>
        <pt x="565" y="669" on="1"/>
        <pt x="552" y="530" on="1"/>
        <pt x="432" y="532" on="0"/>
        <pt x="309" y="532" on="1"/>
        <pt x="271" y="532" on="0"/>
        <pt x="245" y="522" on="0"/>
        <pt x="245" y="506" on="1"/>
        <pt x="245" y="492" on="0"/>
        <pt x="270" y="473" on="0"/>
        <pt x="305" y="459" on="1"/>
        <pt x="430" y="407" on="1"/>
        <pt x="515" y="370" on="0"/>
        <pt x="585" y="274" on="0"/>
        <pt x="585" y="197" on="1"/>
        <pt x="585" y="80" on="0"/>
        <pt x="463" y="-14" on="0"/>
        <pt x="303" y="-14" on="1"/>
        <pt x="168" y="-14" on="0"/>
        <pt x="36" y="20" on="1"/>
        <pt x="49" y="172" on="1"/>
        <pt x="247" y="167" on="0"/>
        <pt x="300" y="167" on="1"/>
        <pt x="341" y="167" on="0"/>
        <pt x="368" y="177" on="0"/>
        <pt x="368" y="205" on="0"/>
        <pt x="349" y="223" on="0"/>
      </contour>
      <contour>
        <pt x="218" y="-139" on="1"/>
        <pt x="237" y="-67" on="1"/>
        <pt x="331" y="-52" on="0"/>
        <pt x="416" y="-76" on="0"/>
        <pt x="413" y="-132" on="1"/>
        <pt x="409" y="-215" on="0"/>
        <pt x="277" y="-292" on="0"/>
        <pt x="179" y="-279" on="1"/>
        <pt x="201" y="-201" on="1"/>
        <pt x="241" y="-201" on="0"/>
        <pt x="285" y="-182" on="0"/>
        <pt x="288" y="-150" on="1"/>
        <pt x="289" y="-140" on="0"/>
        <pt x="277" y="-139" on="1"/>
        <pt x="275" y="-139" on="0"/>
      </contour>
    </TTGlyph>
    <TTGlyph name="Scommaaccent" xMin="30" yMin="-309" xMax="585" yMax="704">
      <contour>
        <pt x="321" y="233" on="1"/>
        <pt x="184" y="293" on="1"/>
        <pt x="100" y="330" on="0"/>
        <pt x="30" y="425" on="0"/>
        <pt x="30" y="501" on="1"/>
        <pt x="30" y="617" on="0"/>
        <pt x="156" y="704" on="0"/>
        <pt x="314" y="704" on="1"/>
        <pt x="465" y="704" on="0"/>
        <pt x="565" y="669" on="1"/>
        <pt x="552" y="530" on="1"/>
        <pt x="432" y="532" on="0"/>
        <pt x="309" y="532" on="1"/>
        <pt x="271" y="532" on="0"/>
        <pt x="245" y="522" on="0"/>
        <pt x="245" y="506" on="1"/>
        <pt x="245" y="492" on="0"/>
        <pt x="270" y="473" on="0"/>
        <pt x="305" y="459" on="1"/>
        <pt x="430" y="407" on="1"/>
        <pt x="515" y="370" on="0"/>
        <pt x="585" y="274" on="0"/>
        <pt x="585" y="197" on="1"/>
        <pt x="585" y="80" on="0"/>
        <pt x="463" y="-14" on="0"/>
        <pt x="303" y="-14" on="1"/>
        <pt x="168" y="-14" on="0"/>
        <pt x="36" y="20" on="1"/>
        <pt x="49" y="172" on="1"/>
        <pt x="247" y="167" on="0"/>
        <pt x="300" y="167" on="1"/>
        <pt x="341" y="167" on="0"/>
        <pt x="368" y="177" on="0"/>
        <pt x="368" y="205" on="0"/>
        <pt x="349" y="223" on="0"/>
      </contour>
      <contour>
        <pt x="255" y="-48" on="1"/>
        <pt x="293" y="-48" on="1"/>
        <pt x="329" y="-48" on="0"/>
        <pt x="357" y="-71" on="0"/>
        <pt x="358" y="-102" on="1"/>
        <pt x="358" y="-150" on="1"/>
        <pt x="358" y="-203" on="0"/>
        <pt x="329" y="-272" on="0"/>
        <pt x="297" y="-309" on="1"/>
        <pt x="226" y="-290" on="1"/>
        <pt x="242" y="-251" on="0"/>
        <pt x="244" y="-187" on="1"/>
        <pt x="190" y="-187" on="0"/>
        <pt x="188" y="-139" on="1"/>
        <pt x="191" y="-102" on="1"/>
        <pt x="192" y="-71" on="0"/>
        <pt x="219" y="-48" on="0"/>
      </contour>
    </TTGlyph>
    <TTGlyph name="T" xMin="10" yMin="0" xMax="613" yMax="690">
      <contour>
        <pt x="613" y="528" on="1"/>
        <pt x="420" y="528" on="1"/>
        <pt x="420" y="0" on="1"/>
        <pt x="203" y="0" on="1"/>
        <pt x="203" y="528" on="1"/>
        <pt x="10" y="528" on="1"/>
        <pt x="10" y="690" on="1"/>
        <pt x="613" y="690" on="1"/>
      </contour>
    </TTGlyph>
    <TTGlyph name="Tbar" xMin="12" yMin="0" xMax="615" yMax="690">
      <contour>
        <pt x="422" y="528" on="1"/>
        <pt x="422" y="401" on="1"/>
        <pt x="537" y="401" on="1"/>
        <pt x="537" y="307" on="1"/>
        <pt x="422" y="307" on="1"/>
        <pt x="422" y="0" on="1"/>
        <pt x="205" y="0" on="1"/>
        <pt x="205" y="307" on="1"/>
        <pt x="88" y="307" on="1"/>
        <pt x="88" y="401" on="1"/>
        <pt x="205" y="401" on="1"/>
        <pt x="205" y="528" on="1"/>
        <pt x="12" y="528" on="1"/>
        <pt x="12" y="690" on="1"/>
        <pt x="615" y="690" on="1"/>
        <pt x="615" y="528" on="1"/>
      </contour>
    </TTGlyph>
    <TTGlyph name="Tcaron" xMin="10" yMin="0" xMax="613" yMax="944">
      <contour>
        <pt x="270" y="736" on="1"/>
        <pt x="106" y="867" on="1"/>
        <pt x="156" y="944" on="1"/>
        <pt x="307" y="868" on="1"/>
        <pt x="315" y="868" on="1"/>
        <pt x="467" y="944" on="1"/>
        <pt x="515" y="867" on="1"/>
        <pt x="352" y="736" on="1"/>
      </contour>
      <contour>
        <pt x="613" y="528" on="1"/>
        <pt x="420" y="528" on="1"/>
        <pt x="420" y="0" on="1"/>
        <pt x="203" y="0" on="1"/>
        <pt x="203" y="528" on="1"/>
        <pt x="10" y="528" on="1"/>
        <pt x="10" y="690" on="1"/>
        <pt x="613" y="690" on="1"/>
      </contour>
    </TTGlyph>
    <TTGlyph name="Tcedilla" xMin="10" yMin="-265" xMax="613" yMax="690">
      <contour>
        <pt x="613" y="528" on="1"/>
        <pt x="420" y="528" on="1"/>
        <pt x="420" y="0" on="1"/>
        <pt x="203" y="0" on="1"/>
        <pt x="203" y="528" on="1"/>
        <pt x="10" y="528" on="1"/>
        <pt x="10" y="690" on="1"/>
        <pt x="613" y="690" on="1"/>
      </contour>
      <contour>
        <pt x="216" y="-125" on="1"/>
        <pt x="235" y="-53" on="1"/>
        <pt x="329" y="-38" on="0"/>
        <pt x="414" y="-62" on="0"/>
        <pt x="411" y="-118" on="1"/>
        <pt x="407" y="-201" on="0"/>
        <pt x="275" y="-278" on="0"/>
        <pt x="177" y="-265" on="1"/>
        <pt x="199" y="-187" on="1"/>
        <pt x="239" y="-187" on="0"/>
        <pt x="283" y="-168" on="0"/>
        <pt x="286" y="-136" on="1"/>
        <pt x="287" y="-126" on="0"/>
        <pt x="275" y="-125" on="1"/>
        <pt x="273" y="-125" on="0"/>
      </contour>
    </TTGlyph>
    <TTGlyph name="Thorn" xMin="53" yMin="0" xMax="616" yMax="690">
      <contour>
        <pt x="270" y="578" on="1"/>
        <pt x="337" y="578" on="1"/>
        <pt x="498" y="578" on="0"/>
        <pt x="616" y="480" on="0"/>
        <pt x="616" y="343" on="1"/>
        <pt x="616" y="208" on="0"/>
        <pt x="507" y="110" on="0"/>
        <pt x="367" y="110" on="1"/>
        <pt x="323" y="110" on="0"/>
        <pt x="270" y="115" on="1"/>
        <pt x="270" y="0" on="1"/>
        <pt x="53" y="0" on="1"/>
        <pt x="53" y="690" on="1"/>
        <pt x="270" y="690" on="1"/>
      </contour>
      <contour>
        <pt x="270" y="263" on="1"/>
        <pt x="332" y="263" on="1"/>
        <pt x="372" y="263" on="0"/>
        <pt x="399" y="295" on="0"/>
        <pt x="399" y="343" on="1"/>
        <pt x="399" y="393" on="0"/>
        <pt x="372" y="425" on="0"/>
        <pt x="332" y="425" on="1"/>
        <pt x="270" y="425" on="1"/>
      </contour>
    </TTGlyph>
    <TTGlyph name="U" xMin="47" yMin="-14" xMax="658" yMax="690">
      <contour>
        <pt x="658" y="690" on="1"/>
        <pt x="658" y="285" on="1"/>
        <pt x="658" y="120" on="0"/>
        <pt x="526" y="-14" on="0"/>
        <pt x="364" y="-14" on="1"/>
        <pt x="189" y="-14" on="0"/>
        <pt x="47" y="120" on="0"/>
        <pt x="47" y="285" on="1"/>
        <pt x="47" y="690" on="1"/>
        <pt x="264" y="690" on="1"/>
        <pt x="264" y="285" on="1"/>
        <pt x="264" y="202" on="0"/>
        <pt x="300" y="147" on="0"/>
        <pt x="353" y="147" on="1"/>
        <pt x="405" y="147" on="0"/>
        <pt x="441" y="202" on="0"/>
        <pt x="441" y="285" on="1"/>
        <pt x="441" y="690" on="1"/>
      </contour>
    </TTGlyph>
    <TTGlyph name="Uacute" xMin="47" yMin="-14" xMax="658" yMax="956">
      <contour>
        <pt x="563" y="823" on="1"/>
        <pt x="308" y="720" on="1"/>
        <pt x="251" y="806" on="1"/>
        <pt x="484" y="956" on="1"/>
      </contour>
      <contour>
        <pt x="658" y="690" on="1"/>
        <pt x="658" y="285" on="1"/>
        <pt x="658" y="120" on="0"/>
        <pt x="526" y="-14" on="0"/>
        <pt x="364" y="-14" on="1"/>
        <pt x="189" y="-14" on="0"/>
        <pt x="47" y="120" on="0"/>
        <pt x="47" y="285" on="1"/>
        <pt x="47" y="690" on="1"/>
        <pt x="264" y="690" on="1"/>
        <pt x="264" y="285" on="1"/>
        <pt x="264" y="202" on="0"/>
        <pt x="300" y="147" on="0"/>
        <pt x="353" y="147" on="1"/>
        <pt x="405" y="147" on="0"/>
        <pt x="441" y="202" on="0"/>
        <pt x="441" y="285" on="1"/>
        <pt x="441" y="690" on="1"/>
      </contour>
    </TTGlyph>
    <TTGlyph name="Ucircumflex" xMin="47" yMin="-14" xMax="658" yMax="920">
      <contour>
        <pt x="565" y="779" on="1"/>
        <pt x="517" y="710" on="1"/>
        <pt x="358" y="803" on="1"/>
        <pt x="350" y="803" on="1"/>
        <pt x="188" y="710" on="1"/>
        <pt x="138" y="787" on="1"/>
        <pt x="278" y="920" on="1"/>
        <pt x="430" y="920" on="1"/>
      </contour>
      <contour>
        <pt x="658" y="690" on="1"/>
        <pt x="658" y="285" on="1"/>
        <pt x="658" y="120" on="0"/>
        <pt x="526" y="-14" on="0"/>
        <pt x="364" y="-14" on="1"/>
        <pt x="189" y="-14" on="0"/>
        <pt x="47" y="120" on="0"/>
        <pt x="47" y="285" on="1"/>
        <pt x="47" y="690" on="1"/>
        <pt x="264" y="690" on="1"/>
        <pt x="264" y="285" on="1"/>
        <pt x="264" y="202" on="0"/>
        <pt x="300" y="147" on="0"/>
        <pt x="353" y="147" on="1"/>
        <pt x="405" y="147" on="0"/>
        <pt x="441" y="202" on="0"/>
        <pt x="441" y="285" on="1"/>
        <pt x="441" y="690" on="1"/>
      </contour>
    </TTGlyph>
    <TTGlyph name="Udieresis" xMin="47" yMin="-14" xMax="658" yMax="904">
      <contour>
        <pt x="222" y="904" on="1"/>
        <pt x="291" y="904" on="1"/>
        <pt x="330" y="904" on="0"/>
        <pt x="330" y="865" on="1"/>
        <pt x="330" y="802" on="1"/>
        <pt x="330" y="763" on="0"/>
        <pt x="291" y="763" on="1"/>
        <pt x="222" y="763" on="1"/>
        <pt x="183" y="763" on="0"/>
        <pt x="183" y="802" on="1"/>
        <pt x="183" y="865" on="1"/>
        <pt x="183" y="904" on="0"/>
      </contour>
      <contour>
        <pt x="411" y="904" on="1"/>
        <pt x="480" y="904" on="1"/>
        <pt x="519" y="904" on="0"/>
        <pt x="519" y="865" on="1"/>
        <pt x="519" y="802" on="1"/>
        <pt x="519" y="763" on="0"/>
        <pt x="480" y="763" on="1"/>
        <pt x="411" y="763" on="1"/>
        <pt x="372" y="763" on="0"/>
        <pt x="372" y="802" on="1"/>
        <pt x="372" y="865" on="1"/>
        <pt x="372" y="904" on="0"/>
      </contour>
      <contour>
        <pt x="658" y="690" on="1"/>
        <pt x="658" y="285" on="1"/>
        <pt x="658" y="120" on="0"/>
        <pt x="526" y="-14" on="0"/>
        <pt x="364" y="-14" on="1"/>
        <pt x="189" y="-14" on="0"/>
        <pt x="47" y="120" on="0"/>
        <pt x="47" y="285" on="1"/>
        <pt x="47" y="690" on="1"/>
        <pt x="264" y="690" on="1"/>
        <pt x="264" y="285" on="1"/>
        <pt x="264" y="202" on="0"/>
        <pt x="300" y="147" on="0"/>
        <pt x="353" y="147" on="1"/>
        <pt x="405" y="147" on="0"/>
        <pt x="441" y="202" on="0"/>
        <pt x="441" y="285" on="1"/>
        <pt x="441" y="690" on="1"/>
      </contour>
    </TTGlyph>
    <TTGlyph name="Ugrave" xMin="47" yMin="-14" xMax="658" yMax="956">
      <contour>
        <pt x="453" y="806" on="1"/>
        <pt x="396" y="720" on="1"/>
        <pt x="141" y="823" on="1"/>
        <pt x="220" y="956" on="1"/>
      </contour>
      <contour>
        <pt x="658" y="690" on="1"/>
        <pt x="658" y="285" on="1"/>
        <pt x="658" y="120" on="0"/>
        <pt x="526" y="-14" on="0"/>
        <pt x="364" y="-14" on="1"/>
        <pt x="189" y="-14" on="0"/>
        <pt x="47" y="120" on="0"/>
        <pt x="47" y="285" on="1"/>
        <pt x="47" y="690" on="1"/>
        <pt x="264" y="690" on="1"/>
        <pt x="264" y="285" on="1"/>
        <pt x="264" y="202" on="0"/>
        <pt x="300" y="147" on="0"/>
        <pt x="353" y="147" on="1"/>
        <pt x="405" y="147" on="0"/>
        <pt x="441" y="202" on="0"/>
        <pt x="441" y="285" on="1"/>
        <pt x="441" y="690" on="1"/>
      </contour>
    </TTGlyph>
    <TTGlyph name="Uhungarumlaut" xMin="47" yMin="-14" xMax="658" yMax="968">
      <contour>
        <pt x="402" y="884" on="1"/>
        <pt x="233" y="708" on="1"/>
        <pt x="150" y="775" on="1"/>
        <pt x="273" y="968" on="1"/>
      </contour>
      <contour>
        <pt x="617" y="884" on="1"/>
        <pt x="447" y="708" on="1"/>
        <pt x="365" y="774" on="1"/>
        <pt x="488" y="968" on="1"/>
      </contour>
      <contour>
        <pt x="658" y="690" on="1"/>
        <pt x="658" y="285" on="1"/>
        <pt x="658" y="120" on="0"/>
        <pt x="526" y="-14" on="0"/>
        <pt x="364" y="-14" on="1"/>
        <pt x="189" y="-14" on="0"/>
        <pt x="47" y="120" on="0"/>
        <pt x="47" y="285" on="1"/>
        <pt x="47" y="690" on="1"/>
        <pt x="264" y="690" on="1"/>
        <pt x="264" y="285" on="1"/>
        <pt x="264" y="202" on="0"/>
        <pt x="300" y="147" on="0"/>
        <pt x="353" y="147" on="1"/>
        <pt x="405" y="147" on="0"/>
        <pt x="441" y="202" on="0"/>
        <pt x="441" y="285" on="1"/>
        <pt x="441" y="690" on="1"/>
      </contour>
    </TTGlyph>
    <TTGlyph name="Umacron" xMin="47" yMin="-14" xMax="658" yMax="895">
      <contour>
        <pt x="514" y="772" on="1"/>
        <pt x="194" y="772" on="1"/>
        <pt x="194" y="895" on="1"/>
        <pt x="514" y="895" on="1"/>
      </contour>
      <contour>
        <pt x="658" y="690" on="1"/>
        <pt x="658" y="285" on="1"/>
        <pt x="658" y="120" on="0"/>
        <pt x="526" y="-14" on="0"/>
        <pt x="364" y="-14" on="1"/>
        <pt x="189" y="-14" on="0"/>
        <pt x="47" y="120" on="0"/>
        <pt x="47" y="285" on="1"/>
        <pt x="47" y="690" on="1"/>
        <pt x="264" y="690" on="1"/>
        <pt x="264" y="285" on="1"/>
        <pt x="264" y="202" on="0"/>
        <pt x="300" y="147" on="0"/>
        <pt x="353" y="147" on="1"/>
        <pt x="405" y="147" on="0"/>
        <pt x="441" y="202" on="0"/>
        <pt x="441" y="285" on="1"/>
        <pt x="441" y="690" on="1"/>
      </contour>
    </TTGlyph>
    <TTGlyph name="Uogonek" xMin="47" yMin="-222" xMax="658" yMax="690">
      <contour>
        <pt x="658" y="690" on="1"/>
        <pt x="658" y="285" on="1"/>
        <pt x="658" y="129" on="0"/>
        <pt x="540" y="-7" on="0"/>
        <pt x="398" y="-13" on="1"/>
        <pt x="395" y="-19" on="0"/>
        <pt x="362" y="-78" on="0"/>
        <pt x="353" y="-96" on="1"/>
        <pt x="341" y="-121" on="0"/>
        <pt x="369" y="-134" on="0"/>
        <pt x="401" y="-129" on="1"/>
        <pt x="413" y="-201" on="1"/>
        <pt x="332" y="-231" on="0"/>
        <pt x="237" y="-213" on="0"/>
        <pt x="202" y="-152" on="0"/>
        <pt x="215" y="-114" on="1"/>
        <pt x="231" y="-62" on="0"/>
        <pt x="311" y="-12" on="1"/>
        <pt x="167" y="-3" on="0"/>
        <pt x="47" y="133" on="0"/>
        <pt x="47" y="285" on="1"/>
        <pt x="47" y="690" on="1"/>
        <pt x="264" y="690" on="1"/>
        <pt x="264" y="285" on="1"/>
        <pt x="264" y="202" on="0"/>
        <pt x="300" y="147" on="0"/>
        <pt x="353" y="147" on="1"/>
        <pt x="405" y="147" on="0"/>
        <pt x="441" y="202" on="0"/>
        <pt x="441" y="285" on="1"/>
        <pt x="441" y="690" on="1"/>
      </contour>
    </TTGlyph>
    <TTGlyph name="Uring" xMin="47" yMin="-14" xMax="658" yMax="963">
      <contour>
        <pt x="300" y="963" on="0"/>
        <pt x="406" y="963" on="0"/>
        <pt x="482" y="890" on="0"/>
        <pt x="482" y="786" on="0"/>
        <pt x="406" y="713" on="0"/>
        <pt x="300" y="713" on="0"/>
        <pt x="224" y="786" on="0"/>
        <pt x="224" y="890" on="0"/>
      </contour>
      <contour>
        <pt x="371" y="883" on="0"/>
        <pt x="335" y="883" on="0"/>
        <pt x="309" y="856" on="0"/>
        <pt x="309" y="838" on="1"/>
        <pt x="309" y="819" on="0"/>
        <pt x="335" y="793" on="0"/>
        <pt x="371" y="793" on="0"/>
        <pt x="397" y="819" on="0"/>
        <pt x="397" y="838" on="1"/>
        <pt x="397" y="856" on="0"/>
      </contour>
      <contour>
        <pt x="658" y="690" on="1"/>
        <pt x="658" y="285" on="1"/>
        <pt x="658" y="120" on="0"/>
        <pt x="526" y="-14" on="0"/>
        <pt x="364" y="-14" on="1"/>
        <pt x="189" y="-14" on="0"/>
        <pt x="47" y="120" on="0"/>
        <pt x="47" y="285" on="1"/>
        <pt x="47" y="690" on="1"/>
        <pt x="264" y="690" on="1"/>
        <pt x="264" y="285" on="1"/>
        <pt x="264" y="202" on="0"/>
        <pt x="300" y="147" on="0"/>
        <pt x="353" y="147" on="1"/>
        <pt x="405" y="147" on="0"/>
        <pt x="441" y="202" on="0"/>
        <pt x="441" y="285" on="1"/>
        <pt x="441" y="690" on="1"/>
      </contour>
    </TTGlyph>
    <TTGlyph name="V" xMin="-2" yMin="0" xMax="672" yMax="690">
      <contour>
        <pt x="672" y="690" on="1"/>
        <pt x="504" y="58" on="1"/>
        <pt x="498" y="32" on="0"/>
        <pt x="458" y="0" on="0"/>
        <pt x="430" y="0" on="1"/>
        <pt x="240" y="0" on="1"/>
        <pt x="212" y="0" on="0"/>
        <pt x="172" y="32" on="0"/>
        <pt x="166" y="58" on="1"/>
        <pt x="-2" y="690" on="1"/>
        <pt x="221" y="690" on="1"/>
        <pt x="310" y="241" on="1"/>
        <pt x="312" y="232" on="0"/>
        <pt x="323" y="162" on="1"/>
        <pt x="347" y="162" on="1"/>
        <pt x="351" y="197" on="0"/>
        <pt x="360" y="241" on="1"/>
        <pt x="449" y="690" on="1"/>
      </contour>
    </TTGlyph>
    <TTGlyph name="W" xMin="20" yMin="0" xMax="983" yMax="690">
      <contour>
        <pt x="983" y="690" on="1"/>
        <pt x="897" y="58" on="1"/>
        <pt x="893" y="32" on="0"/>
        <pt x="851" y="0" on="0"/>
        <pt x="823" y="0" on="1"/>
        <pt x="639" y="0" on="1"/>
        <pt x="611" y="0" on="0"/>
        <pt x="568" y="32" on="0"/>
        <pt x="565" y="58" on="1"/>
        <pt x="518" y="439" on="1"/>
        <pt x="514" y="470" on="0"/>
        <pt x="510" y="540" on="1"/>
        <pt x="493" y="540" on="1"/>
        <pt x="489" y="470" on="0"/>
        <pt x="485" y="438" on="1"/>
        <pt x="439" y="58" on="1"/>
        <pt x="436" y="32" on="0"/>
        <pt x="393" y="0" on="0"/>
        <pt x="365" y="0" on="1"/>
        <pt x="180" y="0" on="1"/>
        <pt x="152" y="0" on="0"/>
        <pt x="110" y="32" on="0"/>
        <pt x="106" y="58" on="1"/>
        <pt x="20" y="690" on="1"/>
        <pt x="234" y="690" on="1"/>
        <pt x="269" y="267" on="1"/>
        <pt x="273" y="199" on="0"/>
        <pt x="273" y="152" on="1"/>
        <pt x="289" y="152" on="1"/>
        <pt x="303" y="250" on="0"/>
        <pt x="305" y="268" on="1"/>
        <pt x="351" y="626" on="1"/>
        <pt x="354" y="654" on="0"/>
        <pt x="395" y="690" on="0"/>
        <pt x="424" y="690" on="1"/>
        <pt x="579" y="690" on="1"/>
        <pt x="608" y="690" on="0"/>
        <pt x="648" y="655" on="0"/>
        <pt x="652" y="626" on="1"/>
        <pt x="699" y="266" on="1"/>
        <pt x="702" y="236" on="0"/>
        <pt x="714" y="152" on="1"/>
        <pt x="730" y="152" on="1"/>
        <pt x="730" y="180" on="0"/>
        <pt x="735" y="265" on="1"/>
        <pt x="769" y="690" on="1"/>
      </contour>
    </TTGlyph>
    <TTGlyph name="Wacute" xMin="20" yMin="0" xMax="983" yMax="956">
      <contour>
        <pt x="712" y="823" on="1"/>
        <pt x="457" y="720" on="1"/>
        <pt x="400" y="806" on="1"/>
        <pt x="633" y="956" on="1"/>
      </contour>
      <contour>
        <pt x="983" y="690" on="1"/>
        <pt x="897" y="58" on="1"/>
        <pt x="893" y="32" on="0"/>
        <pt x="851" y="0" on="0"/>
        <pt x="823" y="0" on="1"/>
        <pt x="639" y="0" on="1"/>
        <pt x="611" y="0" on="0"/>
        <pt x="568" y="32" on="0"/>
        <pt x="565" y="58" on="1"/>
        <pt x="518" y="439" on="1"/>
        <pt x="514" y="470" on="0"/>
        <pt x="510" y="540" on="1"/>
        <pt x="493" y="540" on="1"/>
        <pt x="489" y="470" on="0"/>
        <pt x="485" y="438" on="1"/>
        <pt x="439" y="58" on="1"/>
        <pt x="436" y="32" on="0"/>
        <pt x="393" y="0" on="0"/>
        <pt x="365" y="0" on="1"/>
        <pt x="180" y="0" on="1"/>
        <pt x="152" y="0" on="0"/>
        <pt x="110" y="32" on="0"/>
        <pt x="106" y="58" on="1"/>
        <pt x="20" y="690" on="1"/>
        <pt x="234" y="690" on="1"/>
        <pt x="269" y="267" on="1"/>
        <pt x="273" y="199" on="0"/>
        <pt x="273" y="152" on="1"/>
        <pt x="289" y="152" on="1"/>
        <pt x="303" y="250" on="0"/>
        <pt x="305" y="268" on="1"/>
        <pt x="351" y="626" on="1"/>
        <pt x="354" y="654" on="0"/>
        <pt x="395" y="690" on="0"/>
        <pt x="424" y="690" on="1"/>
        <pt x="579" y="690" on="1"/>
        <pt x="608" y="690" on="0"/>
        <pt x="648" y="655" on="0"/>
        <pt x="652" y="626" on="1"/>
        <pt x="699" y="266" on="1"/>
        <pt x="702" y="236" on="0"/>
        <pt x="714" y="152" on="1"/>
        <pt x="730" y="152" on="1"/>
        <pt x="730" y="180" on="0"/>
        <pt x="735" y="265" on="1"/>
        <pt x="769" y="690" on="1"/>
      </contour>
    </TTGlyph>
    <TTGlyph name="Wcircumflex" xMin="20" yMin="0" xMax="983" yMax="920">
      <contour>
        <pt x="714" y="779" on="1"/>
        <pt x="666" y="710" on="1"/>
        <pt x="507" y="803" on="1"/>
        <pt x="499" y="803" on="1"/>
        <pt x="337" y="710" on="1"/>
        <pt x="287" y="787" on="1"/>
        <pt x="427" y="920" on="1"/>
        <pt x="579" y="920" on="1"/>
      </contour>
      <contour>
        <pt x="983" y="690" on="1"/>
        <pt x="897" y="58" on="1"/>
        <pt x="893" y="32" on="0"/>
        <pt x="851" y="0" on="0"/>
        <pt x="823" y="0" on="1"/>
        <pt x="639" y="0" on="1"/>
        <pt x="611" y="0" on="0"/>
        <pt x="568" y="32" on="0"/>
        <pt x="565" y="58" on="1"/>
        <pt x="518" y="439" on="1"/>
        <pt x="514" y="470" on="0"/>
        <pt x="510" y="540" on="1"/>
        <pt x="493" y="540" on="1"/>
        <pt x="489" y="470" on="0"/>
        <pt x="485" y="438" on="1"/>
        <pt x="439" y="58" on="1"/>
        <pt x="436" y="32" on="0"/>
        <pt x="393" y="0" on="0"/>
        <pt x="365" y="0" on="1"/>
        <pt x="180" y="0" on="1"/>
        <pt x="152" y="0" on="0"/>
        <pt x="110" y="32" on="0"/>
        <pt x="106" y="58" on="1"/>
        <pt x="20" y="690" on="1"/>
        <pt x="234" y="690" on="1"/>
        <pt x="269" y="267" on="1"/>
        <pt x="273" y="199" on="0"/>
        <pt x="273" y="152" on="1"/>
        <pt x="289" y="152" on="1"/>
        <pt x="303" y="250" on="0"/>
        <pt x="305" y="268" on="1"/>
        <pt x="351" y="626" on="1"/>
        <pt x="354" y="654" on="0"/>
        <pt x="395" y="690" on="0"/>
        <pt x="424" y="690" on="1"/>
        <pt x="579" y="690" on="1"/>
        <pt x="608" y="690" on="0"/>
        <pt x="648" y="655" on="0"/>
        <pt x="652" y="626" on="1"/>
        <pt x="699" y="266" on="1"/>
        <pt x="702" y="236" on="0"/>
        <pt x="714" y="152" on="1"/>
        <pt x="730" y="152" on="1"/>
        <pt x="730" y="180" on="0"/>
        <pt x="735" y="265" on="1"/>
        <pt x="769" y="690" on="1"/>
      </contour>
    </TTGlyph>
    <TTGlyph name="Wdieresis" xMin="20" yMin="0" xMax="983" yMax="904">
      <contour>
        <pt x="371" y="904" on="1"/>
        <pt x="440" y="904" on="1"/>
        <pt x="479" y="904" on="0"/>
        <pt x="479" y="865" on="1"/>
        <pt x="479" y="802" on="1"/>
        <pt x="479" y="763" on="0"/>
        <pt x="440" y="763" on="1"/>
        <pt x="371" y="763" on="1"/>
        <pt x="332" y="763" on="0"/>
        <pt x="332" y="802" on="1"/>
        <pt x="332" y="865" on="1"/>
        <pt x="332" y="904" on="0"/>
      </contour>
      <contour>
        <pt x="560" y="904" on="1"/>
        <pt x="629" y="904" on="1"/>
        <pt x="668" y="904" on="0"/>
        <pt x="668" y="865" on="1"/>
        <pt x="668" y="802" on="1"/>
        <pt x="668" y="763" on="0"/>
        <pt x="629" y="763" on="1"/>
        <pt x="560" y="763" on="1"/>
        <pt x="521" y="763" on="0"/>
        <pt x="521" y="802" on="1"/>
        <pt x="521" y="865" on="1"/>
        <pt x="521" y="904" on="0"/>
      </contour>
      <contour>
        <pt x="983" y="690" on="1"/>
        <pt x="897" y="58" on="1"/>
        <pt x="893" y="32" on="0"/>
        <pt x="851" y="0" on="0"/>
        <pt x="823" y="0" on="1"/>
        <pt x="639" y="0" on="1"/>
        <pt x="611" y="0" on="0"/>
        <pt x="568" y="32" on="0"/>
        <pt x="565" y="58" on="1"/>
        <pt x="518" y="439" on="1"/>
        <pt x="514" y="470" on="0"/>
        <pt x="510" y="540" on="1"/>
        <pt x="493" y="540" on="1"/>
        <pt x="489" y="470" on="0"/>
        <pt x="485" y="438" on="1"/>
        <pt x="439" y="58" on="1"/>
        <pt x="436" y="32" on="0"/>
        <pt x="393" y="0" on="0"/>
        <pt x="365" y="0" on="1"/>
        <pt x="180" y="0" on="1"/>
        <pt x="152" y="0" on="0"/>
        <pt x="110" y="32" on="0"/>
        <pt x="106" y="58" on="1"/>
        <pt x="20" y="690" on="1"/>
        <pt x="234" y="690" on="1"/>
        <pt x="269" y="267" on="1"/>
        <pt x="273" y="199" on="0"/>
        <pt x="273" y="152" on="1"/>
        <pt x="289" y="152" on="1"/>
        <pt x="303" y="250" on="0"/>
        <pt x="305" y="268" on="1"/>
        <pt x="351" y="626" on="1"/>
        <pt x="354" y="654" on="0"/>
        <pt x="395" y="690" on="0"/>
        <pt x="424" y="690" on="1"/>
        <pt x="579" y="690" on="1"/>
        <pt x="608" y="690" on="0"/>
        <pt x="648" y="655" on="0"/>
        <pt x="652" y="626" on="1"/>
        <pt x="699" y="266" on="1"/>
        <pt x="702" y="236" on="0"/>
        <pt x="714" y="152" on="1"/>
        <pt x="730" y="152" on="1"/>
        <pt x="730" y="180" on="0"/>
        <pt x="735" y="265" on="1"/>
        <pt x="769" y="690" on="1"/>
      </contour>
    </TTGlyph>
    <TTGlyph name="Wgrave" xMin="20" yMin="0" xMax="983" yMax="956">
      <contour>
        <pt x="602" y="806" on="1"/>
        <pt x="545" y="720" on="1"/>
        <pt x="290" y="823" on="1"/>
        <pt x="369" y="956" on="1"/>
      </contour>
      <contour>
        <pt x="983" y="690" on="1"/>
        <pt x="897" y="58" on="1"/>
        <pt x="893" y="32" on="0"/>
        <pt x="851" y="0" on="0"/>
        <pt x="823" y="0" on="1"/>
        <pt x="639" y="0" on="1"/>
        <pt x="611" y="0" on="0"/>
        <pt x="568" y="32" on="0"/>
        <pt x="565" y="58" on="1"/>
        <pt x="518" y="439" on="1"/>
        <pt x="514" y="470" on="0"/>
        <pt x="510" y="540" on="1"/>
        <pt x="493" y="540" on="1"/>
        <pt x="489" y="470" on="0"/>
        <pt x="485" y="438" on="1"/>
        <pt x="439" y="58" on="1"/>
        <pt x="436" y="32" on="0"/>
        <pt x="393" y="0" on="0"/>
        <pt x="365" y="0" on="1"/>
        <pt x="180" y="0" on="1"/>
        <pt x="152" y="0" on="0"/>
        <pt x="110" y="32" on="0"/>
        <pt x="106" y="58" on="1"/>
        <pt x="20" y="690" on="1"/>
        <pt x="234" y="690" on="1"/>
        <pt x="269" y="267" on="1"/>
        <pt x="273" y="199" on="0"/>
        <pt x="273" y="152" on="1"/>
        <pt x="289" y="152" on="1"/>
        <pt x="303" y="250" on="0"/>
        <pt x="305" y="268" on="1"/>
        <pt x="351" y="626" on="1"/>
        <pt x="354" y="654" on="0"/>
        <pt x="395" y="690" on="0"/>
        <pt x="424" y="690" on="1"/>
        <pt x="579" y="690" on="1"/>
        <pt x="608" y="690" on="0"/>
        <pt x="648" y="655" on="0"/>
        <pt x="652" y="626" on="1"/>
        <pt x="699" y="266" on="1"/>
        <pt x="702" y="236" on="0"/>
        <pt x="714" y="152" on="1"/>
        <pt x="730" y="152" on="1"/>
        <pt x="730" y="180" on="0"/>
        <pt x="735" y="265" on="1"/>
        <pt x="769" y="690" on="1"/>
      </contour>
    </TTGlyph>
    <TTGlyph name="X" xMin="-5" yMin="0" xMax="682" yMax="690">
      <contour>
        <pt x="467" y="0" on="1"/>
        <pt x="339" y="290" on="1"/>
        <pt x="210" y="0" on="1"/>
        <pt x="-5" y="0" on="1"/>
        <pt x="166" y="352" on="1"/>
        <pt x="9" y="690" on="1"/>
        <pt x="223" y="690" on="1"/>
        <pt x="339" y="417" on="1"/>
        <pt x="454" y="690" on="1"/>
        <pt x="668" y="690" on="1"/>
        <pt x="511" y="352" on="1"/>
        <pt x="682" y="0" on="1"/>
      </contour>
    </TTGlyph>
    <TTGlyph name="Y" xMin="-10" yMin="0" xMax="664" yMax="690">
      <contour>
        <pt x="436" y="215" on="1"/>
        <pt x="436" y="0" on="1"/>
        <pt x="219" y="0" on="1"/>
        <pt x="219" y="213" on="1"/>
        <pt x="-10" y="690" on="1"/>
        <pt x="213" y="690" on="1"/>
        <pt x="300" y="473" on="1"/>
        <pt x="309" y="451" on="0"/>
        <pt x="321" y="376" on="1"/>
        <pt x="334" y="376" on="1"/>
        <pt x="346" y="449" on="0"/>
        <pt x="355" y="474" on="1"/>
        <pt x="441" y="690" on="1"/>
        <pt x="664" y="690" on="1"/>
      </contour>
    </TTGlyph>
    <TTGlyph name="Yacute" xMin="-10" yMin="0" xMax="664" yMax="956">
      <contour>
        <pt x="282" y="720" on="1"/>
        <pt x="225" y="806" on="1"/>
        <pt x="458" y="956" on="1"/>
        <pt x="537" y="823" on="1"/>
      </contour>
      <contour>
        <pt x="436" y="215" on="1"/>
        <pt x="436" y="0" on="1"/>
        <pt x="219" y="0" on="1"/>
        <pt x="219" y="213" on="1"/>
        <pt x="-10" y="690" on="1"/>
        <pt x="213" y="690" on="1"/>
        <pt x="300" y="473" on="1"/>
        <pt x="309" y="451" on="0"/>
        <pt x="321" y="376" on="1"/>
        <pt x="334" y="376" on="1"/>
        <pt x="346" y="449" on="0"/>
        <pt x="355" y="474" on="1"/>
        <pt x="441" y="690" on="1"/>
        <pt x="664" y="690" on="1"/>
      </contour>
    </TTGlyph>
    <TTGlyph name="Ycircumflex" xMin="-10" yMin="0" xMax="664" yMax="920">
      <contour>
        <pt x="162" y="710" on="1"/>
        <pt x="112" y="787" on="1"/>
        <pt x="252" y="920" on="1"/>
        <pt x="404" y="920" on="1"/>
        <pt x="539" y="779" on="1"/>
        <pt x="491" y="710" on="1"/>
        <pt x="332" y="803" on="1"/>
        <pt x="324" y="803" on="1"/>
      </contour>
      <contour>
        <pt x="436" y="215" on="1"/>
        <pt x="436" y="0" on="1"/>
        <pt x="219" y="0" on="1"/>
        <pt x="219" y="213" on="1"/>
        <pt x="-10" y="690" on="1"/>
        <pt x="213" y="690" on="1"/>
        <pt x="300" y="473" on="1"/>
        <pt x="309" y="451" on="0"/>
        <pt x="321" y="376" on="1"/>
        <pt x="334" y="376" on="1"/>
        <pt x="346" y="449" on="0"/>
        <pt x="355" y="474" on="1"/>
        <pt x="441" y="690" on="1"/>
        <pt x="664" y="690" on="1"/>
      </contour>
    </TTGlyph>
    <TTGlyph name="Ydieresis" xMin="-10" yMin="0" xMax="664" yMax="904">
      <contour>
        <pt x="265" y="763" on="1"/>
        <pt x="196" y="763" on="1"/>
        <pt x="157" y="763" on="0"/>
        <pt x="157" y="802" on="1"/>
        <pt x="157" y="865" on="1"/>
        <pt x="157" y="904" on="0"/>
        <pt x="196" y="904" on="1"/>
        <pt x="265" y="904" on="1"/>
        <pt x="304" y="904" on="0"/>
        <pt x="304" y="865" on="1"/>
        <pt x="304" y="802" on="1"/>
        <pt x="304" y="763" on="0"/>
      </contour>
      <contour>
        <pt x="454" y="763" on="1"/>
        <pt x="385" y="763" on="1"/>
        <pt x="346" y="763" on="0"/>
        <pt x="346" y="802" on="1"/>
        <pt x="346" y="865" on="1"/>
        <pt x="346" y="904" on="0"/>
        <pt x="385" y="904" on="1"/>
        <pt x="454" y="904" on="1"/>
        <pt x="493" y="904" on="0"/>
        <pt x="493" y="865" on="1"/>
        <pt x="493" y="802" on="1"/>
        <pt x="493" y="763" on="0"/>
      </contour>
      <contour>
        <pt x="436" y="215" on="1"/>
        <pt x="436" y="0" on="1"/>
        <pt x="219" y="0" on="1"/>
        <pt x="219" y="213" on="1"/>
        <pt x="-10" y="690" on="1"/>
        <pt x="213" y="690" on="1"/>
        <pt x="300" y="473" on="1"/>
        <pt x="309" y="451" on="0"/>
        <pt x="321" y="376" on="1"/>
        <pt x="334" y="376" on="1"/>
        <pt x="346" y="449" on="0"/>
        <pt x="355" y="474" on="1"/>
        <pt x="441" y="690" on="1"/>
        <pt x="664" y="690" on="1"/>
      </contour>
    </TTGlyph>
    <TTGlyph name="Ygrave" xMin="-10" yMin="0" xMax="664" yMax="956">
      <contour>
        <pt x="370" y="720" on="1"/>
        <pt x="115" y="823" on="1"/>
        <pt x="194" y="956" on="1"/>
        <pt x="427" y="806" on="1"/>
      </contour>
      <contour>
        <pt x="436" y="215" on="1"/>
        <pt x="436" y="0" on="1"/>
        <pt x="219" y="0" on="1"/>
        <pt x="219" y="213" on="1"/>
        <pt x="-10" y="690" on="1"/>
        <pt x="213" y="690" on="1"/>
        <pt x="300" y="473" on="1"/>
        <pt x="309" y="451" on="0"/>
        <pt x="321" y="376" on="1"/>
        <pt x="334" y="376" on="1"/>
        <pt x="346" y="449" on="0"/>
        <pt x="355" y="474" on="1"/>
        <pt x="441" y="690" on="1"/>
        <pt x="664" y="690" on="1"/>
      </contour>
    </TTGlyph>
    <TTGlyph name="Z" xMin="29" yMin="0" xMax="577" yMax="690">
      <contour>
        <pt x="577" y="152" on="1"/>
        <pt x="577" y="0" on="1"/>
        <pt x="29" y="0" on="1"/>
        <pt x="29" y="152" on="1"/>
        <pt x="327" y="538" on="1"/>
        <pt x="39" y="538" on="1"/>
        <pt x="39" y="690" on="1"/>
        <pt x="567" y="690" on="1"/>
        <pt x="567" y="538" on="1"/>
        <pt x="269" y="152" on="1"/>
      </contour>
    </TTGlyph>
    <TTGlyph name="Zacute" xMin="29" yMin="0" xMax="577" yMax="956">
      <contour>
        <pt x="264" y="720" on="1"/>
        <pt x="207" y="806" on="1"/>
        <pt x="440" y="956" on="1"/>
        <pt x="519" y="823" on="1"/>
      </contour>
      <contour>
        <pt x="577" y="152" on="1"/>
        <pt x="577" y="0" on="1"/>
        <pt x="29" y="0" on="1"/>
        <pt x="29" y="152" on="1"/>
        <pt x="327" y="538" on="1"/>
        <pt x="39" y="538" on="1"/>
        <pt x="39" y="690" on="1"/>
        <pt x="567" y="690" on="1"/>
        <pt x="567" y="538" on="1"/>
        <pt x="269" y="152" on="1"/>
      </contour>
    </TTGlyph>
    <TTGlyph name="Zcaron" xMin="29" yMin="0" xMax="577" yMax="944">
      <contour>
        <pt x="268" y="736" on="1"/>
        <pt x="104" y="867" on="1"/>
        <pt x="154" y="944" on="1"/>
        <pt x="305" y="868" on="1"/>
        <pt x="313" y="868" on="1"/>
        <pt x="465" y="944" on="1"/>
        <pt x="513" y="867" on="1"/>
        <pt x="350" y="736" on="1"/>
      </contour>
      <contour>
        <pt x="577" y="152" on="1"/>
        <pt x="577" y="0" on="1"/>
        <pt x="29" y="0" on="1"/>
        <pt x="29" y="152" on="1"/>
        <pt x="327" y="538" on="1"/>
        <pt x="39" y="538" on="1"/>
        <pt x="39" y="690" on="1"/>
        <pt x="567" y="690" on="1"/>
        <pt x="567" y="538" on="1"/>
        <pt x="269" y="152" on="1"/>
      </contour>
    </TTGlyph>
    <TTGlyph name="Zdotaccent" xMin="29" yMin="0" xMax="577" yMax="913">
      <contour>
        <pt x="341" y="752" on="1"/>
        <pt x="278" y="752" on="1"/>
        <pt x="219" y="752" on="0"/>
        <pt x="219" y="809" on="1"/>
        <pt x="219" y="856" on="1"/>
        <pt x="219" y="913" on="0"/>
        <pt x="278" y="913" on="1"/>
        <pt x="341" y="913" on="1"/>
        <pt x="400" y="913" on="0"/>
        <pt x="400" y="856" on="1"/>
        <pt x="400" y="809" on="1"/>
        <pt x="400" y="752" on="0"/>
      </contour>
      <contour>
        <pt x="577" y="152" on="1"/>
        <pt x="577" y="0" on="1"/>
        <pt x="29" y="0" on="1"/>
        <pt x="29" y="152" on="1"/>
        <pt x="327" y="538" on="1"/>
        <pt x="39" y="538" on="1"/>
        <pt x="39" y="690" on="1"/>
        <pt x="567" y="690" on="1"/>
        <pt x="567" y="538" on="1"/>
        <pt x="269" y="152" on="1"/>
      </contour>
    </TTGlyph>
    <TTGlyph name="a" xMin="21" yMin="-14" xMax="552" yMax="514">
      <contour>
        <pt x="67" y="356" on="1"/>
        <pt x="48" y="489" on="1"/>
        <pt x="184" y="514" on="0"/>
        <pt x="333" y="514" on="1"/>
        <pt x="444" y="514" on="0"/>
        <pt x="552" y="422" on="0"/>
        <pt x="552" y="310" on="1"/>
        <pt x="552" y="0" on="1"/>
        <pt x="385" y="0" on="1"/>
        <pt x="366" y="70" on="1"/>
        <pt x="300" y="-14" on="0"/>
        <pt x="193" y="-14" on="1"/>
        <pt x="119" y="-14" on="0"/>
        <pt x="21" y="60" on="0"/>
        <pt x="21" y="128" on="1"/>
        <pt x="21" y="178" on="1"/>
        <pt x="21" y="238" on="0"/>
        <pt x="109" y="307" on="0"/>
        <pt x="186" y="307" on="1"/>
        <pt x="342" y="307" on="1"/>
        <pt x="342" y="311" on="1"/>
        <pt x="341" y="338" on="0"/>
        <pt x="315" y="361" on="0"/>
        <pt x="283" y="361" on="1"/>
        <pt x="173" y="361" on="0"/>
      </contour>
      <contour>
        <pt x="225" y="175" on="1"/>
        <pt x="225" y="159" on="1"/>
        <pt x="225" y="128" on="0"/>
        <pt x="267" y="128" on="1"/>
        <pt x="300" y="128" on="0"/>
        <pt x="342" y="153" on="1"/>
        <pt x="342" y="206" on="1"/>
        <pt x="263" y="206" on="1"/>
        <pt x="225" y="206" on="0"/>
      </contour>
    </TTGlyph>
    <TTGlyph name="aacute" xMin="21" yMin="-14" xMax="552" yMax="768">
      <contour>
        <pt x="258" y="532" on="1"/>
        <pt x="201" y="618" on="1"/>
        <pt x="434" y="768" on="1"/>
        <pt x="513" y="635" on="1"/>
      </contour>
      <contour>
        <pt x="67" y="356" on="1"/>
        <pt x="48" y="489" on="1"/>
        <pt x="184" y="514" on="0"/>
        <pt x="333" y="514" on="1"/>
        <pt x="444" y="514" on="0"/>
        <pt x="552" y="422" on="0"/>
        <pt x="552" y="310" on="1"/>
        <pt x="552" y="0" on="1"/>
        <pt x="385" y="0" on="1"/>
        <pt x="366" y="70" on="1"/>
        <pt x="300" y="-14" on="0"/>
        <pt x="193" y="-14" on="1"/>
        <pt x="119" y="-14" on="0"/>
        <pt x="21" y="60" on="0"/>
        <pt x="21" y="128" on="1"/>
        <pt x="21" y="178" on="1"/>
        <pt x="21" y="238" on="0"/>
        <pt x="109" y="307" on="0"/>
        <pt x="186" y="307" on="1"/>
        <pt x="342" y="307" on="1"/>
        <pt x="342" y="311" on="1"/>
        <pt x="341" y="338" on="0"/>
        <pt x="315" y="361" on="0"/>
        <pt x="283" y="361" on="1"/>
        <pt x="173" y="361" on="0"/>
      </contour>
      <contour>
        <pt x="225" y="175" on="1"/>
        <pt x="225" y="159" on="1"/>
        <pt x="225" y="128" on="0"/>
        <pt x="267" y="128" on="1"/>
        <pt x="300" y="128" on="0"/>
        <pt x="342" y="153" on="1"/>
        <pt x="342" y="206" on="1"/>
        <pt x="263" y="206" on="1"/>
        <pt x="225" y="206" on="0"/>
      </contour>
    </TTGlyph>
    <TTGlyph name="abreve" xMin="21" yMin="-14" xMax="552" yMax="734">
      <contour>
        <pt x="384" y="734" on="1"/>
        <pt x="481" y="721" on="1"/>
        <pt x="493" y="652" on="0"/>
        <pt x="393" y="549" on="0"/>
        <pt x="213" y="549" on="0"/>
        <pt x="112" y="652" on="0"/>
        <pt x="124" y="721" on="1"/>
        <pt x="221" y="734" on="1"/>
        <pt x="221" y="702" on="0"/>
        <pt x="258" y="675" on="0"/>
        <pt x="303" y="675" on="1"/>
        <pt x="347" y="675" on="0"/>
        <pt x="384" y="702" on="0"/>
      </contour>
      <contour>
        <pt x="67" y="356" on="1"/>
        <pt x="48" y="489" on="1"/>
        <pt x="184" y="514" on="0"/>
        <pt x="333" y="514" on="1"/>
        <pt x="444" y="514" on="0"/>
        <pt x="552" y="422" on="0"/>
        <pt x="552" y="310" on="1"/>
        <pt x="552" y="0" on="1"/>
        <pt x="385" y="0" on="1"/>
        <pt x="366" y="70" on="1"/>
        <pt x="300" y="-14" on="0"/>
        <pt x="193" y="-14" on="1"/>
        <pt x="119" y="-14" on="0"/>
        <pt x="21" y="60" on="0"/>
        <pt x="21" y="128" on="1"/>
        <pt x="21" y="178" on="1"/>
        <pt x="21" y="238" on="0"/>
        <pt x="109" y="307" on="0"/>
        <pt x="186" y="307" on="1"/>
        <pt x="342" y="307" on="1"/>
        <pt x="342" y="311" on="1"/>
        <pt x="341" y="338" on="0"/>
        <pt x="315" y="361" on="0"/>
        <pt x="283" y="361" on="1"/>
        <pt x="173" y="361" on="0"/>
      </contour>
      <contour>
        <pt x="225" y="175" on="1"/>
        <pt x="225" y="159" on="1"/>
        <pt x="225" y="128" on="0"/>
        <pt x="267" y="128" on="1"/>
        <pt x="300" y="128" on="0"/>
        <pt x="342" y="153" on="1"/>
        <pt x="342" y="206" on="1"/>
        <pt x="263" y="206" on="1"/>
        <pt x="225" y="206" on="0"/>
      </contour>
    </TTGlyph>
    <TTGlyph name="acircumflex" xMin="21" yMin="-14" xMax="552" yMax="732">
      <contour>
        <pt x="138" y="522" on="1"/>
        <pt x="88" y="599" on="1"/>
        <pt x="228" y="732" on="1"/>
        <pt x="380" y="732" on="1"/>
        <pt x="515" y="591" on="1"/>
        <pt x="467" y="522" on="1"/>
        <pt x="308" y="615" on="1"/>
        <pt x="300" y="615" on="1"/>
      </contour>
      <contour>
        <pt x="67" y="356" on="1"/>
        <pt x="48" y="489" on="1"/>
        <pt x="184" y="514" on="0"/>
        <pt x="333" y="514" on="1"/>
        <pt x="444" y="514" on="0"/>
        <pt x="552" y="422" on="0"/>
        <pt x="552" y="310" on="1"/>
        <pt x="552" y="0" on="1"/>
        <pt x="385" y="0" on="1"/>
        <pt x="366" y="70" on="1"/>
        <pt x="300" y="-14" on="0"/>
        <pt x="193" y="-14" on="1"/>
        <pt x="119" y="-14" on="0"/>
        <pt x="21" y="60" on="0"/>
        <pt x="21" y="128" on="1"/>
        <pt x="21" y="178" on="1"/>
        <pt x="21" y="238" on="0"/>
        <pt x="109" y="307" on="0"/>
        <pt x="186" y="307" on="1"/>
        <pt x="342" y="307" on="1"/>
        <pt x="342" y="311" on="1"/>
        <pt x="341" y="338" on="0"/>
        <pt x="315" y="361" on="0"/>
        <pt x="283" y="361" on="1"/>
        <pt x="173" y="361" on="0"/>
      </contour>
      <contour>
        <pt x="225" y="175" on="1"/>
        <pt x="225" y="159" on="1"/>
        <pt x="225" y="128" on="0"/>
        <pt x="267" y="128" on="1"/>
        <pt x="300" y="128" on="0"/>
        <pt x="342" y="153" on="1"/>
        <pt x="342" y="206" on="1"/>
        <pt x="263" y="206" on="1"/>
        <pt x="225" y="206" on="0"/>
      </contour>
    </TTGlyph>
    <TTGlyph name="acute" xMin="40" yMin="511" xMax="352" yMax="747">
      <contour>
        <pt x="352" y="614" on="1"/>
        <pt x="97" y="511" on="1"/>
        <pt x="40" y="597" on="1"/>
        <pt x="273" y="747" on="1"/>
      </contour>
    </TTGlyph>
    <TTGlyph name="adieresis" xMin="21" yMin="-14" xMax="552" yMax="716">
      <contour>
        <pt x="241" y="575" on="1"/>
        <pt x="172" y="575" on="1"/>
        <pt x="133" y="575" on="0"/>
        <pt x="133" y="614" on="1"/>
        <pt x="133" y="677" on="1"/>
        <pt x="133" y="716" on="0"/>
        <pt x="172" y="716" on="1"/>
        <pt x="241" y="716" on="1"/>
        <pt x="280" y="716" on="0"/>
        <pt x="280" y="677" on="1"/>
        <pt x="280" y="614" on="1"/>
        <pt x="280" y="575" on="0"/>
      </contour>
      <contour>
        <pt x="430" y="575" on="1"/>
        <pt x="361" y="575" on="1"/>
        <pt x="322" y="575" on="0"/>
        <pt x="322" y="614" on="1"/>
        <pt x="322" y="677" on="1"/>
        <pt x="322" y="716" on="0"/>
        <pt x="361" y="716" on="1"/>
        <pt x="430" y="716" on="1"/>
        <pt x="469" y="716" on="0"/>
        <pt x="469" y="677" on="1"/>
        <pt x="469" y="614" on="1"/>
        <pt x="469" y="575" on="0"/>
      </contour>
      <contour>
        <pt x="67" y="356" on="1"/>
        <pt x="48" y="489" on="1"/>
        <pt x="184" y="514" on="0"/>
        <pt x="333" y="514" on="1"/>
        <pt x="444" y="514" on="0"/>
        <pt x="552" y="422" on="0"/>
        <pt x="552" y="310" on="1"/>
        <pt x="552" y="0" on="1"/>
        <pt x="385" y="0" on="1"/>
        <pt x="366" y="70" on="1"/>
        <pt x="300" y="-14" on="0"/>
        <pt x="193" y="-14" on="1"/>
        <pt x="119" y="-14" on="0"/>
        <pt x="21" y="60" on="0"/>
        <pt x="21" y="128" on="1"/>
        <pt x="21" y="178" on="1"/>
        <pt x="21" y="238" on="0"/>
        <pt x="109" y="307" on="0"/>
        <pt x="186" y="307" on="1"/>
        <pt x="342" y="307" on="1"/>
        <pt x="342" y="311" on="1"/>
        <pt x="341" y="338" on="0"/>
        <pt x="315" y="361" on="0"/>
        <pt x="283" y="361" on="1"/>
        <pt x="173" y="361" on="0"/>
      </contour>
      <contour>
        <pt x="225" y="175" on="1"/>
        <pt x="225" y="159" on="1"/>
        <pt x="225" y="128" on="0"/>
        <pt x="267" y="128" on="1"/>
        <pt x="300" y="128" on="0"/>
        <pt x="342" y="153" on="1"/>
        <pt x="342" y="206" on="1"/>
        <pt x="263" y="206" on="1"/>
        <pt x="225" y="206" on="0"/>
      </contour>
    </TTGlyph>
    <TTGlyph name="ae" xMin="21" yMin="-14" xMax="865" yMax="514">
      <contour>
        <pt x="672" y="204" on="1"/>
        <pt x="546" y="204" on="1"/>
        <pt x="553" y="173" on="0"/>
        <pt x="591" y="149" on="0"/>
        <pt x="634" y="149" on="1"/>
        <pt x="728" y="149" on="0"/>
        <pt x="832" y="160" on="1"/>
        <pt x="851" y="34" on="1"/>
        <pt x="762" y="-12" on="0"/>
        <pt x="611" y="-12" on="1"/>
        <pt x="439" y="-12" on="0"/>
        <pt x="375" y="76" on="1"/>
        <pt x="308" y="-14" on="0"/>
        <pt x="189" y="-14" on="1"/>
        <pt x="117" y="-14" on="0"/>
        <pt x="21" y="60" on="0"/>
        <pt x="21" y="128" on="1"/>
        <pt x="21" y="178" on="1"/>
        <pt x="21" y="236" on="0"/>
        <pt x="108" y="304" on="0"/>
        <pt x="182" y="304" on="1"/>
        <pt x="331" y="304" on="1"/>
        <pt x="331" y="311" on="1"/>
        <pt x="331" y="338" on="0"/>
        <pt x="307" y="361" on="0"/>
        <pt x="277" y="361" on="1"/>
        <pt x="170" y="361" on="0"/>
        <pt x="66" y="356" on="1"/>
        <pt x="47" y="489" on="1"/>
        <pt x="179" y="514" on="0"/>
        <pt x="327" y="514" on="1"/>
        <pt x="406" y="514" on="0"/>
        <pt x="455" y="491" on="1"/>
        <pt x="512" y="514" on="0"/>
        <pt x="610" y="514" on="1"/>
        <pt x="745" y="514" on="0"/>
        <pt x="864" y="426" on="0"/>
        <pt x="865" y="336" on="1"/>
        <pt x="866" y="265" on="0"/>
        <pt x="780" y="204" on="0"/>
      </contour>
      <contour>
        <pt x="543" y="303" on="1"/>
        <pt x="613" y="303" on="1"/>
        <pt x="646" y="303" on="0"/>
        <pt x="664" y="316" on="0"/>
        <pt x="664" y="341" on="1"/>
        <pt x="664" y="364" on="0"/>
        <pt x="643" y="379" on="0"/>
        <pt x="616" y="379" on="1"/>
        <pt x="574" y="380" on="0"/>
        <pt x="545" y="352" on="0"/>
      </contour>
      <contour>
        <pt x="225" y="175" on="1"/>
        <pt x="225" y="159" on="1"/>
        <pt x="225" y="128" on="0"/>
        <pt x="264" y="128" on="1"/>
        <pt x="298" y="128" on="0"/>
        <pt x="340" y="155" on="1"/>
        <pt x="334" y="187" on="0"/>
        <pt x="333" y="206" on="1"/>
        <pt x="261" y="206" on="1"/>
        <pt x="225" y="206" on="0"/>
      </contour>
    </TTGlyph>
    <TTGlyph name="agrave" xMin="21" yMin="-14" xMax="552" yMax="768">
      <contour>
        <pt x="346" y="532" on="1"/>
        <pt x="91" y="635" on="1"/>
        <pt x="170" y="768" on="1"/>
        <pt x="403" y="618" on="1"/>
      </contour>
      <contour>
        <pt x="67" y="356" on="1"/>
        <pt x="48" y="489" on="1"/>
        <pt x="184" y="514" on="0"/>
        <pt x="333" y="514" on="1"/>
        <pt x="444" y="514" on="0"/>
        <pt x="552" y="422" on="0"/>
        <pt x="552" y="310" on="1"/>
        <pt x="552" y="0" on="1"/>
        <pt x="385" y="0" on="1"/>
        <pt x="366" y="70" on="1"/>
        <pt x="300" y="-14" on="0"/>
        <pt x="193" y="-14" on="1"/>
        <pt x="119" y="-14" on="0"/>
        <pt x="21" y="60" on="0"/>
        <pt x="21" y="128" on="1"/>
        <pt x="21" y="178" on="1"/>
        <pt x="21" y="238" on="0"/>
        <pt x="109" y="307" on="0"/>
        <pt x="186" y="307" on="1"/>
        <pt x="342" y="307" on="1"/>
        <pt x="342" y="311" on="1"/>
        <pt x="341" y="338" on="0"/>
        <pt x="315" y="361" on="0"/>
        <pt x="283" y="361" on="1"/>
        <pt x="173" y="361" on="0"/>
      </contour>
      <contour>
        <pt x="225" y="175" on="1"/>
        <pt x="225" y="159" on="1"/>
        <pt x="225" y="128" on="0"/>
        <pt x="267" y="128" on="1"/>
        <pt x="300" y="128" on="0"/>
        <pt x="342" y="153" on="1"/>
        <pt x="342" y="206" on="1"/>
        <pt x="263" y="206" on="1"/>
        <pt x="225" y="206" on="0"/>
      </contour>
    </TTGlyph>
    <TTGlyph name="amacron" xMin="21" yMin="-14" xMax="552" yMax="707">
      <contour>
        <pt x="464" y="584" on="1"/>
        <pt x="144" y="584" on="1"/>
        <pt x="144" y="707" on="1"/>
        <pt x="464" y="707" on="1"/>
      </contour>
      <contour>
        <pt x="67" y="356" on="1"/>
        <pt x="48" y="489" on="1"/>
        <pt x="184" y="514" on="0"/>
        <pt x="333" y="514" on="1"/>
        <pt x="444" y="514" on="0"/>
        <pt x="552" y="422" on="0"/>
        <pt x="552" y="310" on="1"/>
        <pt x="552" y="0" on="1"/>
        <pt x="385" y="0" on="1"/>
        <pt x="366" y="70" on="1"/>
        <pt x="300" y="-14" on="0"/>
        <pt x="193" y="-14" on="1"/>
        <pt x="119" y="-14" on="0"/>
        <pt x="21" y="60" on="0"/>
        <pt x="21" y="128" on="1"/>
        <pt x="21" y="178" on="1"/>
        <pt x="21" y="238" on="0"/>
        <pt x="109" y="307" on="0"/>
        <pt x="186" y="307" on="1"/>
        <pt x="342" y="307" on="1"/>
        <pt x="342" y="311" on="1"/>
        <pt x="341" y="338" on="0"/>
        <pt x="315" y="361" on="0"/>
        <pt x="283" y="361" on="1"/>
        <pt x="173" y="361" on="0"/>
      </contour>
      <contour>
        <pt x="225" y="175" on="1"/>
        <pt x="225" y="159" on="1"/>
        <pt x="225" y="128" on="0"/>
        <pt x="267" y="128" on="1"/>
        <pt x="300" y="128" on="0"/>
        <pt x="342" y="153" on="1"/>
        <pt x="342" y="206" on="1"/>
        <pt x="263" y="206" on="1"/>
        <pt x="225" y="206" on="0"/>
      </contour>
    </TTGlyph>
    <TTGlyph name="ampersand" xMin="35" yMin="-14" xMax="742" yMax="704">
      <contour>
        <pt x="719" y="146" on="1"/>
        <pt x="742" y="12" on="1"/>
        <pt x="687" y="-14" on="0"/>
        <pt x="592" y="-14" on="1"/>
        <pt x="496" y="-14" on="0"/>
        <pt x="459" y="48" on="1"/>
        <pt x="420" y="15" on="0"/>
        <pt x="327" y="-14" on="0"/>
        <pt x="251" y="-14" on="1"/>
        <pt x="135" y="-14" on="0"/>
        <pt x="35" y="73" on="0"/>
        <pt x="35" y="176" on="1"/>
        <pt x="35" y="258" on="0"/>
        <pt x="99" y="348" on="0"/>
        <pt x="172" y="355" on="1"/>
        <pt x="172" y="361" on="1"/>
        <pt x="110" y="367" on="0"/>
        <pt x="57" y="443" on="0"/>
        <pt x="57" y="520" on="1"/>
        <pt x="57" y="569" on="0"/>
        <pt x="77" y="634" on="0"/>
        <pt x="114" y="675" on="0"/>
        <pt x="186" y="697" on="0"/>
        <pt x="269" y="704" on="0"/>
        <pt x="335" y="704" on="1"/>
        <pt x="436" y="704" on="0"/>
        <pt x="501" y="690" on="1"/>
        <pt x="476" y="550" on="1"/>
        <pt x="353" y="553" on="0"/>
        <pt x="329" y="553" on="1"/>
        <pt x="296" y="553" on="0"/>
        <pt x="275" y="528" on="0"/>
        <pt x="275" y="486" on="1"/>
        <pt x="275" y="446" on="0"/>
        <pt x="296" y="419" on="0"/>
        <pt x="329" y="419" on="1"/>
        <pt x="447" y="419" on="1"/>
        <pt x="458" y="508" on="1"/>
        <pt x="636" y="508" on="1"/>
        <pt x="636" y="419" on="1"/>
        <pt x="723" y="419" on="1"/>
        <pt x="723" y="288" on="1"/>
        <pt x="636" y="288" on="1"/>
        <pt x="636" y="182" on="1"/>
        <pt x="636" y="162" on="0"/>
        <pt x="651" y="146" on="0"/>
        <pt x="669" y="146" on="1"/>
      </contour>
      <contour>
        <pt x="439" y="288" on="1"/>
        <pt x="317" y="288" on="1"/>
        <pt x="283" y="288" on="0"/>
        <pt x="264" y="263" on="0"/>
        <pt x="264" y="221" on="1"/>
        <pt x="264" y="176" on="0"/>
        <pt x="283" y="149" on="0"/>
        <pt x="317" y="150" on="1"/>
        <pt x="380" y="152" on="0"/>
        <pt x="439" y="165" on="1"/>
      </contour>
    </TTGlyph>
    <TTGlyph name="aogonek" xMin="21" yMin="-213" xMax="565" yMax="514">
      <contour>
        <pt x="553" y="-120" on="1"/>
        <pt x="565" y="-192" on="1"/>
        <pt x="484" y="-222" on="0"/>
        <pt x="389" y="-204" on="0"/>
        <pt x="354" y="-143" on="0"/>
        <pt x="367" y="-105" on="1"/>
        <pt x="385" y="-49" on="0"/>
        <pt x="469" y="0" on="1"/>
        <pt x="385" y="0" on="1"/>
        <pt x="366" y="70" on="1"/>
        <pt x="300" y="-14" on="0"/>
        <pt x="193" y="-14" on="1"/>
        <pt x="119" y="-14" on="0"/>
        <pt x="21" y="60" on="0"/>
        <pt x="21" y="128" on="1"/>
        <pt x="21" y="178" on="1"/>
        <pt x="21" y="238" on="0"/>
        <pt x="109" y="307" on="0"/>
        <pt x="186" y="307" on="1"/>
        <pt x="342" y="307" on="1"/>
        <pt x="342" y="311" on="1"/>
        <pt x="341" y="338" on="0"/>
        <pt x="315" y="361" on="0"/>
        <pt x="283" y="361" on="1"/>
        <pt x="173" y="361" on="0"/>
        <pt x="67" y="356" on="1"/>
        <pt x="48" y="489" on="1"/>
        <pt x="184" y="514" on="0"/>
        <pt x="333" y="514" on="1"/>
        <pt x="444" y="514" on="0"/>
        <pt x="552" y="422" on="0"/>
        <pt x="552" y="310" on="1"/>
        <pt x="552" y="0" on="1"/>
        <pt x="512" y="-72" on="0"/>
        <pt x="505" y="-87" on="1"/>
        <pt x="493" y="-112" on="0"/>
        <pt x="521" y="-125" on="0"/>
      </contour>
      <contour>
        <pt x="225" y="175" on="1"/>
        <pt x="225" y="159" on="1"/>
        <pt x="225" y="128" on="0"/>
        <pt x="267" y="128" on="1"/>
        <pt x="300" y="128" on="0"/>
        <pt x="342" y="153" on="1"/>
        <pt x="342" y="206" on="1"/>
        <pt x="263" y="206" on="1"/>
        <pt x="225" y="206" on="0"/>
      </contour>
    </TTGlyph>
    <TTGlyph name="approxequal" xMin="50" yMin="97" xMax="521" yMax="482">
      <contour>
        <pt x="176" y="306" on="1"/>
        <pt x="50" y="306" on="1"/>
        <pt x="28" y="396" on="0"/>
        <pt x="106" y="489" on="0"/>
        <pt x="184" y="482" on="1"/>
        <pt x="206" y="480" on="0"/>
        <pt x="352" y="443" on="0"/>
        <pt x="371" y="441" on="1"/>
        <pt x="377" y="442" on="0"/>
        <pt x="386" y="438" on="0"/>
        <pt x="392" y="445" on="0"/>
        <pt x="395" y="445" on="0"/>
        <pt x="396" y="456" on="0"/>
        <pt x="396" y="460" on="0"/>
        <pt x="396" y="474" on="0"/>
        <pt x="396" y="478" on="1"/>
        <pt x="521" y="478" on="1"/>
        <pt x="543" y="390" on="0"/>
        <pt x="473" y="297" on="0"/>
        <pt x="389" y="301" on="1"/>
        <pt x="367" y="302" on="0"/>
        <pt x="221" y="340" on="0"/>
        <pt x="200" y="342" on="1"/>
        <pt x="194" y="341" on="0"/>
        <pt x="185" y="344" on="0"/>
        <pt x="179" y="338" on="0"/>
        <pt x="176" y="337" on="0"/>
        <pt x="176" y="327" on="0"/>
        <pt x="176" y="323" on="0"/>
        <pt x="176" y="310" on="0"/>
      </contour>
      <contour>
        <pt x="176" y="102" on="1"/>
        <pt x="50" y="102" on="1"/>
        <pt x="28" y="192" on="0"/>
        <pt x="106" y="286" on="0"/>
        <pt x="184" y="279" on="1"/>
        <pt x="205" y="277" on="0"/>
        <pt x="352" y="239" on="0"/>
        <pt x="371" y="237" on="1"/>
        <pt x="377" y="235" on="0"/>
        <pt x="385" y="238" on="0"/>
        <pt x="390" y="237" on="0"/>
        <pt x="394" y="243" on="0"/>
        <pt x="396" y="245" on="0"/>
        <pt x="396" y="254" on="0"/>
        <pt x="396" y="259" on="0"/>
        <pt x="396" y="271" on="0"/>
        <pt x="396" y="274" on="1"/>
        <pt x="521" y="274" on="1"/>
        <pt x="543" y="187" on="0"/>
        <pt x="473" y="93" on="0"/>
        <pt x="389" y="97" on="1"/>
        <pt x="367" y="98" on="0"/>
        <pt x="221" y="137" on="0"/>
        <pt x="200" y="139" on="1"/>
        <pt x="194" y="138" on="0"/>
        <pt x="185" y="141" on="0"/>
        <pt x="179" y="135" on="0"/>
        <pt x="176" y="134" on="0"/>
        <pt x="176" y="124" on="0"/>
        <pt x="176" y="119" on="0"/>
        <pt x="176" y="106" on="0"/>
      </contour>
    </TTGlyph>
    <TTGlyph name="aring" xMin="21" yMin="-14" xMax="552" yMax="775">
      <contour>
        <pt x="356" y="525" on="0"/>
        <pt x="250" y="525" on="0"/>
        <pt x="174" y="598" on="0"/>
        <pt x="174" y="702" on="0"/>
        <pt x="250" y="775" on="0"/>
        <pt x="356" y="775" on="0"/>
        <pt x="432" y="702" on="0"/>
        <pt x="432" y="598" on="0"/>
      </contour>
      <contour>
        <pt x="321" y="695" on="0"/>
        <pt x="285" y="695" on="0"/>
        <pt x="259" y="668" on="0"/>
        <pt x="259" y="650" on="1"/>
        <pt x="259" y="631" on="0"/>
        <pt x="285" y="605" on="0"/>
        <pt x="321" y="605" on="0"/>
        <pt x="347" y="631" on="0"/>
        <pt x="347" y="650" on="1"/>
        <pt x="347" y="668" on="0"/>
      </contour>
      <contour>
        <pt x="67" y="356" on="1"/>
        <pt x="48" y="489" on="1"/>
        <pt x="184" y="514" on="0"/>
        <pt x="333" y="514" on="1"/>
        <pt x="444" y="514" on="0"/>
        <pt x="552" y="422" on="0"/>
        <pt x="552" y="310" on="1"/>
        <pt x="552" y="0" on="1"/>
        <pt x="385" y="0" on="1"/>
        <pt x="366" y="70" on="1"/>
        <pt x="300" y="-14" on="0"/>
        <pt x="193" y="-14" on="1"/>
        <pt x="119" y="-14" on="0"/>
        <pt x="21" y="60" on="0"/>
        <pt x="21" y="128" on="1"/>
        <pt x="21" y="178" on="1"/>
        <pt x="21" y="238" on="0"/>
        <pt x="109" y="307" on="0"/>
        <pt x="186" y="307" on="1"/>
        <pt x="342" y="307" on="1"/>
        <pt x="342" y="311" on="1"/>
        <pt x="341" y="338" on="0"/>
        <pt x="315" y="361" on="0"/>
        <pt x="283" y="361" on="1"/>
        <pt x="173" y="361" on="0"/>
      </contour>
      <contour>
        <pt x="225" y="175" on="1"/>
        <pt x="225" y="159" on="1"/>
        <pt x="225" y="128" on="0"/>
        <pt x="267" y="128" on="1"/>
        <pt x="300" y="128" on="0"/>
        <pt x="342" y="153" on="1"/>
        <pt x="342" y="206" on="1"/>
        <pt x="263" y="206" on="1"/>
        <pt x="225" y="206" on="0"/>
      </contour>
    </TTGlyph>
    <TTGlyph name="asciicircum" xMin="30" yMin="372" xMax="467" yMax="653">
      <contour>
        <pt x="467" y="414" on="1"/>
        <pt x="386" y="372" on="1"/>
        <pt x="254" y="529" on="1"/>
        <pt x="246" y="529" on="1"/>
        <pt x="110" y="372" on="1"/>
        <pt x="30" y="414" on="1"/>
        <pt x="174" y="653" on="1"/>
        <pt x="326" y="653" on="1"/>
      </contour>
    </TTGlyph>
    <TTGlyph name="asciitilde" xMin="45" yMin="202" xMax="455" yMax="376">
      <contour>
        <pt x="132" y="207" on="1"/>
        <pt x="45" y="207" on="1"/>
        <pt x="30" y="291" on="0"/>
        <pt x="83" y="377" on="0"/>
        <pt x="130" y="376" on="1"/>
        <pt x="151" y="376" on="0"/>
        <pt x="241" y="357" on="0"/>
        <pt x="332" y="334" on="0"/>
        <pt x="339" y="333" on="1"/>
        <pt x="360" y="329" on="0"/>
        <pt x="368" y="344" on="0"/>
        <pt x="368" y="371" on="1"/>
        <pt x="455" y="371" on="1"/>
        <pt x="470" y="288" on="0"/>
        <pt x="420" y="200" on="0"/>
        <pt x="370" y="202" on="1"/>
        <pt x="349" y="202" on="0"/>
        <pt x="261" y="221" on="0"/>
        <pt x="170" y="243" on="0"/>
        <pt x="160" y="245" on="1"/>
        <pt x="140" y="248" on="0"/>
        <pt x="132" y="236" on="0"/>
        <pt x="132" y="213" on="1"/>
        <pt x="132" y="209" on="0"/>
      </contour>
    </TTGlyph>
    <TTGlyph name="asterisk" xMin="23" yMin="322" xMax="433" yMax="692">
      <contour>
        <pt x="268" y="517" on="1"/>
        <pt x="381" y="388" on="1"/>
        <pt x="292" y="322" on="1"/>
        <pt x="228" y="441" on="1"/>
        <pt x="165" y="322" on="1"/>
        <pt x="75" y="388" on="1"/>
        <pt x="190" y="516" on="1"/>
        <pt x="172" y="692" on="1"/>
        <pt x="284" y="692" on="1"/>
      </contour>
      <contour>
        <pt x="433" y="516" on="1"/>
        <pt x="313" y="492" on="1"/>
        <pt x="288" y="522" on="1"/>
        <pt x="286" y="571" on="1"/>
        <pt x="399" y="623" on="1"/>
      </contour>
      <contour>
        <pt x="170" y="571" on="1"/>
        <pt x="170" y="522" on="1"/>
        <pt x="145" y="492" on="1"/>
        <pt x="23" y="516" on="1"/>
        <pt x="57" y="622" on="1"/>
      </contour>
    </TTGlyph>
    <TTGlyph name="at" xMin="39" yMin="-79" xMax="760" yMax="617">
      <contour>
        <pt x="399" y="617" on="1"/>
        <pt x="561" y="617" on="1"/>
        <pt x="661" y="617" on="0"/>
        <pt x="759" y="531" on="0"/>
        <pt x="759" y="428" on="1"/>
        <pt x="759" y="138" on="1"/>
        <pt x="606" y="138" on="1"/>
        <pt x="590" y="201" on="1"/>
        <pt x="530" y="125" on="0"/>
        <pt x="434" y="125" on="1"/>
        <pt x="368" y="125" on="0"/>
        <pt x="279" y="193" on="0"/>
        <pt x="279" y="253" on="1"/>
        <pt x="279" y="298" on="1"/>
        <pt x="279" y="353" on="0"/>
        <pt x="358" y="416" on="0"/>
        <pt x="426" y="416" on="1"/>
        <pt x="567" y="416" on="1"/>
        <pt x="567" y="429" on="1"/>
        <pt x="567" y="453" on="0"/>
        <pt x="545" y="474" on="0"/>
        <pt x="517" y="474" on="1"/>
        <pt x="399" y="474" on="1"/>
        <pt x="363" y="474" on="0"/>
        <pt x="332" y="473" on="0"/>
        <pt x="286" y="467" on="0"/>
        <pt x="271" y="458" on="0"/>
        <pt x="246" y="437" on="0"/>
        <pt x="240" y="411" on="0"/>
        <pt x="231" y="364" on="0"/>
        <pt x="230" y="311" on="0"/>
        <pt x="230" y="270" on="1"/>
        <pt x="230" y="189" on="0"/>
        <pt x="238" y="113" on="0"/>
        <pt x="291" y="70" on="0"/>
        <pt x="348" y="66" on="0"/>
        <pt x="426" y="66" on="1"/>
        <pt x="442" y="66" on="0"/>
        <pt x="451" y="66" on="1"/>
        <pt x="760" y="66" on="1"/>
        <pt x="760" y="-62" on="1"/>
        <pt x="567" y="-79" on="0"/>
        <pt x="451" y="-79" on="1"/>
        <pt x="353" y="-79" on="0"/>
        <pt x="230" y="-71" on="0"/>
        <pt x="130" y="-40" on="0"/>
        <pt x="81" y="2" on="0"/>
        <pt x="47" y="88" on="0"/>
        <pt x="39" y="188" on="0"/>
        <pt x="39" y="352" on="0"/>
        <pt x="46" y="451" on="0"/>
        <pt x="75" y="537" on="0"/>
        <pt x="119" y="578" on="0"/>
        <pt x="206" y="609" on="0"/>
        <pt x="313" y="617" on="0"/>
      </contour>
      <contour>
        <pt x="567" y="329" on="1"/>
        <pt x="498" y="324" on="1"/>
        <pt x="464" y="321" on="0"/>
        <pt x="464" y="296" on="1"/>
        <pt x="464" y="282" on="1"/>
        <pt x="464" y="254" on="0"/>
        <pt x="501" y="254" on="1"/>
        <pt x="533" y="254" on="0"/>
        <pt x="567" y="275" on="1"/>
      </contour>
    </TTGlyph>
    <TTGlyph name="atilde" xMin="21" yMin="-14" xMax="552" yMax="732">
      <contour>
        <pt x="199" y="563" on="1"/>
        <pt x="112" y="563" on="1"/>
        <pt x="97" y="646" on="0"/>
        <pt x="152" y="735" on="0"/>
        <pt x="197" y="732" on="1"/>
        <pt x="237" y="729" on="0"/>
        <pt x="353" y="692" on="0"/>
        <pt x="366" y="689" on="1"/>
        <pt x="387" y="685" on="0"/>
        <pt x="395" y="700" on="0"/>
        <pt x="395" y="727" on="1"/>
        <pt x="482" y="727" on="1"/>
        <pt x="497" y="646" on="0"/>
        <pt x="446" y="555" on="0"/>
        <pt x="397" y="558" on="1"/>
        <pt x="358" y="561" on="0"/>
        <pt x="240" y="599" on="0"/>
        <pt x="227" y="601" on="1"/>
        <pt x="207" y="604" on="0"/>
        <pt x="199" y="592" on="0"/>
        <pt x="199" y="569" on="1"/>
        <pt x="199" y="565" on="0"/>
      </contour>
      <contour>
        <pt x="67" y="356" on="1"/>
        <pt x="48" y="489" on="1"/>
        <pt x="184" y="514" on="0"/>
        <pt x="333" y="514" on="1"/>
        <pt x="444" y="514" on="0"/>
        <pt x="552" y="422" on="0"/>
        <pt x="552" y="310" on="1"/>
        <pt x="552" y="0" on="1"/>
        <pt x="385" y="0" on="1"/>
        <pt x="366" y="70" on="1"/>
        <pt x="300" y="-14" on="0"/>
        <pt x="193" y="-14" on="1"/>
        <pt x="119" y="-14" on="0"/>
        <pt x="21" y="60" on="0"/>
        <pt x="21" y="128" on="1"/>
        <pt x="21" y="178" on="1"/>
        <pt x="21" y="238" on="0"/>
        <pt x="109" y="307" on="0"/>
        <pt x="186" y="307" on="1"/>
        <pt x="342" y="307" on="1"/>
        <pt x="342" y="311" on="1"/>
        <pt x="341" y="338" on="0"/>
        <pt x="315" y="361" on="0"/>
        <pt x="283" y="361" on="1"/>
        <pt x="173" y="361" on="0"/>
      </contour>
      <contour>
        <pt x="225" y="175" on="1"/>
        <pt x="225" y="159" on="1"/>
        <pt x="225" y="128" on="0"/>
        <pt x="267" y="128" on="1"/>
        <pt x="300" y="128" on="0"/>
        <pt x="342" y="153" on="1"/>
        <pt x="342" y="206" on="1"/>
        <pt x="263" y="206" on="1"/>
        <pt x="225" y="206" on="0"/>
      </contour>
    </TTGlyph>
    <TTGlyph name="b" xMin="42" yMin="-12" xMax="591" yMax="700">
      <contour>
        <pt x="252" y="700" on="1"/>
        <pt x="254" y="561" on="1"/>
        <pt x="256" y="498" on="0"/>
        <pt x="239" y="441" on="1"/>
        <pt x="318" y="514" on="0"/>
        <pt x="402" y="514" on="1"/>
        <pt x="506" y="514" on="0"/>
        <pt x="591" y="395" on="0"/>
        <pt x="591" y="256" on="1"/>
        <pt x="591" y="200" on="0"/>
        <pt x="570" y="113" on="0"/>
        <pt x="515" y="32" on="0"/>
        <pt x="404" y="-12" on="0"/>
        <pt x="322" y="-12" on="1"/>
        <pt x="254" y="-12" on="0"/>
        <pt x="81" y="10" on="0"/>
        <pt x="42" y="30" on="1"/>
        <pt x="42" y="700" on="1"/>
      </contour>
      <contour>
        <pt x="252" y="344" on="1"/>
        <pt x="252" y="133" on="1"/>
        <pt x="294" y="128" on="0"/>
        <pt x="318" y="129" on="1"/>
        <pt x="351" y="131" on="0"/>
        <pt x="375" y="180" on="0"/>
        <pt x="375" y="255" on="1"/>
        <pt x="375" y="318" on="0"/>
        <pt x="351" y="357" on="0"/>
        <pt x="314" y="357" on="1"/>
        <pt x="285" y="357" on="0"/>
      </contour>
    </TTGlyph>
    <TTGlyph name="backslash" xMin="15" yMin="-79" xMax="573" yMax="690">
      <contour>
        <pt x="573" y="-79" on="1"/>
        <pt x="408" y="-79" on="1"/>
        <pt x="15" y="690" on="1"/>
        <pt x="180" y="690" on="1"/>
      </contour>
    </TTGlyph>
    <TTGlyph name="bar" xMin="65" yMin="-169" xMax="211" yMax="781">
      <contour>
        <pt x="211" y="-169" on="1"/>
        <pt x="65" y="-169" on="1"/>
        <pt x="65" y="781" on="1"/>
        <pt x="211" y="781" on="1"/>
      </contour>
    </TTGlyph>
    <TTGlyph name="braceleft" xMin="22" yMin="-165" xMax="334" yMax="768">
      <contour>
        <pt x="330" y="768" on="1"/>
        <pt x="330" y="640" on="1"/>
        <pt x="307" y="640" on="0"/>
        <pt x="291" y="639" on="0"/>
        <pt x="272" y="632" on="0"/>
        <pt x="267" y="617" on="0"/>
        <pt x="267" y="602" on="1"/>
        <pt x="267" y="477" on="1"/>
        <pt x="269" y="409" on="0"/>
        <pt x="218" y="337" on="0"/>
        <pt x="151" y="328" on="1"/>
        <pt x="218" y="310" on="0"/>
        <pt x="270" y="240" on="0"/>
        <pt x="271" y="183" on="1"/>
        <pt x="271" y="-2" on="1"/>
        <pt x="271" y="-8" on="0"/>
        <pt x="272" y="-17" on="0"/>
        <pt x="273" y="-24" on="0"/>
        <pt x="278" y="-29" on="0"/>
        <pt x="280" y="-33" on="0"/>
        <pt x="289" y="-35" on="0"/>
        <pt x="293" y="-37" on="0"/>
        <pt x="306" y="-37" on="0"/>
        <pt x="312" y="-37" on="0"/>
        <pt x="330" y="-37" on="0"/>
        <pt x="334" y="-37" on="1"/>
        <pt x="334" y="-165" on="1"/>
        <pt x="202" y="-186" on="0"/>
        <pt x="71" y="-102" on="0"/>
        <pt x="71" y="-19" on="1"/>
        <pt x="71" y="203" on="1"/>
        <pt x="71" y="219" on="0"/>
        <pt x="67" y="237" on="0"/>
        <pt x="50" y="251" on="0"/>
        <pt x="41" y="256" on="0"/>
        <pt x="22" y="263" on="1"/>
        <pt x="22" y="393" on="1"/>
        <pt x="45" y="400" on="0"/>
        <pt x="58" y="408" on="0"/>
        <pt x="67" y="431" on="0"/>
        <pt x="67" y="457" on="1"/>
        <pt x="67" y="622" on="1"/>
        <pt x="67" y="705" on="0"/>
        <pt x="198" y="789" on="0"/>
      </contour>
    </TTGlyph>
    <TTGlyph name="braceright" xMin="25" yMin="-165" xMax="337" yMax="768">
      <contour>
        <pt x="29" y="640" on="1"/>
        <pt x="29" y="768" on="1"/>
        <pt x="161" y="789" on="0"/>
        <pt x="292" y="705" on="0"/>
        <pt x="292" y="622" on="1"/>
        <pt x="292" y="457" on="1"/>
        <pt x="292" y="431" on="0"/>
        <pt x="301" y="408" on="0"/>
        <pt x="314" y="400" on="0"/>
        <pt x="337" y="393" on="1"/>
        <pt x="337" y="263" on="1"/>
        <pt x="321" y="256" on="0"/>
        <pt x="315" y="254" on="0"/>
        <pt x="296" y="243" on="0"/>
        <pt x="293" y="234" on="0"/>
        <pt x="288" y="216" on="0"/>
        <pt x="288" y="203" on="1"/>
        <pt x="288" y="-19" on="1"/>
        <pt x="288" y="-102" on="0"/>
        <pt x="157" y="-186" on="0"/>
        <pt x="25" y="-165" on="1"/>
        <pt x="25" y="-37" on="1"/>
        <pt x="29" y="-37" on="0"/>
        <pt x="47" y="-37" on="0"/>
        <pt x="53" y="-37" on="0"/>
        <pt x="66" y="-37" on="0"/>
        <pt x="70" y="-35" on="0"/>
        <pt x="79" y="-33" on="0"/>
        <pt x="81" y="-29" on="0"/>
        <pt x="86" y="-24" on="0"/>
        <pt x="87" y="-17" on="0"/>
        <pt x="88" y="-8" on="0"/>
        <pt x="88" y="-2" on="1"/>
        <pt x="88" y="183" on="1"/>
        <pt x="89" y="240" on="0"/>
        <pt x="141" y="310" on="0"/>
        <pt x="208" y="328" on="1"/>
        <pt x="141" y="337" on="0"/>
        <pt x="90" y="409" on="0"/>
        <pt x="92" y="477" on="1"/>
        <pt x="92" y="602" on="1"/>
        <pt x="92" y="629" on="0"/>
        <pt x="69" y="640" on="0"/>
      </contour>
    </TTGlyph>
    <TTGlyph name="bracketleft" xMin="61" yMin="-165" xMax="339" yMax="768">
      <contour>
        <pt x="339" y="640" on="1"/>
        <pt x="279" y="640" on="1"/>
        <pt x="257" y="640" on="0"/>
        <pt x="257" y="618" on="1"/>
        <pt x="257" y="-15" on="1"/>
        <pt x="257" y="-37" on="0"/>
        <pt x="279" y="-37" on="1"/>
        <pt x="339" y="-37" on="1"/>
        <pt x="339" y="-165" on="1"/>
        <pt x="162" y="-165" on="1"/>
        <pt x="113" y="-165" on="0"/>
        <pt x="61" y="-120" on="0"/>
        <pt x="61" y="-64" on="1"/>
        <pt x="61" y="667" on="1"/>
        <pt x="61" y="712" on="0"/>
        <pt x="117" y="768" on="0"/>
        <pt x="162" y="768" on="1"/>
        <pt x="339" y="768" on="1"/>
      </contour>
    </TTGlyph>
    <TTGlyph name="bracketright" xMin="24" yMin="-165" xMax="302" yMax="768">
      <contour>
        <pt x="24" y="768" on="1"/>
        <pt x="201" y="768" on="1"/>
        <pt x="246" y="768" on="0"/>
        <pt x="302" y="712" on="0"/>
        <pt x="302" y="667" on="1"/>
        <pt x="302" y="-64" on="1"/>
        <pt x="302" y="-109" on="0"/>
        <pt x="246" y="-165" on="0"/>
        <pt x="201" y="-165" on="1"/>
        <pt x="24" y="-165" on="1"/>
        <pt x="24" y="-37" on="1"/>
        <pt x="84" y="-37" on="1"/>
        <pt x="106" y="-37" on="0"/>
        <pt x="106" y="-15" on="1"/>
        <pt x="106" y="618" on="1"/>
        <pt x="106" y="640" on="0"/>
        <pt x="84" y="640" on="1"/>
        <pt x="24" y="640" on="1"/>
      </contour>
    </TTGlyph>
    <TTGlyph name="breve" xMin="27" yMin="534" xMax="384" yMax="719">
      <contour>
        <pt x="287" y="719" on="1"/>
        <pt x="384" y="706" on="1"/>
        <pt x="396" y="637" on="0"/>
        <pt x="296" y="534" on="0"/>
        <pt x="116" y="534" on="0"/>
        <pt x="15" y="637" on="0"/>
        <pt x="27" y="706" on="1"/>
        <pt x="124" y="719" on="1"/>
        <pt x="124" y="687" on="0"/>
        <pt x="161" y="660" on="0"/>
        <pt x="206" y="660" on="1"/>
        <pt x="250" y="660" on="0"/>
        <pt x="287" y="687" on="0"/>
      </contour>
    </TTGlyph>
    <TTGlyph name="brevecy" xMin="27" yMin="534" xMax="384" yMax="707">
      <contour>
        <pt x="257" y="707" on="1"/>
        <pt x="384" y="707" on="1"/>
        <pt x="397" y="640" on="0"/>
        <pt x="295" y="534" on="0"/>
        <pt x="117" y="534" on="0"/>
        <pt x="15" y="640" on="0"/>
        <pt x="27" y="707" on="1"/>
        <pt x="154" y="707" on="1"/>
        <pt x="148" y="663" on="0"/>
        <pt x="174" y="630" on="0"/>
        <pt x="206" y="630" on="1"/>
        <pt x="237" y="630" on="0"/>
        <pt x="263" y="663" on="0"/>
      </contour>
    </TTGlyph>
    <TTGlyph name="brokenbar" xMin="66" yMin="-169" xMax="212" yMax="781">
      <contour>
        <pt x="212" y="381" on="1"/>
        <pt x="66" y="381" on="1"/>
        <pt x="66" y="781" on="1"/>
        <pt x="212" y="781" on="1"/>
      </contour>
      <contour>
        <pt x="212" y="-169" on="1"/>
        <pt x="66" y="-169" on="1"/>
        <pt x="66" y="231" on="1"/>
        <pt x="212" y="231" on="1"/>
      </contour>
    </TTGlyph>
    <TTGlyph name="bullet" xMin="56" yMin="133" xMax="325" yMax="402">
      <contour>
        <pt x="186" y="402" on="1"/>
        <pt x="203" y="402" on="1"/>
        <pt x="271" y="402" on="0"/>
        <pt x="325" y="348" on="0"/>
        <pt x="325" y="280" on="1"/>
        <pt x="325" y="263" on="1"/>
        <pt x="325" y="189" on="0"/>
        <pt x="272" y="133" on="0"/>
        <pt x="203" y="133" on="1"/>
        <pt x="186" y="133" on="1"/>
        <pt x="112" y="133" on="0"/>
        <pt x="56" y="189" on="0"/>
        <pt x="56" y="263" on="1"/>
        <pt x="56" y="280" on="1"/>
        <pt x="56" y="349" on="0"/>
        <pt x="112" y="402" on="0"/>
      </contour>
    </TTGlyph>
    <TTGlyph name="c" xMin="26" yMin="-12" xMax="510" yMax="514">
      <contour>
        <pt x="491" y="161" on="1"/>
        <pt x="510" y="30" on="1"/>
        <pt x="430" y="-12" on="0"/>
        <pt x="292" y="-12" on="1"/>
        <pt x="145" y="-12" on="0"/>
        <pt x="26" y="106" on="0"/>
        <pt x="26" y="396" on="0"/>
        <pt x="146" y="514" on="0"/>
        <pt x="294" y="514" on="1"/>
        <pt x="426" y="514" on="0"/>
        <pt x="503" y="477" on="1"/>
        <pt x="482" y="347" on="1"/>
        <pt x="330" y="347" on="1"/>
        <pt x="281" y="347" on="0"/>
        <pt x="246" y="308" on="0"/>
        <pt x="246" y="251" on="1"/>
        <pt x="246" y="193" on="0"/>
        <pt x="281" y="154" on="0"/>
        <pt x="330" y="154" on="1"/>
        <pt x="428" y="154" on="0"/>
      </contour>
    </TTGlyph>
    <TTGlyph name="cacute" xMin="26" yMin="-12" xMax="510" yMax="768">
      <contour>
        <pt x="502" y="635" on="1"/>
        <pt x="247" y="532" on="1"/>
        <pt x="190" y="618" on="1"/>
        <pt x="423" y="768" on="1"/>
      </contour>
      <contour>
        <pt x="491" y="161" on="1"/>
        <pt x="510" y="30" on="1"/>
        <pt x="430" y="-12" on="0"/>
        <pt x="292" y="-12" on="1"/>
        <pt x="145" y="-12" on="0"/>
        <pt x="26" y="106" on="0"/>
        <pt x="26" y="396" on="0"/>
        <pt x="146" y="514" on="0"/>
        <pt x="294" y="514" on="1"/>
        <pt x="426" y="514" on="0"/>
        <pt x="503" y="477" on="1"/>
        <pt x="482" y="347" on="1"/>
        <pt x="330" y="347" on="1"/>
        <pt x="281" y="347" on="0"/>
        <pt x="246" y="308" on="0"/>
        <pt x="246" y="251" on="1"/>
        <pt x="246" y="193" on="0"/>
        <pt x="281" y="154" on="0"/>
        <pt x="330" y="154" on="1"/>
        <pt x="428" y="154" on="0"/>
      </contour>
    </TTGlyph>
    <TTGlyph name="caron" xMin="35" yMin="546" xMax="444" yMax="754">
      <contour>
        <pt x="444" y="677" on="1"/>
        <pt x="281" y="546" on="1"/>
        <pt x="199" y="546" on="1"/>
        <pt x="35" y="677" on="1"/>
        <pt x="85" y="754" on="1"/>
        <pt x="236" y="678" on="1"/>
        <pt x="244" y="678" on="1"/>
        <pt x="396" y="754" on="1"/>
      </contour>
    </TTGlyph>
    <TTGlyph name="ccaron" xMin="26" yMin="-12" xMax="510" yMax="756">
      <contour>
        <pt x="496" y="679" on="1"/>
        <pt x="333" y="548" on="1"/>
        <pt x="251" y="548" on="1"/>
        <pt x="87" y="679" on="1"/>
        <pt x="137" y="756" on="1"/>
        <pt x="288" y="680" on="1"/>
        <pt x="296" y="680" on="1"/>
        <pt x="448" y="756" on="1"/>
      </contour>
      <contour>
        <pt x="491" y="161" on="1"/>
        <pt x="510" y="30" on="1"/>
        <pt x="430" y="-12" on="0"/>
        <pt x="292" y="-12" on="1"/>
        <pt x="145" y="-12" on="0"/>
        <pt x="26" y="106" on="0"/>
        <pt x="26" y="396" on="0"/>
        <pt x="146" y="514" on="0"/>
        <pt x="294" y="514" on="1"/>
        <pt x="426" y="514" on="0"/>
        <pt x="503" y="477" on="1"/>
        <pt x="482" y="347" on="1"/>
        <pt x="330" y="347" on="1"/>
        <pt x="281" y="347" on="0"/>
        <pt x="246" y="308" on="0"/>
        <pt x="246" y="251" on="1"/>
        <pt x="246" y="193" on="0"/>
        <pt x="281" y="154" on="0"/>
        <pt x="330" y="154" on="1"/>
        <pt x="428" y="154" on="0"/>
      </contour>
    </TTGlyph>
    <TTGlyph name="ccedilla" xMin="26" yMin="-262" xMax="510" yMax="514">
      <contour>
        <pt x="491" y="161" on="1"/>
        <pt x="510" y="30" on="1"/>
        <pt x="430" y="-12" on="0"/>
        <pt x="292" y="-12" on="1"/>
        <pt x="145" y="-12" on="0"/>
        <pt x="26" y="106" on="0"/>
        <pt x="26" y="396" on="0"/>
        <pt x="146" y="514" on="0"/>
        <pt x="294" y="514" on="1"/>
        <pt x="426" y="514" on="0"/>
        <pt x="503" y="477" on="1"/>
        <pt x="482" y="347" on="1"/>
        <pt x="330" y="347" on="1"/>
        <pt x="281" y="347" on="0"/>
        <pt x="246" y="308" on="0"/>
        <pt x="246" y="251" on="1"/>
        <pt x="246" y="193" on="0"/>
        <pt x="281" y="154" on="0"/>
        <pt x="330" y="154" on="1"/>
        <pt x="428" y="154" on="0"/>
      </contour>
      <contour>
        <pt x="189" y="-122" on="1"/>
        <pt x="208" y="-50" on="1"/>
        <pt x="302" y="-35" on="0"/>
        <pt x="387" y="-59" on="0"/>
        <pt x="384" y="-115" on="1"/>
        <pt x="380" y="-198" on="0"/>
        <pt x="248" y="-275" on="0"/>
        <pt x="150" y="-262" on="1"/>
        <pt x="172" y="-184" on="1"/>
        <pt x="212" y="-184" on="0"/>
        <pt x="256" y="-165" on="0"/>
        <pt x="259" y="-133" on="1"/>
        <pt x="260" y="-123" on="0"/>
        <pt x="248" y="-122" on="1"/>
        <pt x="246" y="-122" on="0"/>
      </contour>
    </TTGlyph>
    <TTGlyph name="cdotaccent" xMin="26" yMin="-12" xMax="510" yMax="725">
      <contour>
        <pt x="261" y="725" on="1"/>
        <pt x="324" y="725" on="1"/>
        <pt x="383" y="725" on="0"/>
        <pt x="383" y="668" on="1"/>
        <pt x="383" y="621" on="1"/>
        <pt x="383" y="564" on="0"/>
        <pt x="324" y="564" on="1"/>
        <pt x="261" y="564" on="1"/>
        <pt x="202" y="564" on="0"/>
        <pt x="202" y="621" on="1"/>
        <pt x="202" y="668" on="1"/>
        <pt x="202" y="725" on="0"/>
      </contour>
      <contour>
        <pt x="491" y="161" on="1"/>
        <pt x="510" y="30" on="1"/>
        <pt x="430" y="-12" on="0"/>
        <pt x="292" y="-12" on="1"/>
        <pt x="145" y="-12" on="0"/>
        <pt x="26" y="106" on="0"/>
        <pt x="26" y="396" on="0"/>
        <pt x="146" y="514" on="0"/>
        <pt x="294" y="514" on="1"/>
        <pt x="426" y="514" on="0"/>
        <pt x="503" y="477" on="1"/>
        <pt x="482" y="347" on="1"/>
        <pt x="330" y="347" on="1"/>
        <pt x="281" y="347" on="0"/>
        <pt x="246" y="308" on="0"/>
        <pt x="246" y="251" on="1"/>
        <pt x="246" y="193" on="0"/>
        <pt x="281" y="154" on="0"/>
        <pt x="330" y="154" on="1"/>
        <pt x="428" y="154" on="0"/>
      </contour>
    </TTGlyph>
    <TTGlyph name="cedilla" xMin="14" yMin="-245" xMax="248" yMax="-30">
      <contour>
        <pt x="53" y="-105" on="1"/>
        <pt x="72" y="-33" on="1"/>
        <pt x="166" y="-18" on="0"/>
        <pt x="251" y="-42" on="0"/>
        <pt x="248" y="-98" on="1"/>
        <pt x="244" y="-181" on="0"/>
        <pt x="112" y="-258" on="0"/>
        <pt x="14" y="-245" on="1"/>
        <pt x="36" y="-167" on="1"/>
        <pt x="76" y="-167" on="0"/>
        <pt x="120" y="-148" on="0"/>
        <pt x="123" y="-116" on="1"/>
        <pt x="124" y="-106" on="0"/>
        <pt x="112" y="-105" on="1"/>
        <pt x="110" y="-105" on="0"/>
      </contour>
    </TTGlyph>
    <TTGlyph name="cent" xMin="25" yMin="0" xMax="514" yMax="690">
      <contour>
        <pt x="495" y="247" on="1"/>
        <pt x="514" y="126" on="1"/>
        <pt x="450" y="93" on="0"/>
        <pt x="347" y="86" on="1"/>
        <pt x="337" y="0" on="1"/>
        <pt x="182" y="0" on="1"/>
        <pt x="193" y="92" on="1"/>
        <pt x="102" y="110" on="0"/>
        <pt x="25" y="229" on="0"/>
        <pt x="25" y="347" on="1"/>
        <pt x="25" y="484" on="0"/>
        <pt x="133" y="604" on="0"/>
        <pt x="263" y="609" on="1"/>
        <pt x="273" y="690" on="1"/>
        <pt x="429" y="690" on="1"/>
        <pt x="418" y="600" on="1"/>
        <pt x="469" y="590" on="0"/>
        <pt x="507" y="573" on="1"/>
        <pt x="486" y="453" on="1"/>
        <pt x="332" y="453" on="1"/>
        <pt x="272" y="453" on="0"/>
        <pt x="232" y="412" on="0"/>
        <pt x="232" y="282" on="0"/>
        <pt x="272" y="240" on="0"/>
        <pt x="332" y="240" on="1"/>
        <pt x="431" y="240" on="0"/>
      </contour>
    </TTGlyph>
    <TTGlyph name="circumflex" xMin="24" yMin="525" xMax="451" yMax="735">
      <contour>
        <pt x="451" y="594" on="1"/>
        <pt x="403" y="525" on="1"/>
        <pt x="244" y="618" on="1"/>
        <pt x="236" y="618" on="1"/>
        <pt x="74" y="525" on="1"/>
        <pt x="24" y="602" on="1"/>
        <pt x="164" y="735" on="1"/>
        <pt x="316" y="735" on="1"/>
      </contour>
    </TTGlyph>
    <TTGlyph name="colon" xMin="35" yMin="1" xMax="226" yMax="462">
      <contour>
        <pt x="107" y="462" on="1"/>
        <pt x="154" y="462" on="1"/>
        <pt x="195" y="462" on="0"/>
        <pt x="226" y="431" on="0"/>
        <pt x="226" y="390" on="1"/>
        <pt x="226" y="349" on="1"/>
        <pt x="226" y="308" on="0"/>
        <pt x="195" y="277" on="0"/>
        <pt x="154" y="277" on="1"/>
        <pt x="107" y="277" on="1"/>
        <pt x="66" y="277" on="0"/>
        <pt x="35" y="308" on="0"/>
        <pt x="35" y="349" on="1"/>
        <pt x="35" y="390" on="1"/>
        <pt x="35" y="431" on="0"/>
        <pt x="66" y="462" on="0"/>
      </contour>
      <contour>
        <pt x="107" y="186" on="1"/>
        <pt x="154" y="186" on="1"/>
        <pt x="195" y="186" on="0"/>
        <pt x="226" y="155" on="0"/>
        <pt x="226" y="114" on="1"/>
        <pt x="226" y="73" on="1"/>
        <pt x="226" y="32" on="0"/>
        <pt x="195" y="1" on="0"/>
        <pt x="154" y="1" on="1"/>
        <pt x="107" y="1" on="1"/>
        <pt x="66" y="1" on="0"/>
        <pt x="35" y="32" on="0"/>
        <pt x="35" y="73" on="1"/>
        <pt x="35" y="114" on="1"/>
        <pt x="35" y="155" on="0"/>
        <pt x="66" y="186" on="0"/>
      </contour>
    </TTGlyph>
    <TTGlyph name="comma" xMin="32" yMin="-162" xMax="219" yMax="185">
      <contour>
        <pt x="106" y="185" on="1"/>
        <pt x="147" y="185" on="1"/>
        <pt x="187" y="185" on="0"/>
        <pt x="218" y="154" on="0"/>
        <pt x="219" y="113" on="1"/>
        <pt x="219" y="49" on="1"/>
        <pt x="219" y="-22" on="0"/>
        <pt x="187" y="-114" on="0"/>
        <pt x="152" y="-162" on="1"/>
        <pt x="74" y="-137" on="1"/>
        <pt x="91" y="-86" on="0"/>
        <pt x="93" y="0" on="1"/>
        <pt x="34" y="0" on="0"/>
        <pt x="32" y="64" on="1"/>
        <pt x="35" y="113" on="1"/>
        <pt x="36" y="154" on="0"/>
        <pt x="66" y="185" on="0"/>
      </contour>
    </TTGlyph>
    <TTGlyph name="copyright" xMin="27" yMin="-14" xMax="755" yMax="704">
      <contour>
        <pt x="391" y="704" on="1"/>
        <pt x="546" y="704" on="0"/>
        <pt x="755" y="501" on="0"/>
        <pt x="755" y="189" on="0"/>
        <pt x="546" y="-14" on="0"/>
        <pt x="391" y="-14" on="1"/>
        <pt x="237" y="-14" on="0"/>
        <pt x="27" y="190" on="0"/>
        <pt x="27" y="500" on="0"/>
        <pt x="237" y="704" on="0"/>
      </contour>
      <contour>
        <pt x="391" y="607" on="1"/>
        <pt x="282" y="607" on="0"/>
        <pt x="129" y="457" on="0"/>
        <pt x="129" y="233" on="0"/>
        <pt x="282" y="83" on="0"/>
        <pt x="391" y="83" on="1"/>
        <pt x="501" y="83" on="0"/>
        <pt x="653" y="232" on="0"/>
        <pt x="653" y="458" on="0"/>
        <pt x="501" y="607" on="0"/>
      </contour>
      <contour>
        <pt x="532" y="279" on="1"/>
        <pt x="543" y="171" on="1"/>
        <pt x="481" y="150" on="0"/>
        <pt x="395" y="150" on="1"/>
        <pt x="288" y="150" on="0"/>
        <pt x="201" y="238" on="0"/>
        <pt x="201" y="454" on="0"/>
        <pt x="288" y="541" on="0"/>
        <pt x="395" y="541" on="1"/>
        <pt x="471" y="541" on="0"/>
        <pt x="534" y="525" on="1"/>
        <pt x="523" y="416" on="1"/>
        <pt x="395" y="416" on="1"/>
        <pt x="371" y="416" on="0"/>
        <pt x="360" y="392" on="0"/>
        <pt x="360" y="346" on="1"/>
        <pt x="360" y="299" on="0"/>
        <pt x="371" y="276" on="0"/>
        <pt x="395" y="276" on="1"/>
        <pt x="490" y="276" on="0"/>
      </contour>
    </TTGlyph>
    <TTGlyph name="currency" xMin="30" yMin="99" xMax="542" yMax="604">
      <contour>
        <pt x="542" y="519" on="1"/>
        <pt x="472" y="449" on="1"/>
        <pt x="496" y="403" on="0"/>
        <pt x="496" y="352" on="1"/>
        <pt x="496" y="300" on="0"/>
        <pt x="471" y="253" on="1"/>
        <pt x="542" y="184" on="1"/>
        <pt x="456" y="99" on="1"/>
        <pt x="386" y="168" on="1"/>
        <pt x="341" y="143" on="0"/>
        <pt x="287" y="143" on="1"/>
        <pt x="237" y="143" on="0"/>
        <pt x="189" y="167" on="1"/>
        <pt x="122" y="100" on="1"/>
        <pt x="30" y="192" on="1"/>
        <pt x="99" y="260" on="1"/>
        <pt x="78" y="305" on="0"/>
        <pt x="78" y="352" on="1"/>
        <pt x="78" y="405" on="0"/>
        <pt x="103" y="452" on="1"/>
        <pt x="36" y="519" on="1"/>
        <pt x="122" y="604" on="1"/>
        <pt x="189" y="536" on="1"/>
        <pt x="234" y="561" on="0"/>
        <pt x="287" y="561" on="1"/>
        <pt x="342" y="561" on="0"/>
        <pt x="388" y="535" on="1"/>
        <pt x="457" y="604" on="1"/>
      </contour>
      <contour>
        <pt x="251" y="261" on="0"/>
        <pt x="323" y="261" on="0"/>
        <pt x="377" y="316" on="0"/>
        <pt x="377" y="353" on="1"/>
        <pt x="377" y="391" on="0"/>
        <pt x="323" y="445" on="0"/>
        <pt x="251" y="445" on="0"/>
        <pt x="197" y="391" on="0"/>
        <pt x="197" y="353" on="1"/>
        <pt x="197" y="316" on="0"/>
      </contour>
    </TTGlyph>
    <TTGlyph name="d" xMin="28" yMin="-12" xMax="577" yMax="700">
      <contour>
        <pt x="577" y="700" on="1"/>
        <pt x="577" y="0" on="1"/>
        <pt x="410" y="0" on="1"/>
        <pt x="393" y="82" on="1"/>
        <pt x="343" y="-12" on="0"/>
        <pt x="209" y="-12" on="1"/>
        <pt x="114" y="-12" on="0"/>
        <pt x="28" y="124" on="0"/>
        <pt x="28" y="256" on="1"/>
        <pt x="28" y="403" on="0"/>
        <pt x="119" y="514" on="0"/>
        <pt x="218" y="514" on="1"/>
        <pt x="314" y="514" on="0"/>
        <pt x="371" y="472" on="1"/>
        <pt x="367" y="542" on="0"/>
        <pt x="367" y="581" on="1"/>
        <pt x="367" y="700" on="1"/>
      </contour>
      <contour>
        <pt x="367" y="171" on="1"/>
        <pt x="367" y="364" on="1"/>
        <pt x="334" y="377" on="0"/>
        <pt x="302" y="377" on="1"/>
        <pt x="268" y="377" on="0"/>
        <pt x="244" y="334" on="0"/>
        <pt x="244" y="258" on="1"/>
        <pt x="244" y="193" on="0"/>
        <pt x="267" y="156" on="0"/>
        <pt x="299" y="156" on="1"/>
        <pt x="337" y="156" on="0"/>
      </contour>
    </TTGlyph>
    <TTGlyph name="dagger" xMin="22" yMin="-110" xMax="464" yMax="691">
      <contour>
        <pt x="325" y="-110" on="1"/>
        <pt x="161" y="-110" on="1"/>
        <pt x="172" y="393" on="1"/>
        <pt x="172" y="484" on="1"/>
        <pt x="161" y="691" on="1"/>
        <pt x="325" y="691" on="1"/>
        <pt x="315" y="484" on="1"/>
        <pt x="315" y="393" on="1"/>
      </contour>
      <contour>
        <pt x="22" y="357" on="1"/>
        <pt x="22" y="500" on="1"/>
        <pt x="151" y="500" on="1"/>
        <pt x="151" y="379" on="1"/>
      </contour>
      <contour>
        <pt x="464" y="500" on="1"/>
        <pt x="464" y="357" on="1"/>
        <pt x="335" y="379" on="1"/>
        <pt x="335" y="500" on="1"/>
      </contour>
    </TTGlyph>
    <TTGlyph name="daggerdbl" xMin="40" yMin="-110" xMax="482" yMax="691">
      <contour>
        <pt x="332" y="500" on="1"/>
        <pt x="332" y="97" on="1"/>
        <pt x="343" y="-110" on="1"/>
        <pt x="179" y="-110" on="1"/>
        <pt x="189" y="97" on="1"/>
        <pt x="189" y="500" on="1"/>
        <pt x="179" y="691" on="1"/>
        <pt x="343" y="691" on="1"/>
      </contour>
      <contour>
        <pt x="169" y="379" on="1"/>
        <pt x="40" y="357" on="1"/>
        <pt x="40" y="500" on="1"/>
        <pt x="169" y="500" on="1"/>
      </contour>
      <contour>
        <pt x="482" y="357" on="1"/>
        <pt x="353" y="379" on="1"/>
        <pt x="353" y="500" on="1"/>
        <pt x="482" y="500" on="1"/>
      </contour>
      <contour>
        <pt x="169" y="202" on="1"/>
        <pt x="169" y="81" on="1"/>
        <pt x="40" y="81" on="1"/>
        <pt x="40" y="224" on="1"/>
      </contour>
      <contour>
        <pt x="482" y="81" on="1"/>
        <pt x="353" y="81" on="1"/>
        <pt x="353" y="202" on="1"/>
        <pt x="482" y="224" on="1"/>
      </contour>
    </TTGlyph>
</ttFont>
